<svg id="Abonnements" xmlns="http://www.w3.org/2000/svg" width="360" height="340.5" viewBox="0 0 360 340.5">
  <path id="Subtraction_1" data-name="Subtraction 1" d="M269.135,259H39.95A155.182,155.182,0,0,1,94.388,12.181,153.436,153.436,0,0,1,123.4,3.149a155.6,155.6,0,0,1,62.292,0,153.454,153.454,0,0,1,55.26,23.323A155.174,155.174,0,0,1,269.136,259Z" transform="translate(26.507 80.999)" fill="#abd8fe" opacity="0.211"/>
  <path id="Path_62" data-name="Path 62" d="M1198.4,936.259a3.857,3.857,0,1,1-3.856-3.857A3.862,3.862,0,0,1,1198.4,936.259Zm-1.911,0a1.946,1.946,0,1,0-1.945,1.946A1.948,1.948,0,0,0,1196.484,936.259Z" transform="translate(-882.194 -747.531)" fill="#91a8f6"/>
  <g id="Group_252" data-name="Group 252" transform="translate(325.02 45.544)">
    <path id="Path_63" data-name="Path 63" d="M1263.238,795.026h-21.846a.956.956,0,1,0,0,1.911h21.846a.956.956,0,1,0,0-1.911Z" transform="translate(-1229.214 -795.022)" fill="#91a8f6"/>
    <path id="Path_64" data-name="Path 64" d="M1234.439,795.022h-4.269a.956.956,0,1,0,0,1.911h4.269a.956.956,0,0,0,0-1.911Z" transform="translate(-1229.214 -795.022)" fill="#91a8f6"/>
    <path id="Path_65" data-name="Path 65" d="M1252.974,802.638a.957.957,0,0,1-.956.956h-2.732a.956.956,0,1,1,0-1.912h2.732A.956.956,0,0,1,1252.974,802.638Zm-7.511,0a.957.957,0,0,1-.956.956h-4.779a.956.956,0,0,1,0-1.912h4.779A.956.956,0,0,1,1245.463,802.638Zm-9.557,0a.957.957,0,0,1-.956.956h-4.779a.956.956,0,0,1,0-1.912h4.779A.956.956,0,0,1,1235.906,802.638Z" transform="translate(-1229.214 -795.022)" fill="#91a8f6"/>
  </g>
  <g id="Group_253" data-name="Group 253" transform="translate(21.834 103.726)">
    <path id="Path_66" data-name="Path 66" d="M908.787,858.918a.957.957,0,0,0-.956.956v2.216a.956.956,0,0,0,1.912,0v-2.216A.956.956,0,0,0,908.787,858.918Z" transform="translate(-903.113 -852.101)" fill="#91a8f6"/>
    <path id="Path_67" data-name="Path 67" d="M906.286,856.694h-2.217a.956.956,0,1,0,0,1.911h2.217a.956.956,0,1,0,0-1.911Z" transform="translate(-903.113 -852.101)" fill="#91a8f6"/>
    <path id="Path_68" data-name="Path 68" d="M908.787,852.1a.957.957,0,0,0-.956.956v2.216a.956.956,0,0,0,1.912,0v-2.216A.956.956,0,0,0,908.787,852.1Z" transform="translate(-903.113 -852.101)" fill="#91a8f6"/>
    <path id="Path_69" data-name="Path 69" d="M913.506,856.542h-2.218a.956.956,0,0,0,0,1.911h2.218a.956.956,0,1,0,0-1.911Z" transform="translate(-903.113 -852.101)" fill="#91a8f6"/>
  </g>
  <g id="Group_254" data-name="Group 254" transform="translate(261.549 40.659)">
    <path id="Path_70" data-name="Path 70" d="M1149.188,796.954a.956.956,0,0,0-.956.955v2.217a.956.956,0,1,0,1.912,0v-2.217A.956.956,0,0,0,1149.188,796.954Z" transform="translate(-1143.514 -790.137)" fill="#91a8f6"/>
    <path id="Path_71" data-name="Path 71" d="M1146.687,794.73h-2.217a.956.956,0,1,0,0,1.911h2.217a.956.956,0,0,0,0-1.911Z" transform="translate(-1143.514 -790.137)" fill="#91a8f6"/>
    <path id="Path_72" data-name="Path 72" d="M1149.188,790.137a.957.957,0,0,0-.956.956v2.215a.956.956,0,1,0,1.912,0v-2.215A.956.956,0,0,0,1149.188,790.137Z" transform="translate(-1143.514 -790.137)" fill="#91a8f6"/>
    <path id="Path_73" data-name="Path 73" d="M1153.907,794.578h-2.218a.956.956,0,0,0,0,1.911h2.218a.956.956,0,1,0,0-1.911Z" transform="translate(-1143.514 -790.137)" fill="#91a8f6"/>
  </g>
  <g id="Group_255" data-name="Group 255" transform="translate(144.373)">
    <path id="Path_74" data-name="Path 74" d="M1060.082,749.482h-21.847a.956.956,0,0,0,0,1.911h21.847a.956.956,0,1,0,0-1.911Z" transform="translate(-1026.058 -749.478)" fill="#91a8f6"/>
    <path id="Path_75" data-name="Path 75" d="M1031.283,749.478h-4.27a.955.955,0,0,0,0,1.911h4.27a.955.955,0,0,0,0-1.911Z" transform="translate(-1026.058 -749.478)" fill="#91a8f6"/>
    <path id="Path_76" data-name="Path 76" d="M1049.818,757.093a.956.956,0,0,1-.956.956h-2.732a.956.956,0,1,1,0-1.911h2.732A.956.956,0,0,1,1049.818,757.093Zm-7.511,0a.956.956,0,0,1-.956.956h-4.779a.956.956,0,0,1,0-1.911h4.779A.956.956,0,0,1,1042.307,757.093Zm-9.557,0a.956.956,0,0,1-.956.956h-4.779a.956.956,0,0,1,0-1.911h4.779A.956.956,0,0,1,1032.75,757.093Z" transform="translate(-1026.058 -749.478)" fill="#91a8f6"/>
  </g>
  <path id="Path_81" data-name="Path 81" d="M972.308,773.157s1.3,9.31-9.57,9.1c0,0,9.341.095,9.1,8.831,0,0,.84-6.872,9.412-8.407C981.246,782.676,974,784.338,972.308,773.157Z" transform="translate(-881.497 -749.478)" fill="#91a8f6"/>
  <path id="Path_82" data-name="Path 82" d="M878.7,798.868s1.3,9.31-9.57,9.1c0,0,9.341.095,9.1,8.831,0,0,.841-6.872,9.412-8.407C887.633,808.387,880.39,810.048,878.7,798.868Z" transform="translate(-869.126 -749.038)" fill="#91a8f6"/>
  <path id="Path_83" data-name="Path 83" d="M935.436,759.077s.454,3.245-3.336,3.171c0,0,3.257.033,3.169,3.078a3.7,3.7,0,0,1,3.281-2.931S936.026,762.974,935.436,759.077Z" transform="translate(-881.279 -749.478)" fill="#91a8f6"/>
  <path id="Path_84" data-name="Path 84" d="M1105.727,870.947s.454,3.245-3.336,3.171c0,0,3.257.033,3.169,3.078a3.7,3.7,0,0,1,3.281-2.931S1106.317,874.844,1105.727,870.947Z" transform="translate(-881.85 -748.191)" fill="#91a8f6"/>
  <g id="Group_257" data-name="Group 257" transform="translate(7.091 166.594)">
    <path id="Path_86" data-name="Path 86" d="M944.505,961.592H923.292a4.921,4.921,0,0,1-.157-9.84,7.616,7.616,0,0,1,13.995-4.03,5.525,5.525,0,0,1,6.135,4.027h1.24a4.921,4.921,0,1,1,0,9.843Zm-21.213-8.386a3.465,3.465,0,1,0,0,6.93h21.213a3.465,3.465,0,0,0,0-6.93h-2.448l-.1-.614a4.07,4.07,0,0,0-5.021-3.352l-.536.128-.269-.482a6.16,6.16,0,0,0-11.543,3c0,.18.012.357.027.533l.068.791Z" transform="translate(-918.37 -944.265)" fill="#91a8f6"/>
  </g>
  <g id="Group_259" data-name="Group 259" transform="translate(86.823 70.183)">
    <path id="Path_88" data-name="Path 88" d="M994.479,836.228H973.265a4.921,4.921,0,0,1-.157-9.84,7.616,7.616,0,0,1,14-4.03,5.527,5.527,0,0,1,6.134,4.027h1.241a4.922,4.922,0,0,1,0,9.843Zm-21.214-8.386a3.465,3.465,0,1,0,0,6.93h21.214a3.465,3.465,0,0,0,0-6.93H992.03l-.1-.614a4.072,4.072,0,0,0-5.021-3.352l-.536.128-.269-.481a6.16,6.16,0,0,0-11.544,2.995c0,.18.013.357.028.533l.067.791Z" transform="translate(-968.344 -818.9)" fill="#91a8f6"/>
  </g>
  <g id="Group_276" data-name="Group 276" transform="translate(165.362 33.652)">
    <g id="Group_272" data-name="Group 272" transform="translate(128.794 56.789)">
      <g id="Group_271" data-name="Group 271">
        <g id="Group_270" data-name="Group 270">
          <g id="Group_269" data-name="Group 269">
            <path id="Path_93" data-name="Path 93" d="M1178.726,844.673h59.408a2.377,2.377,0,0,0,0-4.754h-59.408a2.377,2.377,0,0,0,0,4.754Z" transform="translate(-1176.35 -839.919)" fill="#91a8f6"/>
          </g>
        </g>
      </g>
    </g>
    <g id="Group_275" data-name="Group 275">
      <g id="Group_274" data-name="Group 274">
        <g id="Group_273" data-name="Group 273">
          <path id="Path_94" data-name="Path 94" d="M1078.525,844.082a31.416,31.416,0,0,1-6.319-.643,1.569,1.569,0,0,1-1.22-1.852,1.592,1.592,0,0,1,1.853-1.22,28.359,28.359,0,0,0,9.84.273,1.568,1.568,0,1,1,.464,3.1A31.5,31.5,0,0,1,1078.525,844.082Zm14.229-3.661a1.569,1.569,0,0,1-.763-2.942,27.831,27.831,0,0,0,7.636-6.21,1.566,1.566,0,0,1,2.372,2.046,31.043,31.043,0,0,1-8.488,6.909A1.569,1.569,0,0,1,1092.754,840.421Zm13.345-15.509a1.594,1.594,0,0,1-.546-.1,1.568,1.568,0,0,1-.923-2.015,27.736,27.736,0,0,0,1.732-9.685,1.566,1.566,0,0,1,3.133,0,30.864,30.864,0,0,1-1.926,10.777A1.573,1.573,0,0,1,1106.1,824.912Zm-55.676-1.557a1.565,1.565,0,0,1-1.5-1.107,31.007,31.007,0,0,1-1.37-9.133c0-.585.015-1.161.048-1.735a1.6,1.6,0,0,1,1.653-1.475,1.565,1.565,0,0,1,1.475,1.653c-.028.513-.043,1.034-.043,1.554a27.976,27.976,0,0,0,1.232,8.213,1.567,1.567,0,0,1-1.036,1.959A1.544,1.544,0,0,1,1050.423,823.355Zm56.643-15.766a1.566,1.566,0,0,1-1.52-1.192,27.625,27.625,0,0,0-4.026-8.975,1.568,1.568,0,1,1,2.587-1.771,30.719,30.719,0,0,1,4.48,9.991,1.565,1.565,0,0,1-1.143,1.9A1.514,1.514,0,0,1,1107.066,807.589Zm-11.542-16.9a1.545,1.545,0,0,1-.905-.289,27.6,27.6,0,0,0-8.9-4.184,1.568,1.568,0,1,1,.806-3.031,30.728,30.728,0,0,1,9.909,4.659,1.567,1.567,0,0,1-.911,2.845Z" transform="translate(-1047.556 -783.13)" fill="#445eea"/>
        </g>
      </g>
    </g>
  </g>
  <text id="_" data-name="
" transform="translate(335.592 262)" fill="#000759" font-size="13" font-family="Poppins-Medium, Poppins" font-weight="500"><tspan x="0" y="0"></tspan><tspan x="0" y="40"></tspan></text>
  <g id="Group_382" data-name="Group 382" transform="translate(27.507 100.5)">
    <g id="Group_378" data-name="Group 378" transform="translate(0 0)">
      <g id="Group_377" data-name="Group 377" transform="translate(0)">
        <g id="Group_375" data-name="Group 375">
          <g id="Group_374" data-name="Group 374">
            <g id="Group_366" data-name="Group 366" transform="translate(1.86)">
              <path id="Path_331" data-name="Path 331" d="M165.372-178.095,197.1-105.067l23.187-15.562,13.437,19.155,2.425-32.314,28.062-16.776Z" transform="translate(-165.372 178.095)" fill="#af9cda"/>
              <path id="Path_332" data-name="Path 332" d="M214.371-131.595l-28.327,19.019,23.187-15.562,13.437,19.155,2.425-32.314-44.715-26.127Z" transform="translate(-154.32 185.604)" fill="#af9cda"/>
              <path id="Path_333" data-name="Path 333" d="M224.5-133.376l-44.121-34.048L225.093-141.3Z" transform="translate(-154.32 185.604)" fill="#5f38b7"/>
            </g>
            <g id="Group_367" data-name="Group 367" transform="translate(27.255 80.938)">
              <path id="Path_334" data-name="Path 334" d="M205.459-125.795c-.25-1.424-.568-2.842-.943-4.22l2.176-.572c.392,1.443.724,2.929.986,4.416Z" transform="translate(-161.937 130.587)" fill="#5f38b7"/>
              <path id="Path_335" data-name="Path 335" d="M197.25-81.743A18.87,18.87,0,0,1,188.2-84.7l1.245-1.84a16.569,16.569,0,0,0,7.95,2.595Zm9.354-1.8-1-1.983a22.61,22.61,0,0,0,6.738-5.2l1.676,1.477A24.833,24.833,0,0,1,206.6-83.546Zm-24.667-8.213A17.965,17.965,0,0,1,180-99.787c0-.223.005-.448.016-.671l.026-.479,2.245.162-.023.4c-.007.2-.012.394-.012.586a15.785,15.785,0,0,0,1.709,7.05Zm87.128-.5-.01-2.21c2.933-.014,5.953-.131,8.971-.349l.165,2.2C275.123-92.4,272.051-92.277,269.066-92.263Zm-9.134-.291-1.438-.109c-2.768-.225-5.275-.532-7.668-.937l.384-2.177c2.327.4,4.77.693,7.472.915l1.407.1Zm27.332-1-.3-2.191c2.9-.385,5.881-.871,8.873-1.436l.427,2.169C293.229-94.442,290.2-93.952,287.264-93.558Zm-45.387-2.233A44.026,44.026,0,0,1,234.5-99c-.354-.194-.705-.4-1.054-.6l1.163-1.891c.328.194.658.385.993.569a41.921,41.921,0,0,0,7,3.043ZM219.4-96.673l-1.954-1.1a48.941,48.941,0,0,0,3.714-7.878l2.119.75A51.328,51.328,0,0,1,219.4-96.673Zm85.757-.244-.53-2.148c2.817-.67,5.748-1.431,8.71-2.262l.62,2.124C310.969-98.363,308.008-97.594,305.16-96.916Zm17.5-4.893-.695-2.1q4.3-1.365,8.545-2.85l.752,2.082Q326.984-103.19,322.659-101.809Zm-96.729-2.912a62.447,62.447,0,0,0-6.7-4.327l-.754-.392L219.5-111.4c.269.135.538.276.8.417a65.437,65.437,0,0,1,6.951,4.479Zm-40.491-3.322-1.573-1.579a19.333,19.333,0,0,1,8.287-4.363l.757,2.084A17.645,17.645,0,0,0,185.438-108.043Zm24.809-4.314a36.468,36.468,0,0,0-7.806-.848l-.913.012-.054-2.21a38.876,38.876,0,0,1,9.264.891Zm15.415-1.3-2.218-.387a50.178,50.178,0,0,0,.8-8.651l2.252.01A52.282,52.282,0,0,1,225.662-113.658Z" transform="translate(-179.996 136.14)" fill="#5f38b7"/>
              <path id="Path_336" data-name="Path 336" d="M272.409-112.44l-.8-2.065q2.1-.785,4.2-1.591l.818,2.06Q274.526-113.231,272.409-112.44Z" transform="translate(-112.524 140.784)" fill="#5f38b7"/>
            </g>
            <path id="Path_337" data-name="Path 337" d="M313.852-72.8a2.238,2.238,0,0,1-2.24-2,2.22,2.22,0,0,1,2.025-2.411,53.834,53.834,0,0,0,35.254-17.948,2.279,2.279,0,0,1,3.176-.215,2.175,2.175,0,0,1,.219,3.116A58.324,58.324,0,0,1,314.07-72.806C314-72.8,313.924-72.8,313.852-72.8Z" transform="translate(-65.815 205.925)" fill="#72b4e9"/>
            <g id="Group_370" data-name="Group 370" transform="translate(86.607 62.017)">
              <g id="Group_369" data-name="Group 369">
                <g id="Group_368" data-name="Group 368">
                  <path id="Path_338" data-name="Path 338" d="M311.969,9.667H227.322a13.024,13.024,0,0,1-13.147-12.9V-128.8a13.024,13.024,0,0,1,13.147-12.9H333.388a13.022,13.022,0,0,1,13.145,12.9V-24.244Z" transform="translate(-214.175 141.693)" fill="#fff"/>
                  <path id="Path_339" data-name="Path 339" d="M270.492-59.856a13.025,13.025,0,0,1,13.147-12.9h21.418L270.492-38.843Z" transform="translate(-172.698 190.203)" fill="#e6e8e8"/>
                  <rect id="Rectangle_379" data-name="Rectangle 379" width="38.569" height="37.84" rx="2.697" transform="translate(20.023 92.295)" fill="#92cef8"/>
                  <path id="Path_340" data-name="Path 340" d="M299.578-90.634H229.505a3.737,3.737,0,0,1-3.773-3.7h0a3.737,3.737,0,0,1,3.773-3.7h70.073a3.737,3.737,0,0,1,3.773,3.7h0A3.737,3.737,0,0,1,299.578-90.634Z" transform="translate(-205.663 172.413)" fill="#d9dbdb"/>
                  <path id="Path_341" data-name="Path 341" d="M299.578-101.457H229.505a3.739,3.739,0,0,1-3.773-3.7h0a3.739,3.739,0,0,1,3.773-3.7h70.073a3.738,3.738,0,0,1,3.773,3.7h0A3.738,3.738,0,0,1,299.578-101.457Z" transform="translate(-205.663 164.796)" fill="#d9dbdb"/>
                  <path id="Path_342" data-name="Path 342" d="M267.755-111.957h-38.25a3.739,3.739,0,0,1-3.773-3.7h0a3.739,3.739,0,0,1,3.773-3.7h38.25a3.738,3.738,0,0,1,3.773,3.7h0A3.738,3.738,0,0,1,267.755-111.957Z" transform="translate(-205.663 157.407)" fill="#d9dbdb"/>
                </g>
              </g>
            </g>
            <g id="Group_373" data-name="Group 373" transform="translate(194.079 29.976)">
              <g id="Group_372" data-name="Group 372">
                <path id="Path_343" data-name="Path 343" d="M324.189-142.661c-22.585,2.176-40.627,20.437-42.242,42.646a45.278,45.278,0,0,0,8.268,29.623A11.03,11.03,0,0,1,291.3-59.7l-3.725,8.8L302.8-54.778a11.681,11.681,0,0,1,7.453.566,47.867,47.867,0,0,0,23.359,3.579c22.166-2.106,40.1-19.669,42.244-41.418C378.73-121.229,353.938-145.525,324.189-142.661Z" transform="translate(-281.824 142.891)" fill="#92cef8"/>
                <g id="Group_371" data-name="Group 371" transform="translate(22.468 26.734)">
                  <path id="Path_344" data-name="Path 344" d="M320.593-85.448l2.589-2.54s-2.056-4.758,6.569-12.779c5.133-4.775,6.283-9.4,5.864-13.18a13.338,13.338,0,0,0-11.8-11.581c-3.853-.409-8.566.717-13.432,5.755-8.177,8.462-13.025,6.443-13.025,6.443l-2.591,2.542Z" transform="translate(-294.763 128.321)" fill="#fff"/>
                  <path id="Path_345" data-name="Path 345" d="M298.715-111.145a6.908,6.908,0,0,0,.708,9.094,7.246,7.246,0,0,0,9.268.7Z" transform="translate(-292.87 138.496)" fill="#fff"/>
                  <path id="Path_346" data-name="Path 346" d="M322.125-121.323l-1.613,1.583a15.45,15.45,0,0,0-4.972-4.85l1.625-1.6a3.559,3.559,0,0,1,4.972,0A3.393,3.393,0,0,1,322.125-121.323Z" transform="translate(-279.461 127.199)" fill="#fff"/>
                </g>
              </g>
              <path id="Path_347" data-name="Path 347" d="M325.884-142.866A40.064,40.064,0,0,1,354.915-104.6c0,22.064-18.231,39.951-40.722,39.951A40.921,40.921,0,0,1,284.271-77.57a46.137,46.137,0,0,0,4.142,7.172A11.03,11.03,0,0,1,289.5-59.709l-3.725,8.8L301-54.783a11.681,11.681,0,0,1,7.453.566,47.867,47.867,0,0,0,23.359,3.579c22.166-2.106,40.1-19.669,42.244-41.418C376.815-120.081,354.048-143.59,325.884-142.866Z" transform="translate(-280.022 142.897)" fill="#72b4e9"/>
            </g>
            <path id="Path_348" data-name="Path 348" d="M168.849-164.806l10.29,23.166a2.31,2.31,0,0,1-1.235,3.065l-.368.155a2.388,2.388,0,0,1-3.126-1.233l-9.924-23.321a2.314,2.314,0,0,1,1.365-3.087h0A2.387,2.387,0,0,1,168.849-164.806Z" transform="translate(-164.3 186.461)" fill="#af9cda"/>
          </g>
        </g>
      </g>
    </g>
    <rect id="Rectangle_380" data-name="Rectangle 380" width="19.285" height="18.92" rx="2.697" transform="translate(106.672 71.478)" fill="#af9cda"/>
  </g>
  <line id="Line_47" data-name="Line 47" x2="308" transform="translate(27.007 340)" fill="none" stroke="#707070" stroke-width="1" opacity="0.473"/>
</svg>
