<svg id="Annonces" xmlns="http://www.w3.org/2000/svg" width="360" height="340.5" viewBox="0 0 360 340.5">
  <path id="Subtraction_1" data-name="Subtraction 1" d="M269.135,259H39.95A155.182,155.182,0,0,1,94.388,12.181,153.436,153.436,0,0,1,123.4,3.149a155.6,155.6,0,0,1,62.292,0,153.454,153.454,0,0,1,55.26,23.323A155.174,155.174,0,0,1,269.136,259Z" transform="translate(26.507 80.999)" fill="#abd8fe" opacity="0.211"/>
  <path id="Path_62" data-name="Path 62" d="M1198.4,936.259a3.857,3.857,0,1,1-3.856-3.857A3.862,3.862,0,0,1,1198.4,936.259Zm-1.911,0a1.946,1.946,0,1,0-1.945,1.946A1.948,1.948,0,0,0,1196.484,936.259Z" transform="translate(-882.194 -747.531)" fill="#91a8f6"/>
  <g id="Group_252" data-name="Group 252" transform="translate(325.02 45.544)">
    <path id="Path_63" data-name="Path 63" d="M1263.238,795.026h-21.846a.956.956,0,1,0,0,1.911h21.846a.956.956,0,1,0,0-1.911Z" transform="translate(-1229.214 -795.022)" fill="#91a8f6"/>
    <path id="Path_64" data-name="Path 64" d="M1234.439,795.022h-4.269a.956.956,0,1,0,0,1.911h4.269a.956.956,0,0,0,0-1.911Z" transform="translate(-1229.214 -795.022)" fill="#91a8f6"/>
    <path id="Path_65" data-name="Path 65" d="M1252.974,802.638a.957.957,0,0,1-.956.956h-2.732a.956.956,0,1,1,0-1.912h2.732A.956.956,0,0,1,1252.974,802.638Zm-7.511,0a.957.957,0,0,1-.956.956h-4.779a.956.956,0,0,1,0-1.912h4.779A.956.956,0,0,1,1245.463,802.638Zm-9.557,0a.957.957,0,0,1-.956.956h-4.779a.956.956,0,0,1,0-1.912h4.779A.956.956,0,0,1,1235.906,802.638Z" transform="translate(-1229.214 -795.022)" fill="#91a8f6"/>
  </g>
  <g id="Group_253" data-name="Group 253" transform="translate(21.834 103.726)">
    <path id="Path_66" data-name="Path 66" d="M908.787,858.918a.957.957,0,0,0-.956.956v2.216a.956.956,0,0,0,1.912,0v-2.216A.956.956,0,0,0,908.787,858.918Z" transform="translate(-903.113 -852.101)" fill="#91a8f6"/>
    <path id="Path_67" data-name="Path 67" d="M906.286,856.694h-2.217a.956.956,0,1,0,0,1.911h2.217a.956.956,0,1,0,0-1.911Z" transform="translate(-903.113 -852.101)" fill="#91a8f6"/>
    <path id="Path_68" data-name="Path 68" d="M908.787,852.1a.957.957,0,0,0-.956.956v2.216a.956.956,0,0,0,1.912,0v-2.216A.956.956,0,0,0,908.787,852.1Z" transform="translate(-903.113 -852.101)" fill="#91a8f6"/>
    <path id="Path_69" data-name="Path 69" d="M913.506,856.542h-2.218a.956.956,0,0,0,0,1.911h2.218a.956.956,0,1,0,0-1.911Z" transform="translate(-903.113 -852.101)" fill="#91a8f6"/>
  </g>
  <g id="Group_254" data-name="Group 254" transform="translate(261.549 40.659)">
    <path id="Path_70" data-name="Path 70" d="M1149.188,796.954a.956.956,0,0,0-.956.955v2.217a.956.956,0,1,0,1.912,0v-2.217A.956.956,0,0,0,1149.188,796.954Z" transform="translate(-1143.514 -790.137)" fill="#91a8f6"/>
    <path id="Path_71" data-name="Path 71" d="M1146.687,794.73h-2.217a.956.956,0,1,0,0,1.911h2.217a.956.956,0,0,0,0-1.911Z" transform="translate(-1143.514 -790.137)" fill="#91a8f6"/>
    <path id="Path_72" data-name="Path 72" d="M1149.188,790.137a.957.957,0,0,0-.956.956v2.215a.956.956,0,1,0,1.912,0v-2.215A.956.956,0,0,0,1149.188,790.137Z" transform="translate(-1143.514 -790.137)" fill="#91a8f6"/>
    <path id="Path_73" data-name="Path 73" d="M1153.907,794.578h-2.218a.956.956,0,0,0,0,1.911h2.218a.956.956,0,1,0,0-1.911Z" transform="translate(-1143.514 -790.137)" fill="#91a8f6"/>
  </g>
  <g id="Group_255" data-name="Group 255" transform="translate(144.373)">
    <path id="Path_74" data-name="Path 74" d="M1060.082,749.482h-21.847a.956.956,0,0,0,0,1.911h21.847a.956.956,0,1,0,0-1.911Z" transform="translate(-1026.058 -749.478)" fill="#91a8f6"/>
    <path id="Path_75" data-name="Path 75" d="M1031.283,749.478h-4.27a.955.955,0,0,0,0,1.911h4.27a.955.955,0,0,0,0-1.911Z" transform="translate(-1026.058 -749.478)" fill="#91a8f6"/>
    <path id="Path_76" data-name="Path 76" d="M1049.818,757.093a.956.956,0,0,1-.956.956h-2.732a.956.956,0,1,1,0-1.911h2.732A.956.956,0,0,1,1049.818,757.093Zm-7.511,0a.956.956,0,0,1-.956.956h-4.779a.956.956,0,0,1,0-1.911h4.779A.956.956,0,0,1,1042.307,757.093Zm-9.557,0a.956.956,0,0,1-.956.956h-4.779a.956.956,0,0,1,0-1.911h4.779A.956.956,0,0,1,1032.75,757.093Z" transform="translate(-1026.058 -749.478)" fill="#91a8f6"/>
  </g>
  <path id="Path_81" data-name="Path 81" d="M972.308,773.157s1.3,9.31-9.57,9.1c0,0,9.341.095,9.1,8.831,0,0,.84-6.872,9.412-8.407C981.246,782.676,974,784.338,972.308,773.157Z" transform="translate(-881.497 -749.478)" fill="#91a8f6"/>
  <path id="Path_82" data-name="Path 82" d="M878.7,798.868s1.3,9.31-9.57,9.1c0,0,9.341.095,9.1,8.831,0,0,.841-6.872,9.412-8.407C887.633,808.387,880.39,810.048,878.7,798.868Z" transform="translate(-869.126 -749.038)" fill="#91a8f6"/>
  <path id="Path_83" data-name="Path 83" d="M935.436,759.077s.454,3.245-3.336,3.171c0,0,3.257.033,3.169,3.078a3.7,3.7,0,0,1,3.281-2.931S936.026,762.974,935.436,759.077Z" transform="translate(-881.279 -749.478)" fill="#91a8f6"/>
  <path id="Path_84" data-name="Path 84" d="M1105.727,870.947s.454,3.245-3.336,3.171c0,0,3.257.033,3.169,3.078a3.7,3.7,0,0,1,3.281-2.931S1106.317,874.844,1105.727,870.947Z" transform="translate(-881.85 -748.191)" fill="#91a8f6"/>
  <g id="Group_257" data-name="Group 257" transform="translate(7.091 166.594)">
    <path id="Path_86" data-name="Path 86" d="M944.505,961.592H923.292a4.921,4.921,0,0,1-.157-9.84,7.616,7.616,0,0,1,13.995-4.03,5.525,5.525,0,0,1,6.135,4.027h1.24a4.921,4.921,0,1,1,0,9.843Zm-21.213-8.386a3.465,3.465,0,1,0,0,6.93h21.213a3.465,3.465,0,0,0,0-6.93h-2.448l-.1-.614a4.07,4.07,0,0,0-5.021-3.352l-.536.128-.269-.482a6.16,6.16,0,0,0-11.543,3c0,.18.012.357.027.533l.068.791Z" transform="translate(-918.37 -944.265)" fill="#91a8f6"/>
  </g>
  <g id="Group_259" data-name="Group 259" transform="translate(86.823 70.183)">
    <path id="Path_88" data-name="Path 88" d="M994.479,836.228H973.265a4.921,4.921,0,0,1-.157-9.84,7.616,7.616,0,0,1,14-4.03,5.527,5.527,0,0,1,6.134,4.027h1.241a4.922,4.922,0,0,1,0,9.843Zm-21.214-8.386a3.465,3.465,0,1,0,0,6.93h21.214a3.465,3.465,0,0,0,0-6.93H992.03l-.1-.614a4.072,4.072,0,0,0-5.021-3.352l-.536.128-.269-.481a6.16,6.16,0,0,0-11.544,2.995c0,.18.013.357.028.533l.067.791Z" transform="translate(-968.344 -818.9)" fill="#91a8f6"/>
  </g>
  <g id="Group_276" data-name="Group 276" transform="translate(165.362 33.652)">
    <g id="Group_272" data-name="Group 272" transform="translate(128.794 56.789)">
      <g id="Group_271" data-name="Group 271">
        <g id="Group_270" data-name="Group 270">
          <g id="Group_269" data-name="Group 269">
            <path id="Path_93" data-name="Path 93" d="M1178.726,844.673h59.408a2.377,2.377,0,0,0,0-4.754h-59.408a2.377,2.377,0,0,0,0,4.754Z" transform="translate(-1176.35 -839.919)" fill="#91a8f6"/>
          </g>
        </g>
      </g>
    </g>
    <g id="Group_275" data-name="Group 275">
      <g id="Group_274" data-name="Group 274">
        <g id="Group_273" data-name="Group 273">
          <path id="Path_94" data-name="Path 94" d="M1078.525,844.082a31.416,31.416,0,0,1-6.319-.643,1.569,1.569,0,0,1-1.22-1.852,1.592,1.592,0,0,1,1.853-1.22,28.359,28.359,0,0,0,9.84.273,1.568,1.568,0,1,1,.464,3.1A31.5,31.5,0,0,1,1078.525,844.082Zm14.229-3.661a1.569,1.569,0,0,1-.763-2.942,27.831,27.831,0,0,0,7.636-6.21,1.566,1.566,0,0,1,2.372,2.046,31.043,31.043,0,0,1-8.488,6.909A1.569,1.569,0,0,1,1092.754,840.421Zm13.345-15.509a1.594,1.594,0,0,1-.546-.1,1.568,1.568,0,0,1-.923-2.015,27.736,27.736,0,0,0,1.732-9.685,1.566,1.566,0,0,1,3.133,0,30.864,30.864,0,0,1-1.926,10.777A1.573,1.573,0,0,1,1106.1,824.912Zm-55.676-1.557a1.565,1.565,0,0,1-1.5-1.107,31.007,31.007,0,0,1-1.37-9.133c0-.585.015-1.161.048-1.735a1.6,1.6,0,0,1,1.653-1.475,1.565,1.565,0,0,1,1.475,1.653c-.028.513-.043,1.034-.043,1.554a27.976,27.976,0,0,0,1.232,8.213,1.567,1.567,0,0,1-1.036,1.959A1.544,1.544,0,0,1,1050.423,823.355Zm56.643-15.766a1.566,1.566,0,0,1-1.52-1.192,27.625,27.625,0,0,0-4.026-8.975,1.568,1.568,0,1,1,2.587-1.771,30.719,30.719,0,0,1,4.48,9.991,1.565,1.565,0,0,1-1.143,1.9A1.514,1.514,0,0,1,1107.066,807.589Zm-11.542-16.9a1.545,1.545,0,0,1-.905-.289,27.6,27.6,0,0,0-8.9-4.184,1.568,1.568,0,1,1,.806-3.031,30.728,30.728,0,0,1,9.909,4.659,1.567,1.567,0,0,1-.911,2.845Z" transform="translate(-1047.556 -783.13)" fill="#445eea"/>
        </g>
      </g>
    </g>
  </g>
  <text id="_" data-name="
" transform="translate(335.592 262)" fill="#000759" font-size="13" font-family="Poppins-Medium, Poppins" font-weight="500"><tspan x="0" y="0"></tspan><tspan x="0" y="40"></tspan></text>
  <g id="Group_386" data-name="Group 386" transform="translate(1794.507 -1307.5)">
    <g id="Group_385" data-name="Group 385" transform="translate(-1751 1393)">
      <g id="Group_289" data-name="Group 289" transform="translate(39.878 24.335)" opacity="0.88">
        <g id="Group_288" data-name="Group 288">
          <path id="Path_100" data-name="Path 100" d="M369.093,934.544a63.436,63.436,0,0,0-.29-10.8,69.848,69.848,0,0,0-23.217-43.9c-4.528-3.995-9.68-7.574-12.626-12.848-4.962-8.881-4.586-19.089-10.745-27.858a52.1,52.1,0,0,0-25.284-19.143c-30.212-10.484-72.509,6.587-68.7,43.041.014.131.029.321.045.561a13.261,13.261,0,0,1-12.981,14.118c-27.874.662-51.869,22.185-57,49.449-3.3,17.533,2.105,36.751,14.912,49.154,9.559,9.258,22.386,14.345,35.218,17.84,25.729,7.007,52.805,8.477,79.335,5.8,24.833-2.509,51.028-9.658,67.089-28.792A62.884,62.884,0,0,0,369.093,934.544Z" transform="translate(-157.343 -816.94)" fill="#c5d9ff"/>
        </g>
      </g>
      <circle id="Ellipse_14" data-name="Ellipse 14" cx="8.693" cy="8.693" r="8.693" transform="matrix(0.231, -0.973, 0.973, 0.231, 254.073, 30.787)" fill="#c5d9ff" opacity="0.31"/>
      <circle id="Ellipse_15" data-name="Ellipse 15" cx="10.08" cy="10.08" r="10.08" transform="translate(59.186 14.255) rotate(-45)" fill="#c5d9ff" opacity="0.31"/>
      <circle id="Ellipse_16" data-name="Ellipse 16" cx="13.018" cy="13.018" r="13.018" transform="translate(0 195.333)" fill="#c5d9ff" opacity="0.31"/>
    </g>
    <g id="Group_383" data-name="Group 383" transform="translate(-1727.884 1403.476)">
      <g id="Group_315" data-name="Group 315" transform="translate(0 13.365)">
        <path id="Path_166" data-name="Path 166" d="M532.235,331.505v8.678a1.434,1.434,0,0,0,1.364.8c1.123.08,26.545.4,31.162,0s44.406.314,48.9.2,20.456.3,21.018.013.561-3.519.481-4.793-.081-70.585-.081-70.585-.24-33.772-.24-34.976-4.685-2.326-4.685-2.326l-50.5,16.378" transform="translate(-528.283 -227.873)" fill="#e0e0e0"/>
        <path id="Path_167" data-name="Path 167" d="M529.34,228.883v97.755l.642,9.52H631.06V228.015H529.34" transform="translate(-529.104 -228.015)" fill="#fff"/>
        <path id="Path_168" data-name="Path 168" d="M535.095,250.487s-5.936-1.069-5.936,1.337v57.117s-.16,1.658,2.086,1.658h97.869s2.086.321,1.765-2.675,0-55.94,0-55.94,1.042-1.5-2.407-1.5Z" transform="translate(-529.156 -221.71)" fill="#af9cda"/>
        <path id="Path_169" data-name="Path 169" d="M529.923,250.435H630.172" transform="translate(-528.939 -221.658)" fill="none" stroke="#57607f" stroke-miterlimit="10" stroke-width="1"/>
        <path id="Path_170" data-name="Path 170" d="M529.756,297.269h100.33" transform="translate(-528.986 -208.379)" fill="none" stroke="#57607f" stroke-miterlimit="10" stroke-width="1"/>
        <path id="Path_171" data-name="Path 171" d="M529.34,228.883v97.755l.642,9.52H631.06V228.015H529.34" transform="translate(-529.104 -228.015)" fill="none" stroke="#57607f" stroke-miterlimit="10" stroke-width="1"/>
        <g id="Group_311" data-name="Group 311" transform="translate(9.178 92.146)">
          <path id="Path_172" data-name="Path 172" d="M542.412,302.939s-1.176-3.265-4.753-1.615c-3.2,1.476-.359,8.432,4.753,9.6,0,0,5.114-1.793,6.009-6.188S544.116,300.427,542.412,302.939Z" transform="translate(-536.307 -299.508)" fill="#e57a9e"/>
          <path id="Path_173" data-name="Path 173" d="M566.664,301.022c-.963-.68-13.208-1.81-12.3,1.771,0,0-.424,6.212,0,7.059.116.244,1.053.4,2.349.513.167.975.308,3.042-1.284,3.286,0,0,3.9.347,4.544-3.119,3.055.077,6.3.026,6.687-.038C567.421,310.392,567.627,301.69,566.664,301.022Zm-9.164,6.058a1.046,1.046,0,1,1,1.04-1.053A1.046,1.046,0,0,1,557.5,307.081Zm3.53,0a1.046,1.046,0,1,1,0-2.092,1.046,1.046,0,0,1,0,2.092Zm3.53,0a1.046,1.046,0,1,1,1.04-1.053A1.046,1.046,0,0,1,564.559,307.081Z" transform="translate(-531.239 -299.666)" fill="#d1d3d3"/>
          <path id="Path_174" data-name="Path 174" d="M585.707,308.828c-.5-1.018-3.1-1.02-3.7.611l-5.089-1.729a2.769,2.769,0,0,0-.114-1.441,1.349,1.349,0,0,0-.121-.249l2.381-2.077a1.7,1.7,0,0,0,1.816.306c1.936-.7,1.7-2.463,1.065-3.739s-4.563-.964-3.708,2.179c0,0,.019.055.05.135l-2.457,2.581a2.051,2.051,0,0,0-2.326,2.939,3.021,3.021,0,0,0,1.734,1,1.663,1.663,0,0,0,1.173-.607l5.556,2.123c.012.051.014.1.028.149,0,0,.708,2.26,2.644,1.56S586.337,310.1,585.707,308.828Z" transform="translate(-525.833 -299.806)" fill="#d1d3d3"/>
        </g>
        <g id="Group_313" data-name="Group 313" transform="translate(7.339 3.753)">
          <g id="Group_312" data-name="Group 312">
            <path id="Path_175" data-name="Path 175" d="M555.8,241.546a10.441,10.441,0,0,1-3.633,7.927,10.687,10.687,0,0,1-1.67,1.18,10.445,10.445,0,0,1-4.328,1.325c-.273.024-.553.033-.834.033A10.463,10.463,0,1,1,555.8,241.546Z" transform="translate(-534.874 -230.898)" fill="#e57a9e"/>
            <path id="Path_176" data-name="Path 176" d="M545.465,233.468a3.326,3.326,0,1,0,3.326,3.326A3.326,3.326,0,0,0,545.465,233.468Zm.017,7.048c-2.865,0-5.177,3.125-5.177,6.982v2.481a7.733,7.733,0,0,0,8.652,0,10.685,10.685,0,0,0,1.67-1.18v-1.3C550.627,243.641,548.346,240.516,545.482,240.516Z" transform="translate(-533.334 -230.222)" fill="#d1d3d4" style="mix-blend-mode: multiply;isolation: isolate"/>
            <path id="Path_177" data-name="Path 177" d="M544.18,240.517c-2.865,0-5.174,3.125-5.174,6.982v2.479a10.479,10.479,0,0,0,10.318,0V247.5C549.324,243.643,547.045,240.517,544.18,240.517Zm-.017-7.049a3.325,3.325,0,1,0,3.326,3.324A3.325,3.325,0,0,0,544.163,233.468Z" transform="translate(-533.703 -230.222)" fill="#fff"/>
            <path id="Path_178" data-name="Path 178" d="M546.126,250.6c-1.219.692-2.509.6-4.047.675a10.073,10.073,0,0,0,1.122.06,10.414,10.414,0,0,0,5.159-1.355V247.5c0-3.857-2.31-6.982-5.175-6.982a3.939,3.939,0,0,0-1.122.164c2.323.691,4.053,3.48,4.053,6.818Zm-4.047-10.678a3.284,3.284,0,0,0,1.122.2,3.326,3.326,0,1,0,0-6.651,3.283,3.283,0,0,0-1.122.2,3.323,3.323,0,0,1,0,6.257Z" transform="translate(-532.836 -230.222)" fill="#d1d3d4" style="mix-blend-mode: multiply;isolation: isolate"/>
            <path id="Path_179" data-name="Path 179" d="M537.207,234.987a17.032,17.032,0,0,0-1.187,2.531c-.216.526-.531.991-.717,1.524a8.071,8.071,0,0,0-.345,1.6,7.883,7.883,0,0,0,.214,2.937c.127.526.159,1.069.321,1.592.151.486.37.963.534,1.453a6.981,6.981,0,0,0,2.308,2.738,8.739,8.739,0,0,0,2.376,1.557,14.708,14.708,0,0,0,2.993.859c.5.107,1.038.122,1.553.216a2.623,2.623,0,0,0,1.489-.159,4.042,4.042,0,0,1,.864-.332c.245-.032.5.024.746-.009a7.728,7.728,0,0,0,1.472-.468c.24-.087.507-.168.742-.259a4.76,4.76,0,0,0,.782-.536c.226-.149.472-.255.694-.4a3.608,3.608,0,0,0,.7-.739,14.186,14.186,0,0,0,1.916-2.966,7.248,7.248,0,0,0,.629-1.575,10.739,10.739,0,0,0,.166-1.468,14.026,14.026,0,0,0,.091-3.2,8.47,8.47,0,0,0-.934-2.966,7.1,7.1,0,0,0-.353-.786c-.166-.232-.326-.452-.47-.7a4.355,4.355,0,0,0-1.06-1.174c-.462-.375-.735-.934-1.221-1.278a10.335,10.335,0,0,0-1.505-.945,7.542,7.542,0,0,0-1.533-.56,9.092,9.092,0,0,0-1.489-.394c-.525-.031-1-.141-1.531-.141a11.756,11.756,0,0,0-1.5.171,9.557,9.557,0,0,0-2.811.842,9.675,9.675,0,0,0-2.552,1.512,7.487,7.487,0,0,0-.9,1.018" transform="translate(-534.867 -230.939)" fill="none" stroke="#57607f" stroke-miterlimit="10" stroke-width="1.402"/>
            <path id="Path_180" data-name="Path 180" d="M536.782,233.962a.305.305,0,0,1-.085.113" transform="translate(-534.357 -230.082)" fill="none" stroke="#57607f" stroke-miterlimit="10" stroke-width="0.701"/>
            <path id="Path_181" data-name="Path 181" d="M539.078,248.331a3.536,3.536,0,0,1-.028-1.181c0-.408-.028-.8-.028-1.21a10.243,10.243,0,0,1,.239-2.516,7.433,7.433,0,0,1,1.061-2.511,4.819,4.819,0,0,1,1.037-1.005,6.416,6.416,0,0,1,1.064-.773,4.2,4.2,0,0,1,1.1-.16,3.239,3.239,0,0,1,1.025-.035,2.462,2.462,0,0,1,1.083.259c.315.209.639.406.932.612a5.365,5.365,0,0,1,1.409,1.658,6.255,6.255,0,0,1,.99,2.1,12.828,12.828,0,0,1,.3,2.011c.037.789.094,1.544.057,2.335-.008.168.006.389,0,.558" transform="translate(-533.701 -228.678)" fill="none" stroke="#57607f" stroke-miterlimit="10" stroke-width="0.701"/>
            <path id="Path_182" data-name="Path 182" d="M543.181,233.544a5,5,0,0,1,1.386-.023,3.751,3.751,0,0,1,1.108.4,2.8,2.8,0,0,1,1.185,1.581,4.135,4.135,0,0,1,.108,1.8,2.127,2.127,0,0,1-.336.864,5.633,5.633,0,0,1-.739.893,2.821,2.821,0,0,1-1.74.811,2.909,2.909,0,0,1-1.883-.322,3.4,3.4,0,0,1-1.634-1.525,3.732,3.732,0,0,1-.139-1.83,3.613,3.613,0,0,1,.4-.882,4.146,4.146,0,0,1,.558-.881,4.829,4.829,0,0,1,1.683-.88" transform="translate(-533.296 -230.217)" fill="none" stroke="#57607f" stroke-miterlimit="10" stroke-width="0.701"/>
          </g>
          <path id="Path_183" data-name="Path 183" d="M553.689,233.984h28.342" transform="translate(-529.539 -230.076)" fill="none" stroke="#57607f" stroke-miterlimit="10" stroke-width="0.701"/>
          <path id="Path_184" data-name="Path 184" d="M578.4,233.926h2.774" transform="translate(-522.533 -230.092)" fill="none" stroke="#57607f" stroke-miterlimit="10" stroke-width="0.701"/>
          <path id="Path_185" data-name="Path 185" d="M583.481,234.284l.3-.3" transform="translate(-521.092 -230.076)" fill="none" stroke="#57607f" stroke-miterlimit="10" stroke-width="0.701"/>
          <path id="Path_186" data-name="Path 186" d="M553.981,238.949h14.958" transform="translate(-529.457 -228.668)" fill="none" stroke="#57607f" stroke-miterlimit="10" stroke-width="0.701"/>
          <path id="Path_187" data-name="Path 187" d="M567.212,239.037h27.732" transform="translate(-525.705 -228.643)" fill="none" stroke="#57607f" stroke-miterlimit="10" stroke-width="0.701"/>
          <path id="Path_188" data-name="Path 188" d="M553.63,243.418h32.391" transform="translate(-529.556 -227.401)" fill="none" stroke="#57607f" stroke-miterlimit="10" stroke-width="0.701"/>
          <path id="Path_189" data-name="Path 189" d="M580.356,243.243" transform="translate(-521.978 -227.45)" fill="none" stroke="#57607f" stroke-miterlimit="10" stroke-width="0.701"/>
        </g>
        <g id="Group_314" data-name="Group 314" transform="translate(16.582 36.873)">
          <path id="Path_190" data-name="Path 190" d="M542.075,262.364c.837.978,2.434,10.184,2.86,12.286.431,2.123,2.753,10.967,3.644,11.477.586.338,1.819.105,2.485.113,1.119.012,20.537.946,24.911.782,2.192-.083,10.862-.531,12.733-.929a47.724,47.724,0,0,0,3.664-7.5c.851-2.486,1.484-5.161,2.484-7.618a71.9,71.9,0,0,0,2.422-8.609" transform="translate(-542.075 -255.148)" fill="none" stroke="#57607f" stroke-miterlimit="10" stroke-width="1.044"/>
          <path id="Path_191" data-name="Path 191" d="M553.245,285.535a3.373,3.373,0,0,0-3.471,3.6,3.267,3.267,0,0,0,3.64,2.377c1.628-.28,2.7-1.209,2.622-2.9-.069-1.479-1.091-3.268-2.792-3.075" transform="translate(-539.897 -248.583)" fill="none" stroke="#57607f" stroke-miterlimit="10" stroke-width="1.044"/>
          <path id="Path_192" data-name="Path 192" d="M576.679,285.535a3.373,3.373,0,0,0-3.471,3.6,3.267,3.267,0,0,0,3.64,2.377c1.628-.28,2.7-1.209,2.622-2.9-.069-1.479-1.091-3.268-2.792-3.075" transform="translate(-533.253 -248.583)" fill="none" stroke="#57607f" stroke-miterlimit="10" stroke-width="1.044"/>
          <path id="Path_193" data-name="Path 193" d="M544.9,275.222h46.13" transform="translate(-541.273 -251.503)" fill="none" stroke="#57607f" stroke-miterlimit="10" stroke-width="1.044"/>
          <path id="Path_194" data-name="Path 194" d="M544.1,269.725c3.372-.03,35.206.655,42.416.2,2.244-.141,4.608-.13,6.836-.23" transform="translate(-541.5 -253.07)" fill="none" stroke="#57607f" stroke-miterlimit="10" stroke-width="1.044"/>
          <path id="Path_195" data-name="Path 195" d="M542.727,263.735H596.9" transform="translate(-541.89 -254.76)" fill="none" stroke="#57607f" stroke-miterlimit="10" stroke-width="1.044"/>
          <path id="Path_196" data-name="Path 196" d="M547.383,283.553a140.694,140.694,0,0,0,19.521.67c5.35-.19,10.914,1.142,16.175.037,2.788-.585,5.491-1.414,7.531-3.555" transform="translate(-540.57 -249.948)" fill="none" stroke="#57607f" stroke-miterlimit="10" stroke-width="1.044"/>
          <path id="Path_197" data-name="Path 197" d="M582.366,284.651c.737-2.651,1.853-5.076,2.635-7.674.766-2.543,1.344-5.158,2.056-7.7.73-2.609,1.121-6.092,2.92-8.279,1.965-2.39,5.286-3.033,8.139-3.608a28.137,28.137,0,0,1,8.209-.548" transform="translate(-530.651 -256.742)" fill="none" stroke="#57607f" stroke-miterlimit="10" stroke-width="1.044"/>
          <path id="Path_198" data-name="Path 198" d="M550.907,263.866c0,3.161.956,7.11,1.472,10.556.553,3.693.613,7.411,1.209,11.058" transform="translate(-539.571 -254.723)" fill="none" stroke="#57607f" stroke-miterlimit="10" stroke-width="1.044"/>
          <path id="Path_199" data-name="Path 199" d="M560.473,263.866c0,7.559-.167,15.078-.167,22.618" transform="translate(-536.906 -254.723)" fill="none" stroke="#57607f" stroke-miterlimit="10" stroke-width="1.044"/>
          <path id="Path_200" data-name="Path 200" d="M569.774,264c-.716,1.8-.456,4.2-.674,6.157-.219,1.975-.586,3.934-.819,5.9-.432,3.65-1.187,7.144-1.187,10.9" transform="translate(-534.981 -254.686)" fill="none" stroke="#57607f" stroke-miterlimit="10" stroke-width="1.044"/>
          <path id="Path_201" data-name="Path 201" d="M577.415,264c.244,2-.845,4.157-1.209,6.065-.422,2.213-.824,4.51-1.452,6.676-.96,3.32-1.563,6.994-2.7,10.213" transform="translate(-533.575 -254.686)" fill="none" stroke="#57607f" stroke-miterlimit="10" stroke-width="1.044"/>
        </g>
      </g>
      <g id="Group_319" data-name="Group 319" transform="translate(75.5 105.766)">
        <path id="Path_202" data-name="Path 202" d="M591.959,403.754v8.677a1.432,1.432,0,0,0,1.364.8c1.123.081,26.545.4,31.162,0s44.406.314,48.9.2,20.456.3,21.018.013.561-3.518.481-4.793-.081-70.584-.081-70.584-.24-33.774-.24-34.976-4.685-2.327-4.685-2.327l-50.5,16.378" transform="translate(-586.849 -299.79)" fill="#e0e0e0"/>
        <path id="Path_203" data-name="Path 203" d="M588.161,300.874v97.754l.642,9.52H689.881V300.005H588.161" transform="translate(-587.926 -300.005)" fill="#fff"/>
        <path id="Path_204" data-name="Path 204" d="M593.917,322.478s-5.936-1.07-5.936,1.336v57.117s-.16,1.658,2.086,1.658h97.869s2.086.321,1.765-2.674,0-55.942,0-55.942,1.042-1.5-2.406-1.5Z" transform="translate(-587.978 -293.7)" fill="#243762"/>
        <path id="Path_205" data-name="Path 205" d="M588.745,322.426H688.994" transform="translate(-587.761 -293.648)" fill="none" stroke="#57607f" stroke-miterlimit="10" stroke-width="1"/>
        <path id="Path_206" data-name="Path 206" d="M588.578,369.259h100.33" transform="translate(-587.808 -280.369)" fill="none" stroke="#57607f" stroke-miterlimit="10" stroke-width="1"/>
        <path id="Path_207" data-name="Path 207" d="M588.161,300.874v97.754l.642,9.52H689.881V300.005H588.161" transform="translate(-587.926 -300.005)" fill="none" stroke="#57607f" stroke-miterlimit="10" stroke-width="1"/>
        <g id="Group_316" data-name="Group 316" transform="translate(9.178 92.147)">
          <path id="Path_208" data-name="Path 208" d="M601.234,374.93s-1.176-3.265-4.753-1.615c-3.2,1.476-.359,8.43,4.753,9.6,0,0,5.112-1.794,6.01-6.189S602.938,372.418,601.234,374.93Z" transform="translate(-595.129 -371.498)" fill="#e57a9e"/>
          <path id="Path_209" data-name="Path 209" d="M625.485,373.012c-.963-.68-13.208-1.81-12.3,1.771,0,0-.423,6.212,0,7.059.116.244,1.052.4,2.349.513.167.976.308,3.042-1.284,3.286,0,0,3.9.347,4.544-3.119,3.055.077,6.3.026,6.687-.039C626.242,382.382,626.448,373.68,625.485,373.012Zm-9.164,6.058a1.046,1.046,0,1,1,1.04-1.052A1.046,1.046,0,0,1,616.32,379.071Zm3.53,0a1.046,1.046,0,1,1,0-2.092,1.046,1.046,0,0,1,0,2.092Zm3.53,0a1.046,1.046,0,1,1,1.04-1.052A1.046,1.046,0,0,1,623.38,379.071Z" transform="translate(-590.062 -371.656)" fill="#d1d3d3"/>
          <path id="Path_210" data-name="Path 210" d="M644.529,380.818c-.5-1.018-3.1-1.019-3.7.612l-5.089-1.73a2.752,2.752,0,0,0-.113-1.44,1.315,1.315,0,0,0-.121-.249l2.38-2.077a1.7,1.7,0,0,0,1.818.3c1.934-.7,1.7-2.462,1.065-3.739s-4.564-.964-3.708,2.181c0,0,.019.055.05.133l-2.457,2.581a2.051,2.051,0,0,0-2.326,2.941,3.021,3.021,0,0,0,1.733,1,1.673,1.673,0,0,0,1.174-.607l5.556,2.122c.012.051.014.1.028.15,0,0,.709,2.259,2.643,1.558S645.159,382.095,644.529,380.818Z" transform="translate(-584.655 -371.796)" fill="#d1d3d3"/>
        </g>
        <g id="Group_318" data-name="Group 318" transform="translate(7.338 3.754)">
          <g id="Group_317" data-name="Group 317">
            <path id="Path_211" data-name="Path 211" d="M614.622,313.537a10.442,10.442,0,0,1-3.634,7.927,10.671,10.671,0,0,1-1.669,1.178,10.47,10.47,0,0,1-4.328,1.326c-.273.023-.554.033-.834.033a10.463,10.463,0,1,1,10.465-10.465Z" transform="translate(-593.695 -302.889)" fill="#4c6ca5"/>
            <path id="Path_212" data-name="Path 212" d="M604.286,305.458a3.326,3.326,0,1,0,3.326,3.326A3.326,3.326,0,0,0,604.286,305.458Zm.018,7.049c-2.866,0-5.176,3.125-5.176,6.982v2.481a7.73,7.73,0,0,0,8.652,0,10.667,10.667,0,0,0,1.669-1.178v-1.3C609.448,315.633,607.167,312.507,604.3,312.507Z" transform="translate(-592.155 -302.213)" fill="#d1d3d4" style="mix-blend-mode: multiply;isolation: isolate"/>
            <path id="Path_213" data-name="Path 213" d="M603,312.507c-2.865,0-5.174,3.125-5.174,6.982v2.48a10.477,10.477,0,0,0,10.317,0V319.49C608.145,315.633,605.866,312.507,603,312.507Zm-.017-7.049a3.326,3.326,0,1,0,3.324,3.326A3.326,3.326,0,0,0,602.985,305.458Z" transform="translate(-592.523 -302.213)" fill="#fff"/>
            <path id="Path_214" data-name="Path 214" d="M604.948,322.591c-1.219.69-2.509.594-4.048.675a10.493,10.493,0,0,0,6.282-1.3V319.49c0-3.857-2.31-6.982-5.175-6.982a3.934,3.934,0,0,0-1.122.163c2.323.692,4.053,3.48,4.053,6.819ZM600.9,311.913a3.326,3.326,0,1,0,0-6.257,3.322,3.322,0,0,1,0,6.257Z" transform="translate(-591.657 -302.213)" fill="#d1d3d4" style="mix-blend-mode: multiply;isolation: isolate"/>
            <path id="Path_215" data-name="Path 215" d="M596.029,306.978a16.888,16.888,0,0,0-1.187,2.53c-.216.528-.531.992-.717,1.525a8.041,8.041,0,0,0-.346,1.6,7.885,7.885,0,0,0,.216,2.937c.127.525.159,1.068.321,1.592.15.485.37.963.534,1.452a6.989,6.989,0,0,0,2.307,2.738,8.687,8.687,0,0,0,2.377,1.557,14.711,14.711,0,0,0,2.993.86c.5.105,1.038.122,1.553.216a2.625,2.625,0,0,0,1.489-.16,4.036,4.036,0,0,1,.864-.331c.245-.033.5.023.746-.009a7.69,7.69,0,0,0,1.471-.47c.241-.087.508-.167.743-.258a4.766,4.766,0,0,0,.782-.537c.224-.149.471-.255.694-.4a3.634,3.634,0,0,0,.7-.738,14.216,14.216,0,0,0,1.916-2.968,7.293,7.293,0,0,0,.629-1.574,10.781,10.781,0,0,0,.166-1.47,13.954,13.954,0,0,0,.09-3.2,8.443,8.443,0,0,0-.933-2.965,7.354,7.354,0,0,0-.353-.787c-.167-.232-.327-.451-.471-.7a4.311,4.311,0,0,0-1.059-1.174c-.462-.375-.735-.936-1.221-1.28a10.393,10.393,0,0,0-1.507-.943,7.593,7.593,0,0,0-1.532-.561,9.037,9.037,0,0,0-1.488-.394c-.525-.031-1-.14-1.531-.14a11.975,11.975,0,0,0-1.5.169,12.127,12.127,0,0,0-5.363,2.354,7.433,7.433,0,0,0-.906,1.019" transform="translate(-593.688 -302.93)" fill="none" stroke="#57607f" stroke-miterlimit="10" stroke-width="1.402"/>
            <path id="Path_216" data-name="Path 216" d="M595.6,305.953a.3.3,0,0,1-.085.112" transform="translate(-593.178 -302.073)" fill="none" stroke="#57607f" stroke-miterlimit="10" stroke-width="0.701"/>
            <path id="Path_217" data-name="Path 217" d="M597.9,320.323a3.545,3.545,0,0,1-.028-1.182c0-.407-.028-.8-.028-1.209a10.3,10.3,0,0,1,.237-2.516,7.455,7.455,0,0,1,1.063-2.511,4.793,4.793,0,0,1,1.037-1.006,6.492,6.492,0,0,1,1.064-.771,4.139,4.139,0,0,1,1.1-.16,3.2,3.2,0,0,1,1.026-.036,2.5,2.5,0,0,1,1.085.259c.314.209.638.406.931.613a5.338,5.338,0,0,1,1.411,1.658,6.264,6.264,0,0,1,.99,2.1,13.026,13.026,0,0,1,.3,2.011c.037.789.094,1.545.056,2.336-.008.167.006.388,0,.557" transform="translate(-592.522 -300.669)" fill="none" stroke="#57607f" stroke-miterlimit="10" stroke-width="0.701"/>
            <path id="Path_218" data-name="Path 218" d="M602,305.535a4.954,4.954,0,0,1,1.386-.023,3.763,3.763,0,0,1,1.106.394,2.812,2.812,0,0,1,1.186,1.583,4.132,4.132,0,0,1,.108,1.8,2.119,2.119,0,0,1-.336.863,5.637,5.637,0,0,1-.739.895,2.819,2.819,0,0,1-1.74.81,2.907,2.907,0,0,1-1.884-.322,3.4,3.4,0,0,1-1.633-1.524,3.729,3.729,0,0,1-.139-1.83,3.476,3.476,0,0,1,.4-.882,4.078,4.078,0,0,1,.557-.88,4.839,4.839,0,0,1,1.684-.882" transform="translate(-592.117 -302.208)" fill="none" stroke="#57607f" stroke-miterlimit="10" stroke-width="0.701"/>
          </g>
          <path id="Path_219" data-name="Path 219" d="M612.511,305.975h28.342" transform="translate(-588.36 -302.067)" fill="none" stroke="#57607f" stroke-miterlimit="10" stroke-width="0.701"/>
          <path id="Path_220" data-name="Path 220" d="M637.221,305.916h2.774" transform="translate(-581.354 -302.083)" fill="none" stroke="#57607f" stroke-miterlimit="10" stroke-width="0.701"/>
          <path id="Path_221" data-name="Path 221" d="M643.887,305.916h2.775" transform="translate(-579.464 -302.083)" fill="none" stroke="#57607f" stroke-miterlimit="10" stroke-width="0.701"/>
          <path id="Path_222" data-name="Path 222" d="M642.3,306.274l.3-.3" transform="translate(-579.913 -302.067)" fill="none" stroke="#57607f" stroke-miterlimit="10" stroke-width="0.701"/>
          <path id="Path_223" data-name="Path 223" d="M612.8,310.94h14.958" transform="translate(-588.277 -300.659)" fill="none" stroke="#57607f" stroke-miterlimit="10" stroke-width="0.701"/>
          <path id="Path_224" data-name="Path 224" d="M626.034,311.028h7.045" transform="translate(-584.526 -300.634)" fill="none" stroke="#57607f" stroke-miterlimit="10" stroke-width="0.701"/>
          <path id="Path_225" data-name="Path 225" d="M612.452,315.409h32.391" transform="translate(-588.377 -299.392)" fill="none" stroke="#57607f" stroke-miterlimit="10" stroke-width="0.701"/>
          <path id="Path_226" data-name="Path 226" d="M642.536,315.409h13.381" transform="translate(-579.847 -299.392)" fill="none" stroke="#57607f" stroke-miterlimit="10" stroke-width="0.701"/>
          <path id="Path_227" data-name="Path 227" d="M639.177,315.234" transform="translate(-580.799 -299.441)" fill="none" stroke="#57607f" stroke-miterlimit="10" stroke-width="0.701"/>
        </g>
      </g>
      <g id="Group_322" data-name="Group 322" transform="translate(128.797 0)">
        <g id="Group_320" data-name="Group 320" transform="translate(0)">
          <path id="Path_228" data-name="Path 228" d="M745.322,282.559V232.18a7.177,7.177,0,0,0-7.272-7.7H658.831c-9.48,0-8.17,9.466-8.17,9.466v49.9s-2.059,4.6,8.17,5.455c1.281.107,2.538.2,3.789.282a25.972,25.972,0,0,1-.2,3.862,47.127,47.127,0,0,1-1.275,6.817c-.889,2.842-2.192,5.578-4.576,7.409a17.577,17.577,0,0,1-2.437,1.631c-1.073.571-2.468.743-3.462,1.375,2.784.155,5.648.123,8.435.123,3.4,0,6.9.039,10.019-1.516a20.727,20.727,0,0,0,6.664-4.771,34.27,34.27,0,0,0,5.134-8.281,16.756,16.756,0,0,0,1.586-6.035c14.177-.035,27.618-.9,43.547-.9,0,0,14.888-.485,16.573-.725S745.322,286.172,745.322,282.559Z" transform="translate(-645.924 -220.314)" fill="#e1e0e7" style="mix-blend-mode: multiply;isolation: isolate"/>
          <path id="Path_229" data-name="Path 229" d="M734.489,221.234H655.271c-9.479,0-8.169,9.466-8.169,9.466v49.9s-2.06,4.6,8.169,5.455c1.281.106,2.539.2,3.789.282a25.792,25.792,0,0,1-.2,3.862,46.764,46.764,0,0,1-1.275,6.817c-.888,2.842-2.192,5.578-4.576,7.409a17.589,17.589,0,0,1-2.437,1.631c-1.072.571-2.467.743-3.46,1.375,2.783.155,5.648.123,8.435.123,3.4,0,6.9.039,10.018-1.516a20.713,20.713,0,0,0,6.664-4.771,34.27,34.27,0,0,0,5.135-8.281,16.757,16.757,0,0,0,1.585-6.035c14.177-.035,27.619-.9,43.546-.9h12.844a6.3,6.3,0,0,0,6.418-6.739V228.935A7.177,7.177,0,0,0,734.489,221.234Z" transform="translate(-646.933 -221.234)" fill="#fff" stroke="#57607f" stroke-miterlimit="10" stroke-width="1"/>
          <path id="Path_230" data-name="Path 230" d="M652.781,230.118s-1.07,40.988,0,42.811,34.976,1.113,36.687,1.011,4.278.846,5.028.221.642-43.821.427-44.043,3.315-.932-13.05-1.539S652.818,228.613,652.781,230.118Z" transform="translate(-645.409 -219.216)" fill="#e1e0e7"/>
          <path id="Path_231" data-name="Path 231" d="M689.342,231.393h27.81" transform="translate(-634.908 -218.354)" fill="none" stroke="#e1e0e7" stroke-miterlimit="10" stroke-width="1"/>
          <path id="Path_232" data-name="Path 232" d="M690.676,237.893H703.3" transform="translate(-634.53 -216.511)" fill="none" stroke="#e1e0e7" stroke-miterlimit="10" stroke-width="1"/>
          <path id="Path_233" data-name="Path 233" d="M690.176,244.893H717.13" transform="translate(-634.672 -214.526)" fill="none" stroke="#e1e0e7" stroke-miterlimit="10" stroke-width="1"/>
          <path id="Path_234" data-name="Path 234" d="M691.509,251.893h10.483" transform="translate(-634.294 -212.541)" fill="none" stroke="#e1e0e7" stroke-miterlimit="10" stroke-width="1"/>
          <path id="Path_235" data-name="Path 235" d="M702.842,252.226H713.11" transform="translate(-631.081 -212.447)" fill="none" stroke="#e1e0e7" stroke-miterlimit="10" stroke-width="1"/>
          <path id="Path_236" data-name="Path 236" d="M690.342,257.893h27.383" transform="translate(-634.625 -210.84)" fill="none" stroke="#e1e0e7" stroke-miterlimit="10" stroke-width="1"/>
          <path id="Path_237" data-name="Path 237" d="M690.009,263.226H712.9" transform="translate(-634.719 -209.328)" fill="none" stroke="#e1e0e7" stroke-miterlimit="10" stroke-width="1"/>
        </g>
        <g id="Group_321" data-name="Group 321" transform="translate(10.18 17.982)">
          <path id="Path_238" data-name="Path 238" d="M655.9,246.693c1.434,3.213,2.684,7.52,4.234,10.843.27.578.94,2.481.94,2.481s2.006.275,2.736.273c1.588,0,3.206.086,4.8.006,3.133-.158,6.042-.2,9.207-.212,1.5,0,3.133-.16,4.622-.089.538.026,2.781.021,2.781.021l1.3-3.6c.673-1.859.82-3.129,1.485-4.969.326-.9.312-1.391.647-2.3a16.591,16.591,0,0,1,.787-2.454" transform="translate(-654.572 -231.997)" fill="none" stroke="#57607f" stroke-miterlimit="10" stroke-width="1"/>
          <path id="Path_239" data-name="Path 239" d="M654.864,246.693H691.1" transform="translate(-654.864 -231.997)" fill="none" stroke="#57607f" stroke-miterlimit="10" stroke-width="1"/>
          <path id="Path_240" data-name="Path 240" d="M660.162,246.693c.1.6.61,1.638.779,2.25.24.87.573,1.7.874,2.559.687,1.965,1.381,3.922,2.1,5.864a20.081,20.081,0,0,0,1.146,2.719" transform="translate(-653.362 -231.997)" fill="none" stroke="#57607f" stroke-miterlimit="10" stroke-width="1"/>
          <path id="Path_241" data-name="Path 241" d="M663.983,246.781c.531.3.628,1.549.793,2.117.27.918.536,1.821.78,2.745.485,1.837.724,3.7,1.232,5.535a23.781,23.781,0,0,0,.769,2.815" transform="translate(-652.279 -231.972)" fill="none" stroke="#57607f" stroke-miterlimit="10" stroke-width="1"/>
          <path id="Path_242" data-name="Path 242" d="M669.331,246.835c0,3.46-.069,6.9-.069,10.385v2.552" transform="translate(-650.782 -231.957)" fill="none" stroke="#57607f" stroke-miterlimit="10" stroke-width="1"/>
          <path id="Path_243" data-name="Path 243" d="M674.659,246.835a10.835,10.835,0,0,1-.413,2.292c-.136.965-.465,1.844-.665,2.784-.38,1.8-.824,3.645-1.11,5.452-.137.874-.427,1.735-.549,2.613" transform="translate(-650.028 -231.957)" fill="none" stroke="#57607f" stroke-miterlimit="10" stroke-width="1"/>
          <path id="Path_244" data-name="Path 244" d="M679.28,246.675a16.789,16.789,0,0,0-.806,2.393c-.327.988-.6,1.941-.922,2.929-.584,1.78-1.137,3.613-1.746,5.41-.267.788-.58,1.7-.838,2.41" transform="translate(-649.164 -232.002)" fill="none" stroke="#57607f" stroke-miterlimit="10" stroke-width="1"/>
          <path id="Path_245" data-name="Path 245" d="M659.023,250.052c.094-.443.543-.82.825-1.168.411-.506.769-1.024,1.16-1.551.955-1.282,1.92-2.611,2.979-3.815,1.041-1.182,2.1-2.251,3.07-3.486.771-.986,1.407-2.025,2.232-2.969.466-.533.987-1.032,1.412-1.6.29-.385,1.826-.252,2.272.23.515.557,1.05,1.119,1.522,1.711.729.914,5.7,6.962,6.922,9.375a13.03,13.03,0,0,0,2.384,3.338" transform="translate(-653.685 -235.243)" fill="none" stroke="#57607f" stroke-miterlimit="10" stroke-width="1"/>
          <path id="Path_246" data-name="Path 246" d="M657.477,250.3h29.6" transform="translate(-654.123 -230.974)" fill="none" stroke="#57607f" stroke-miterlimit="10" stroke-width="1"/>
          <path id="Path_247" data-name="Path 247" d="M658.97,254.034h26.49" transform="translate(-653.7 -229.916)" fill="none" stroke="#57607f" stroke-miterlimit="10" stroke-width="1"/>
        </g>
      </g>
    </g>
  </g>
  <line id="Line_47" data-name="Line 47" x2="308" transform="translate(27.007 340)" fill="none" stroke="#707070" stroke-width="1" opacity="0.473"/>
</svg>
