<svg id="Contact" xmlns="http://www.w3.org/2000/svg" width="360" height="340.5" viewBox="0 0 360 340.5">
  <path id="Subtraction_1" data-name="Subtraction 1" d="M269.135,259H39.95A155.182,155.182,0,0,1,94.388,12.181,153.436,153.436,0,0,1,123.4,3.149a155.6,155.6,0,0,1,62.292,0,153.454,153.454,0,0,1,55.26,23.323A155.174,155.174,0,0,1,269.136,259Z" transform="translate(26.507 80.999)" fill="#abd8fe" opacity="0.211"/>
  <path id="Path_62" data-name="Path 62" d="M1198.4,936.259a3.857,3.857,0,1,1-3.856-3.857A3.862,3.862,0,0,1,1198.4,936.259Zm-1.911,0a1.946,1.946,0,1,0-1.945,1.946A1.948,1.948,0,0,0,1196.484,936.259Z" transform="translate(-882.194 -747.531)" fill="#91a8f6"/>
  <g id="Group_252" data-name="Group 252" transform="translate(325.02 45.544)">
    <path id="Path_63" data-name="Path 63" d="M1263.238,795.026h-21.846a.956.956,0,1,0,0,1.911h21.846a.956.956,0,1,0,0-1.911Z" transform="translate(-1229.214 -795.022)" fill="#91a8f6"/>
    <path id="Path_64" data-name="Path 64" d="M1234.439,795.022h-4.269a.956.956,0,1,0,0,1.911h4.269a.956.956,0,0,0,0-1.911Z" transform="translate(-1229.214 -795.022)" fill="#91a8f6"/>
    <path id="Path_65" data-name="Path 65" d="M1252.974,802.638a.957.957,0,0,1-.956.956h-2.732a.956.956,0,1,1,0-1.912h2.732A.956.956,0,0,1,1252.974,802.638Zm-7.511,0a.957.957,0,0,1-.956.956h-4.779a.956.956,0,0,1,0-1.912h4.779A.956.956,0,0,1,1245.463,802.638Zm-9.557,0a.957.957,0,0,1-.956.956h-4.779a.956.956,0,0,1,0-1.912h4.779A.956.956,0,0,1,1235.906,802.638Z" transform="translate(-1229.214 -795.022)" fill="#91a8f6"/>
  </g>
  <g id="Group_253" data-name="Group 253" transform="translate(21.834 103.726)">
    <path id="Path_66" data-name="Path 66" d="M908.787,858.918a.957.957,0,0,0-.956.956v2.216a.956.956,0,0,0,1.912,0v-2.216A.956.956,0,0,0,908.787,858.918Z" transform="translate(-903.113 -852.101)" fill="#91a8f6"/>
    <path id="Path_67" data-name="Path 67" d="M906.286,856.694h-2.217a.956.956,0,1,0,0,1.911h2.217a.956.956,0,1,0,0-1.911Z" transform="translate(-903.113 -852.101)" fill="#91a8f6"/>
    <path id="Path_68" data-name="Path 68" d="M908.787,852.1a.957.957,0,0,0-.956.956v2.216a.956.956,0,0,0,1.912,0v-2.216A.956.956,0,0,0,908.787,852.1Z" transform="translate(-903.113 -852.101)" fill="#91a8f6"/>
    <path id="Path_69" data-name="Path 69" d="M913.506,856.542h-2.218a.956.956,0,0,0,0,1.911h2.218a.956.956,0,1,0,0-1.911Z" transform="translate(-903.113 -852.101)" fill="#91a8f6"/>
  </g>
  <g id="Group_254" data-name="Group 254" transform="translate(261.549 40.659)">
    <path id="Path_70" data-name="Path 70" d="M1149.188,796.954a.956.956,0,0,0-.956.955v2.217a.956.956,0,1,0,1.912,0v-2.217A.956.956,0,0,0,1149.188,796.954Z" transform="translate(-1143.514 -790.137)" fill="#91a8f6"/>
    <path id="Path_71" data-name="Path 71" d="M1146.687,794.73h-2.217a.956.956,0,1,0,0,1.911h2.217a.956.956,0,0,0,0-1.911Z" transform="translate(-1143.514 -790.137)" fill="#91a8f6"/>
    <path id="Path_72" data-name="Path 72" d="M1149.188,790.137a.957.957,0,0,0-.956.956v2.215a.956.956,0,1,0,1.912,0v-2.215A.956.956,0,0,0,1149.188,790.137Z" transform="translate(-1143.514 -790.137)" fill="#91a8f6"/>
    <path id="Path_73" data-name="Path 73" d="M1153.907,794.578h-2.218a.956.956,0,0,0,0,1.911h2.218a.956.956,0,1,0,0-1.911Z" transform="translate(-1143.514 -790.137)" fill="#91a8f6"/>
  </g>
  <g id="Group_255" data-name="Group 255" transform="translate(144.373)">
    <path id="Path_74" data-name="Path 74" d="M1060.082,749.482h-21.847a.956.956,0,0,0,0,1.911h21.847a.956.956,0,1,0,0-1.911Z" transform="translate(-1026.058 -749.478)" fill="#91a8f6"/>
    <path id="Path_75" data-name="Path 75" d="M1031.283,749.478h-4.27a.955.955,0,0,0,0,1.911h4.27a.955.955,0,0,0,0-1.911Z" transform="translate(-1026.058 -749.478)" fill="#91a8f6"/>
    <path id="Path_76" data-name="Path 76" d="M1049.818,757.093a.956.956,0,0,1-.956.956h-2.732a.956.956,0,1,1,0-1.911h2.732A.956.956,0,0,1,1049.818,757.093Zm-7.511,0a.956.956,0,0,1-.956.956h-4.779a.956.956,0,0,1,0-1.911h4.779A.956.956,0,0,1,1042.307,757.093Zm-9.557,0a.956.956,0,0,1-.956.956h-4.779a.956.956,0,0,1,0-1.911h4.779A.956.956,0,0,1,1032.75,757.093Z" transform="translate(-1026.058 -749.478)" fill="#91a8f6"/>
  </g>
  <path id="Path_81" data-name="Path 81" d="M972.308,773.157s1.3,9.31-9.57,9.1c0,0,9.341.095,9.1,8.831,0,0,.84-6.872,9.412-8.407C981.246,782.676,974,784.338,972.308,773.157Z" transform="translate(-881.497 -749.478)" fill="#91a8f6"/>
  <path id="Path_82" data-name="Path 82" d="M878.7,798.868s1.3,9.31-9.57,9.1c0,0,9.341.095,9.1,8.831,0,0,.841-6.872,9.412-8.407C887.633,808.387,880.39,810.048,878.7,798.868Z" transform="translate(-869.126 -749.038)" fill="#91a8f6"/>
  <path id="Path_83" data-name="Path 83" d="M935.436,759.077s.454,3.245-3.336,3.171c0,0,3.257.033,3.169,3.078a3.7,3.7,0,0,1,3.281-2.931S936.026,762.974,935.436,759.077Z" transform="translate(-881.279 -749.478)" fill="#91a8f6"/>
  <path id="Path_84" data-name="Path 84" d="M1105.727,870.947s.454,3.245-3.336,3.171c0,0,3.257.033,3.169,3.078a3.7,3.7,0,0,1,3.281-2.931S1106.317,874.844,1105.727,870.947Z" transform="translate(-881.85 -748.191)" fill="#91a8f6"/>
  <g id="Group_257" data-name="Group 257" transform="translate(7.091 166.594)">
    <path id="Path_86" data-name="Path 86" d="M944.505,961.592H923.292a4.921,4.921,0,0,1-.157-9.84,7.616,7.616,0,0,1,13.995-4.03,5.525,5.525,0,0,1,6.135,4.027h1.24a4.921,4.921,0,1,1,0,9.843Zm-21.213-8.386a3.465,3.465,0,1,0,0,6.93h21.213a3.465,3.465,0,0,0,0-6.93h-2.448l-.1-.614a4.07,4.07,0,0,0-5.021-3.352l-.536.128-.269-.482a6.16,6.16,0,0,0-11.543,3c0,.18.012.357.027.533l.068.791Z" transform="translate(-918.37 -944.265)" fill="#91a8f6"/>
  </g>
  <g id="Group_259" data-name="Group 259" transform="translate(86.823 70.183)">
    <path id="Path_88" data-name="Path 88" d="M994.479,836.228H973.265a4.921,4.921,0,0,1-.157-9.84,7.616,7.616,0,0,1,14-4.03,5.527,5.527,0,0,1,6.134,4.027h1.241a4.922,4.922,0,0,1,0,9.843Zm-21.214-8.386a3.465,3.465,0,1,0,0,6.93h21.214a3.465,3.465,0,0,0,0-6.93H992.03l-.1-.614a4.072,4.072,0,0,0-5.021-3.352l-.536.128-.269-.481a6.16,6.16,0,0,0-11.544,2.995c0,.18.013.357.028.533l.067.791Z" transform="translate(-968.344 -818.9)" fill="#91a8f6"/>
  </g>
  <g id="Group_276" data-name="Group 276" transform="translate(165.362 33.652)">
    <g id="Group_272" data-name="Group 272" transform="translate(128.794 56.789)">
      <g id="Group_271" data-name="Group 271">
        <g id="Group_270" data-name="Group 270">
          <g id="Group_269" data-name="Group 269">
            <path id="Path_93" data-name="Path 93" d="M1178.726,844.673h59.408a2.377,2.377,0,0,0,0-4.754h-59.408a2.377,2.377,0,0,0,0,4.754Z" transform="translate(-1176.35 -839.919)" fill="#91a8f6"/>
          </g>
        </g>
      </g>
    </g>
    <g id="Group_275" data-name="Group 275">
      <g id="Group_274" data-name="Group 274">
        <g id="Group_273" data-name="Group 273">
          <path id="Path_94" data-name="Path 94" d="M1078.525,844.082a31.416,31.416,0,0,1-6.319-.643,1.569,1.569,0,0,1-1.22-1.852,1.592,1.592,0,0,1,1.853-1.22,28.359,28.359,0,0,0,9.84.273,1.568,1.568,0,1,1,.464,3.1A31.5,31.5,0,0,1,1078.525,844.082Zm14.229-3.661a1.569,1.569,0,0,1-.763-2.942,27.831,27.831,0,0,0,7.636-6.21,1.566,1.566,0,0,1,2.372,2.046,31.043,31.043,0,0,1-8.488,6.909A1.569,1.569,0,0,1,1092.754,840.421Zm13.345-15.509a1.594,1.594,0,0,1-.546-.1,1.568,1.568,0,0,1-.923-2.015,27.736,27.736,0,0,0,1.732-9.685,1.566,1.566,0,0,1,3.133,0,30.864,30.864,0,0,1-1.926,10.777A1.573,1.573,0,0,1,1106.1,824.912Zm-55.676-1.557a1.565,1.565,0,0,1-1.5-1.107,31.007,31.007,0,0,1-1.37-9.133c0-.585.015-1.161.048-1.735a1.6,1.6,0,0,1,1.653-1.475,1.565,1.565,0,0,1,1.475,1.653c-.028.513-.043,1.034-.043,1.554a27.976,27.976,0,0,0,1.232,8.213,1.567,1.567,0,0,1-1.036,1.959A1.544,1.544,0,0,1,1050.423,823.355Zm56.643-15.766a1.566,1.566,0,0,1-1.52-1.192,27.625,27.625,0,0,0-4.026-8.975,1.568,1.568,0,1,1,2.587-1.771,30.719,30.719,0,0,1,4.48,9.991,1.565,1.565,0,0,1-1.143,1.9A1.514,1.514,0,0,1,1107.066,807.589Zm-11.542-16.9a1.545,1.545,0,0,1-.905-.289,27.6,27.6,0,0,0-8.9-4.184,1.568,1.568,0,1,1,.806-3.031,30.728,30.728,0,0,1,9.909,4.659,1.567,1.567,0,0,1-.911,2.845Z" transform="translate(-1047.556 -783.13)" fill="#445eea"/>
        </g>
      </g>
    </g>
  </g>
  <text id="_" data-name="
" transform="translate(335.592 262)" fill="#000759" font-size="13" font-family="Poppins-Medium, Poppins" font-weight="500"><tspan x="0" y="0"></tspan><tspan x="0" y="40"></tspan></text>
  <g id="Group_384" data-name="Group 384" transform="translate(-68.609 -683.173)">
    <g id="Group_290" data-name="Group 290" transform="translate(112.116 777.673)">
      <g id="Group_287" data-name="Group 287" transform="translate(10.62)" opacity="0.41">
        <g id="Group_286" data-name="Group 286">
          <path id="Path_99" data-name="Path 99" d="M388.406,924.466a79.235,79.235,0,0,0-.362-13.482c-2.376-21.01-13.137-40.821-28.974-54.8-5.649-4.987-12.078-9.455-15.756-16.038-6.192-11.086-5.723-23.827-13.408-34.772a65.022,65.022,0,0,0-31.552-23.894c-37.7-13.086-90.486,8.221-85.733,53.723.017.163.035.4.056.7a16.552,16.552,0,0,1-16.2,17.622c-34.785.827-64.728,27.692-71.134,61.722-4.12,21.884,2.626,45.872,18.608,61.354,11.93,11.557,27.936,17.906,43.95,22.268,32.108,8.747,65.9,10.58,99,7.236,30.99-3.131,63.679-12.055,83.721-35.938A78.5,78.5,0,0,0,388.406,924.466Z" transform="translate(-124.16 -777.673)" fill="#c5d9ff"/>
        </g>
      </g>
      <g id="Group_289" data-name="Group 289" transform="translate(39.878 34.622)" opacity="0.88">
        <g id="Group_288" data-name="Group 288">
          <path id="Path_100" data-name="Path 100" d="M363.1,931.3a61.726,61.726,0,0,0-.281-10.5A67.935,67.935,0,0,0,340.261,878.1c-4.4-3.884-9.406-7.365-12.269-12.493-4.822-8.636-4.457-18.562-10.441-27.089a50.628,50.628,0,0,0-24.568-18.615c-29.357-10.195-70.458,6.4-66.758,41.853.014.127.028.312.044.546a12.892,12.892,0,0,1-12.614,13.729c-27.086.644-50.4,21.573-55.391,48.084-3.208,17.049,2.046,35.737,14.49,47.8,9.289,9,21.753,13.949,34.222,17.347,25,6.814,51.311,8.243,77.091,5.637,24.13-2.44,49.585-9.392,65.191-28A61.173,61.173,0,0,0,363.1,931.3Z" transform="translate(-157.343 -816.94)" fill="#c5d9ff"/>
        </g>
      </g>
      <circle id="Ellipse_14" data-name="Ellipse 14" cx="8.693" cy="8.693" r="8.693" transform="matrix(0.231, -0.973, 0.973, 0.231, 248.079, 41.075)" fill="#c5d9ff" opacity="0.31"/>
      <circle id="Ellipse_15" data-name="Ellipse 15" cx="10.08" cy="10.08" r="10.08" transform="translate(57.78 24.543) rotate(-45)" fill="#c5d9ff" opacity="0.31"/>
      <circle id="Ellipse_16" data-name="Ellipse 16" cx="13.018" cy="13.018" r="13.018" transform="translate(0 200.535)" fill="#c5d9ff" opacity="0.31"/>
    </g>
    <g id="Group_292" data-name="Group 292" transform="translate(179.587 800.558)">
      <g id="Group_291" data-name="Group 291">
        <circle id="Ellipse_17" data-name="Ellipse 17" cx="46.14" cy="46.14" r="46.14" transform="translate(0 0.28)" fill="#af9cda"/>
        <path id="Path_101" data-name="Path 101" d="M270.9,883.275a.44.44,0,0,1-.312-.752,45.7,45.7,0,1,0-64.628-64.628.441.441,0,0,1-.623-.623,46.58,46.58,0,1,1,65.874,65.875A.439.439,0,0,1,270.9,883.275Z" transform="translate(-192.726 -803.628)" fill="#243762"/>
        <circle id="Ellipse_18" data-name="Ellipse 18" cx="35.111" cy="35.111" r="35.111" transform="translate(11.029 11.309)" fill="#fff"/>
        <path id="Path_102" data-name="Path 102" d="M238.611,887.058a35.552,35.552,0,0,1,0-71.1.441.441,0,0,1,0,.882,34.67,34.67,0,0,0,0,69.34.441.441,0,1,1,0,.882Z" transform="translate(-192.472 -805.086)" fill="#243762"/>
        <path id="Path_103" data-name="Path 103" d="M251.94,861.22h-9.552a3.558,3.558,0,0,1-3.553-3.554V844.423a3.086,3.086,0,0,1,6.172,0v10.625h6.933a3.086,3.086,0,1,1,0,6.172Z" transform="translate(-196.704 -808.089)" fill="#243762"/>
      </g>
    </g>
    <g id="Group_297" data-name="Group 297" transform="translate(148.927 818.551)">
      <path id="Path_104" data-name="Path 104" d="M161.158,868.74l49.7,49.7a24.9,24.9,0,0,0,35.208,0l5.942-5.943a5.745,5.745,0,0,0,0-8.125L231.73,884.094a5.745,5.745,0,0,0-8.125,0l-10.141,10.141a2.033,2.033,0,0,1-2.874,0l-24.6-24.6a2,2,0,0,1,0-2.835l10-10a5.746,5.746,0,0,0,0-8.125l-20.831-20.831a5.745,5.745,0,0,0-8.054-.07l-5.644,5.45A24.9,24.9,0,0,0,161.158,868.74Z" transform="translate(-153.866 -825.736)" fill="#243762"/>
      <g id="Group_293" data-name="Group 293" transform="translate(6.936)">
        <path id="Path_105" data-name="Path 105" d="M163.734,834.229l27.928,27.928.958-.958,4.4-4.4a5.746,5.746,0,0,0,0-8.125l-20.831-20.831a5.745,5.745,0,0,0-8.054-.07l-5.644,5.45Z" transform="translate(-161.821 -825.736)" fill="#ecf1f7"/>
        <path id="Path_106" data-name="Path 106" d="M191.573,862.723,163.349,834.5l-1.617-1.3,6-5.8a6.217,6.217,0,0,1,8.672.076l20.83,20.831a6.192,6.192,0,0,1,0,8.748Zm-28.508-29.584.891.72,27.617,27.617,5.042-5.042a5.3,5.3,0,0,0,0-7.5L175.784,828.1a5.329,5.329,0,0,0-7.436-.064Z" transform="translate(-161.732 -825.679)" fill="#243762"/>
      </g>
      <g id="Group_294" data-name="Group 294" transform="translate(63.75 55.857)">
        <path id="Path_107" data-name="Path 107" d="M228.171,897.58,256.1,925.508l.958-.958,4.4-4.4a5.745,5.745,0,0,0,0-8.125L240.621,891.2a5.746,5.746,0,0,0-8.054-.07l-5.644,5.45Z" transform="translate(-226.258 -889.087)" fill="#ecf1f7"/>
        <path id="Path_108" data-name="Path 108" d="M256.01,926.074l-28.223-28.223-1.617-1.3,6-5.8a6.217,6.217,0,0,1,8.672.076l20.831,20.831a6.186,6.186,0,0,1,0,8.748ZM227.5,896.49l.892.72,27.617,27.617,5.042-5.042a5.3,5.3,0,0,0,0-7.5L240.22,891.453a5.33,5.33,0,0,0-7.436-.065Z" transform="translate(-226.169 -889.03)" fill="#243762"/>
      </g>
      <g id="Group_295" data-name="Group 295" transform="translate(10.546 4.759)">
        <line id="Line_2" data-name="Line 2" x2="17.017" y2="17.017" transform="translate(0.441 0.441)" fill="#ecf1f7"/>
        <path id="Path_109" data-name="Path 109" d="M183.286,848.975a.443.443,0,0,1-.312-.129l-17.017-17.017a.441.441,0,0,1,.623-.624L183.6,848.223a.44.44,0,0,1-.311.752Z" transform="translate(-165.827 -831.076)" fill="#243762"/>
      </g>
      <g id="Group_296" data-name="Group 296" transform="translate(78.237 72.449)">
        <line id="Line_3" data-name="Line 3" x2="17.017" y2="17.017" transform="translate(0.441 0.441)" fill="#ecf1f7"/>
        <path id="Path_110" data-name="Path 110" d="M260.058,925.747a.443.443,0,0,1-.312-.129L242.729,908.6a.441.441,0,0,1,.623-.623l17.018,17.018a.44.44,0,0,1-.312.752Z" transform="translate(-242.599 -907.848)" fill="#243762"/>
      </g>
    </g>
    <g id="Group_300" data-name="Group 300" transform="translate(236.87 802.888)">
      <path id="Path_111" data-name="Path 111" d="M336.808,996.115l-65.156-9.41a13.216,13.216,0,0,1-11.367-14.95l23.368-154.244a13.44,13.44,0,0,1,15.313-11.1l65.157,9.409a13.217,13.217,0,0,1,11.367,14.951L352.121,985.017A13.44,13.44,0,0,1,336.808,996.115Z" transform="translate(-260.138 -806.27)" fill="#243762"/>
      <path id="Path_350" data-name="Path 350" d="M0,0,146.593.624l.339,81.725L.339,81.725Z" transform="translate(6.537 159.821) rotate(-81.586)" fill="#ecf1f7"/>
      <rect id="Rectangle_349" data-name="Rectangle 349" width="11.317" height="81.775" transform="translate(26.949 26.092) rotate(-81.586)" fill="#af9cda"/>
      <path id="Path_112" data-name="Path 112" d="M311.168,1014.235a5.28,5.28,0,1,1,5.219-4.507A5.262,5.262,0,0,1,311.168,1014.235Zm-.014-9.679a4.4,4.4,0,1,0,.654.048A4.546,4.546,0,0,0,311.154,1004.557Z" transform="translate(-265.55 -834.231)" fill="#ecf1f7"/>
      <path id="Path_113" data-name="Path 113" d="M324.906,821.093a1.717,1.717,0,0,1-.25-.018,1.7,1.7,0,0,1-.764-3.043,1.7,1.7,0,0,1,2.375.351,1.692,1.692,0,0,1,.317,1.261h0A1.7,1.7,0,0,1,324.906,821.093Zm0-2.514a.815.815,0,0,0-.117,1.622.814.814,0,0,0,.926-.687h0a.816.816,0,0,0-.687-.927A.817.817,0,0,0,324.9,818.58Z" transform="translate(-267.599 -807.622)" fill="#ecf1f7"/>
      <path id="Path_114" data-name="Path 114" d="M351.94,825.091a1.627,1.627,0,0,1-.253-.018l-20.638-3.052a1.7,1.7,0,0,1,.5-3.358l20.638,3.052a1.7,1.7,0,0,1-.244,3.377ZM331.3,819.525a.817.817,0,0,0-.808.7.817.817,0,0,0,.689.927l20.638,3.052a.816.816,0,0,0,.238-1.614l-20.638-3.052A.781.781,0,0,0,331.3,819.525Z" transform="translate(-268.355 -807.734)" fill="#ecf1f7"/>
      <path id="Path_115" data-name="Path 115" d="M351.56,953.05,295.129,944.7a1.682,1.682,0,0,0-1.91,1.418l-2.165,14.64a1.682,1.682,0,0,0,1.418,1.91l48.245,7.137,4.97,6.855.886-5.99,2.329.345a1.683,1.683,0,0,0,1.91-1.418l2.165-14.64A1.682,1.682,0,0,0,351.56,953.05Z" transform="translate(-263.793 -826.103)" fill="#c5d9ff"/>
      <path id="Path_116" data-name="Path 116" d="M340.658,970.188a.406.406,0,0,1-.065-.005l-48.246-7.136a2.121,2.121,0,0,1-1.789-2.41L292.723,946a2.116,2.116,0,0,1,2.411-1.789l13.041,1.929a.441.441,0,1,1-.13.872l-13.04-1.93a1.248,1.248,0,0,0-1.41,1.048l-2.165,14.639a1.242,1.242,0,0,0,1.046,1.409l48.247,7.137a.441.441,0,0,1-.064.877Z" transform="translate(-263.734 -825.909)" fill="#243762"/>
      <path id="Path_117" data-name="Path 117" d="M361.736,884.249,305.3,875.9a1.682,1.682,0,0,0-1.91,1.418l-2.165,14.64a1.682,1.682,0,0,0,1.418,1.91l48.246,7.137,4.97,6.855.886-5.99,2.329.345a1.682,1.682,0,0,0,1.91-1.418l2.165-14.64A1.682,1.682,0,0,0,361.736,884.249Z" transform="translate(-264.997 -816.245)" fill="#c5d9ff"/>
      <path id="Path_118" data-name="Path 118" d="M356.082,910.972l-5.5-7.58-48.062-7.109a2.125,2.125,0,0,1-1.789-2.411.445.445,0,0,1,.5-.371.44.44,0,0,1,.371.5,1.241,1.241,0,0,0,1.046,1.409l48.43,7.163,4.445,6.131.792-5.356,2.766.409a1.238,1.238,0,0,0,1.408-1.046l1.441-9.739a.441.441,0,0,1,.872.13l-1.44,9.739a2.123,2.123,0,0,1-2.411,1.788l-1.893-.279Z" transform="translate(-264.938 -818.473)" fill="#243762"/>
      <path id="Path_119" data-name="Path 119" d="M288.295,906.763l56.431,8.347a1.682,1.682,0,0,1,1.418,1.91l-2.166,14.64a1.682,1.682,0,0,1-1.91,1.418l-48.246-7.137-6.742,5.123.886-5.989-2.329-.345a1.682,1.682,0,0,1-1.418-1.91l2.165-14.64A1.682,1.682,0,0,1,288.295,906.763Z" transform="translate(-262.985 -820.583)" fill="#af9cda"/>
      <path id="Path_120" data-name="Path 120" d="M345.984,934.6a2.015,2.015,0,0,1-.316-.025l-30.117-4.454a.441.441,0,1,1,.129-.872L345.8,933.7a1.243,1.243,0,0,0,1.41-1.046l2.165-14.641a1.244,1.244,0,0,0-1.047-1.41.44.44,0,1,1,.13-.871,2.125,2.125,0,0,1,1.789,2.411l-2.165,14.64a2.125,2.125,0,0,1-2.095,1.813Z" transform="translate(-266.649 -821.751)" fill="#243762"/>
      <rect id="Rectangle_350" data-name="Rectangle 350" width="13.876" height="81.775" transform="translate(6.537 159.479) rotate(-81.586)" fill="#fff"/>
      <path id="Path_121" data-name="Path 121" d="M282.083,985.866a4.92,4.92,0,1,1-4.148-5.587A4.92,4.92,0,0,1,282.083,985.866Z" transform="translate(-261.576 -830.675)" fill="#c5d9ff"/>
      <path id="Path_122" data-name="Path 122" d="M343.438,999.529a4.317,4.317,0,0,1-.645-.049l-52.426-7.755a4.387,4.387,0,1,1,1.284-8.679l52.426,7.754a4.388,4.388,0,0,1-.639,8.728Zm-.516-.92a3.506,3.506,0,1,0,1.026-6.935l-52.426-7.756a3.505,3.505,0,1,0-1.025,6.935Z" transform="translate(-263.271 -831.786)" fill="#af9cda" opacity="0.33"/>
      <path id="Path_123" data-name="Path 123" d="M298.056,831.829a1.765,1.765,0,0,1-.253-.018,1.726,1.726,0,0,1-.777-3.094,1.726,1.726,0,0,1,2.737,1.638h0A1.729,1.729,0,0,1,298.056,831.829Zm0-2.571a.845.845,0,0,0-.122,1.681.848.848,0,0,0,.959-.712h0a.844.844,0,0,0-.712-.958A.856.856,0,0,0,298.054,829.258Z" transform="translate(-264.419 -808.885)" fill="#fff"/>
      <path id="Path_124" data-name="Path 124" d="M303.471,832.63a1.682,1.682,0,0,1-.257-.019,1.726,1.726,0,0,1,.505-3.415,1.726,1.726,0,0,1-.249,3.434Zm0-2.571a.846.846,0,0,0-.835.72.845.845,0,1,0,1.671.248h0a.843.843,0,0,0-.836-.968Z" transform="translate(-265.06 -808.98)" fill="#fff"/>
      <path id="Path_125" data-name="Path 125" d="M308.777,833.415a1.787,1.787,0,0,1-.254-.018,1.727,1.727,0,1,1,.254.018Zm0-2.572a.845.845,0,0,0-.122,1.681.845.845,0,0,0,.247-1.672A.865.865,0,0,0,308.775,830.843Z" transform="translate(-265.688 -809.073)" fill="#fff"/>
      <path id="Path_126" data-name="Path 126" d="M373.59,848.513a.545.545,0,0,1-.065,0l-74.882-11.076a.441.441,0,0,1,.13-.872l74.882,11.075a.441.441,0,0,1-.064.877Z" transform="translate(-264.649 -809.853)" fill="#243762"/>
      <path id="Path_127" data-name="Path 127" d="M342.871,957.086a.412.412,0,0,1-.065-.005l-39.954-5.909a.44.44,0,0,1-.371-.5.433.433,0,0,1,.5-.371l39.954,5.909a.441.441,0,0,1-.064.876Z" transform="translate(-265.146 -826.424)" fill="#fff"/>
      <path id="Path_128" data-name="Path 128" d="M319.121,959.1a.4.4,0,0,1-.064-.005l-17.006-2.516a.44.44,0,1,1,.13-.871l17,2.515a.441.441,0,0,1-.064.877Z" transform="translate(-265.052 -827.123)" fill="#fff"/>
      <path id="Path_129" data-name="Path 129" d="M313.3,963.408a.428.428,0,0,1-.065-.005L301.3,961.637a.441.441,0,0,1,.13-.872l11.935,1.765a.441.441,0,0,1-.064.877Z" transform="translate(-264.963 -827.817)" fill="#fff"/>
      <path id="Path_130" data-name="Path 130" d="M345.073,962.935a.4.4,0,0,1-.064-.005l-17.575-2.6a.44.44,0,1,1,.13-.871l17.574,2.6a.441.441,0,0,1-.064.876Z" transform="translate(-268.054 -827.649)" fill="#fff"/>
      <g id="Group_298" data-name="Group 298" transform="translate(31.745 91.418)">
        <path id="Path_131" data-name="Path 131" d="M337.337,919.482a.544.544,0,0,1-.065,0l-39.954-5.91a.441.441,0,0,1-.372-.5.435.435,0,0,1,.5-.371l39.955,5.909a.441.441,0,0,1-.064.876Z" transform="translate(-296.237 -912.69)" fill="#fff"/>
        <path id="Path_132" data-name="Path 132" d="M313.589,921.493a.413.413,0,0,1-.065-.005l-17.006-2.515a.441.441,0,0,1,.13-.872l17.006,2.516a.441.441,0,0,1-.064.876Z" transform="translate(-296.143 -913.33)" fill="#fff"/>
        <path id="Path_133" data-name="Path 133" d="M331.285,929.249a.438.438,0,0,1-.068-.005l-34.482-5.349a.441.441,0,0,1,.135-.872l34.482,5.35a.441.441,0,0,1-.067.876Z" transform="translate(-296.168 -913.912)" fill="#fff"/>
        <path id="Path_134" data-name="Path 134" d="M339.54,925.333a.421.421,0,0,1-.065-.005l-17.574-2.6a.441.441,0,0,1,.13-.872l17.574,2.6a.441.441,0,0,1-.064.876Z" transform="translate(-299.145 -913.774)" fill="#fff"/>
      </g>
      <path id="Path_135" data-name="Path 135" d="M296.515,844.343l56.431,8.347a1.681,1.681,0,0,1,1.417,1.91l-2.165,14.64a1.682,1.682,0,0,1-1.91,1.418l-48.245-7.137-6.742,5.124.886-5.989-2.329-.345a1.681,1.681,0,0,1-1.417-1.91l2.165-14.64A1.682,1.682,0,0,1,296.515,844.343Z" transform="translate(-263.957 -811.691)" fill="#af9cda"/>
      <path id="Path_136" data-name="Path 136" d="M355.559,870.048a.406.406,0,0,1-.065-.005.44.44,0,0,1-.371-.5l2.165-14.64a1.241,1.241,0,0,0-1.047-1.41L321.2,848.312a.44.44,0,0,1-.371-.5.446.446,0,0,1,.5-.371l35.037,5.182a2.124,2.124,0,0,1,1.789,2.411l-2.165,14.64A.441.441,0,0,1,355.559,870.048Z" transform="translate(-267.317 -812.113)" fill="#243762"/>
      <g id="Group_299" data-name="Group 299" transform="translate(38.992 37.799)">
        <path id="Path_137" data-name="Path 137" d="M345.557,857.063a.545.545,0,0,1-.065,0l-39.954-5.91a.441.441,0,0,1,.129-.872l39.955,5.909a.441.441,0,0,1-.064.877Z" transform="translate(-304.456 -850.272)" fill="#fff"/>
        <path id="Path_138" data-name="Path 138" d="M321.808,859.074a.413.413,0,0,1-.065-.005l-17-2.515a.441.441,0,1,1,.129-.873l17.005,2.515a.441.441,0,0,1-.064.877Z" transform="translate(-304.362 -850.911)" fill="#fff"/>
        <path id="Path_139" data-name="Path 139" d="M339.5,866.829a.447.447,0,0,1-.068-.005l-34.482-5.349a.44.44,0,0,1-.368-.5.445.445,0,0,1,.5-.369l34.482,5.35a.441.441,0,0,1-.067.876Z" transform="translate(-304.388 -851.494)" fill="#fff"/>
        <path id="Path_140" data-name="Path 140" d="M347.759,862.912a.531.531,0,0,1-.064,0l-17.574-2.6a.441.441,0,0,1,.129-.873l17.574,2.6a.441.441,0,0,1-.064.876Z" transform="translate(-307.364 -851.355)" fill="#fff"/>
      </g>
      <path id="Path_141" data-name="Path 141" d="M353.087,888.921a.53.53,0,0,1-.064,0l-39.955-5.91a.441.441,0,1,1,.13-.872l39.954,5.91a.44.44,0,0,1-.064.876Z" transform="translate(-266.355 -816.886)" fill="#fff"/>
      <path id="Path_142" data-name="Path 142" d="M329.338,890.932a.53.53,0,0,1-.064,0l-17.006-2.516a.441.441,0,0,1,.129-.873l17.005,2.516a.441.441,0,0,1-.064.877Z" transform="translate(-266.26 -817.611)" fill="#fff"/>
      <path id="Path_143" data-name="Path 143" d="M323.52,895.242a.393.393,0,0,1-.064,0l-11.936-1.765a.441.441,0,1,1,.13-.872l11.935,1.765a.441.441,0,0,1-.064.876Z" transform="translate(-266.172 -818.31)" fill="#fff"/>
      <path id="Path_144" data-name="Path 144" d="M355.29,894.771a.412.412,0,0,1-.065-.005l-17.574-2.6a.441.441,0,1,1,.129-.872l17.574,2.6a.441.441,0,0,1-.063.877Z" transform="translate(-269.263 -818.136)" fill="#fff"/>
    </g>
    <g id="Group_309" data-name="Group 309" transform="translate(147.128 886.42)">
      <g id="Group_301" data-name="Group 301" transform="translate(0 30.685)">
        <path id="Path_145" data-name="Path 145" d="M252.874,1003.172l-90.512,10.2a3.168,3.168,0,0,1-3.5-2.793l-6.533-57.984a.167.167,0,0,1,.147-.185l96.455-10.867a.166.166,0,0,1,.184.147l6.535,58.006A3.145,3.145,0,0,1,252.874,1003.172Z" transform="translate(-151.885 -941.099)" fill="#f7a9b4"/>
        <path id="Path_146" data-name="Path 146" d="M161.946,1013.772a3.616,3.616,0,0,1-3.584-3.206l-6.533-57.983a.61.61,0,0,1,.536-.673l96.455-10.867a.6.6,0,0,1,.672.535l6.535,58.007a3.588,3.588,0,0,1-3.163,3.966l-90.512,10.2A3.723,3.723,0,0,1,161.946,1013.772Zm-9.21-61.016,6.5,57.712a2.724,2.724,0,0,0,3.015,2.405l90.512-10.2.049.438-.049-.438a2.705,2.705,0,0,0,2.385-2.991l-6.5-57.734Z" transform="translate(-151.826 -941.039)" fill="#243762"/>
      </g>
      <path id="Path_147" data-name="Path 147" d="M248.632,1003.172l-81.844,10.2c-1.739.2,25.361-34.566,25.166-36.3l-39.628-24.473a.167.167,0,0,1,.147-.185l96.455-10.867a.166.166,0,0,1,.184.147l-33,32.656C216.312,976.07,250.36,1002.978,248.632,1003.172Z" transform="translate(-151.885 -910.414)" fill="#243762" opacity="0.29"/>
      <g id="Group_302" data-name="Group 302" transform="translate(0.279)">
        <path id="Path_148" data-name="Path 148" d="M152.472,948.292l39.887-39.447a7.245,7.245,0,0,1,8.912-1.017l47.409,29.445a.1.1,0,0,1-.041.185l-96.333,10.854" transform="translate(-152.161 -906.298)" fill="#f7a9b4"/>
        <path id="Path_149" data-name="Path 149" d="M152.336,948.69l-.073-.65-.121-.121.1-.1v-.011h.013l39.778-39.34a7.664,7.664,0,0,1,9.455-1.078l47.41,29.445a.541.541,0,0,1-.222,1Zm45.1-41.57a6.787,6.787,0,0,0-4.788,1.979l-38.984,38.554,93.929-10.582-46.576-28.927A6.789,6.789,0,0,0,197.437,907.12Z" transform="translate(-152.142 -906.238)" fill="#243762"/>
      </g>
      <path id="Path_150" data-name="Path 150" d="M152.472,948.292l39.887-39.447a7.245,7.245,0,0,1,8.912-1.017l47.409,29.445a.1.1,0,0,1-.041.185l-96.333,10.854" transform="translate(-151.883 -906.298)" fill="#243762" opacity="0.29"/>
      <g id="Group_303" data-name="Group 303" transform="translate(13.967 56.362)">
        <path id="Path_151" data-name="Path 151" d="M198.712,974.431l-29.983,41.716,81.844-9.221-38.514-34A9.055,9.055,0,0,0,198.712,974.431Z" transform="translate(-167.792 -970.22)" fill="#f7a9b4"/>
        <path id="Path_152" data-name="Path 152" d="M167.666,1016.638l30.562-42.523.358.257-.358-.257a9.5,9.5,0,0,1,14-1.577l39.259,34.657Zm38.27-45.595a8.607,8.607,0,0,0-6.991,3.587l-29.4,40.91,79.87-9L211.641,973.2A8.629,8.629,0,0,0,205.936,971.043Z" transform="translate(-167.666 -970.161)" fill="#243762"/>
      </g>
      <g id="Group_304" data-name="Group 304" transform="translate(5.459 5.818)">
        <path id="Path_153" data-name="Path 153" d="M158.017,920.495l63.042-7.1c4.133-.466,7.809,2.065,8.214,5.652l4.051,35.963L215.794,971.12l-23.166,2.61-22.882-14.312-3.926-34.842Z" transform="translate(-158.017 -912.896)" fill="#fff"/>
        <path id="Path_154" data-name="Path 154" d="M192.711,974.126,169.517,959.62l-3.924-34.82-6-4.964,61.606-6.941a8.539,8.539,0,0,1,5.8,1.382,6.524,6.524,0,0,1,2.9,4.66l4.077,36.184-17.8,16.362ZM170.345,959.1l22.572,14.117,22.871-2.577,17.26-15.865-4.027-35.74A5.655,5.655,0,0,0,226.5,915a7.657,7.657,0,0,0-5.206-1.232l-61.611,6.942,6.734,3.522Z" transform="translate(-158.203 -912.836)" fill="#243762"/>
      </g>
      <path id="Path_155" data-name="Path 155" d="M198.712,970.349l-29.983,45.315,81.844-9.221-38.514-37.6A9.055,9.055,0,0,0,198.712,970.349Z" transform="translate(-153.825 -913.376)" fill="#243762" opacity="0.29"/>
      <g id="Group_305" data-name="Group 305" transform="translate(13.967 56.362)">
        <path id="Path_156" data-name="Path 156" d="M198.712,974.431l-29.983,41.716,81.844-9.221-38.514-34A9.055,9.055,0,0,0,198.712,974.431Z" transform="translate(-167.792 -970.22)" fill="#f7a9b4"/>
        <path id="Path_157" data-name="Path 157" d="M167.666,1016.638l30.562-42.523.358.257-.358-.257a9.5,9.5,0,0,1,14-1.577l39.259,34.657Zm38.27-45.595a8.607,8.607,0,0,0-6.991,3.587l-29.4,40.91,79.87-9L211.641,973.2A8.629,8.629,0,0,0,205.936,971.043Z" transform="translate(-167.666 -970.161)" fill="#243762"/>
      </g>
      <path id="Path_158" data-name="Path 158" d="M203.076,985.037l-22.02,30.636,60.106-6.772-28.284-24.969A6.651,6.651,0,0,0,203.076,985.037Z" transform="translate(-155.283 -915.232)" fill="#ecf1f7" opacity="0.35"/>
      <g id="Group_306" data-name="Group 306" transform="translate(0.391 41.699)">
        <line id="Line_4" data-name="Line 4" x2="39.445" y2="24.579" transform="translate(0.233 0.374)" fill="#f7a9b4"/>
        <rect id="Rectangle_351" data-name="Rectangle 351" width="0.883" height="46.476" transform="translate(0 0.749) rotate(-58.072)" fill="#243762"/>
      </g>
      <g id="Group_307" data-name="Group 307" transform="translate(63.926 30.873)">
        <line id="Line_5" data-name="Line 5" x1="32.987" y2="32.74" transform="translate(0.306 0.317)" fill="#f7a9b4"/>
        <rect id="Rectangle_352" data-name="Rectangle 352" width="46.477" height="0.881" transform="translate(0 32.75) rotate(-44.801)" fill="#243762"/>
      </g>
      <g id="Group_308" data-name="Group 308" transform="translate(1.761 12.725)">
        <path id="Path_159" data-name="Path 159" d="M167.128,941.559l-11,1.24-1.769-15.7a5.286,5.286,0,0,1,4.66-5.843l.5-.057a5.285,5.285,0,0,1,5.842,4.66Z" transform="translate(-153.883 -920.73)" fill="#ecf1f7"/>
        <path id="Path_160" data-name="Path 160" d="M155.678,943.228l-1.818-16.136a5.726,5.726,0,0,1,5.048-6.33l.5-.056a5.726,5.726,0,0,1,6.33,5.048l1.818,16.134Zm4.382-21.676a4.859,4.859,0,0,0-.553.031l-.5.056a4.844,4.844,0,0,0-4.27,5.355l1.719,15.259,10.126-1.141-1.72-15.259a4.841,4.841,0,0,0-4.8-4.3Z" transform="translate(-153.823 -920.671)" fill="#243762"/>
      </g>
      <path id="Path_161" data-name="Path 161" d="M177.26,934.217a.441.441,0,0,1-.049-.879l45.677-5.146a.441.441,0,1,1,.1.876l-45.677,5.147Z" transform="translate(-154.782 -908.834)" fill="#243762"/>
      <path id="Path_162" data-name="Path 162" d="M179.244,951.829a.441.441,0,0,1-.048-.88l45.676-5.145a.441.441,0,1,1,.1.876l-45.677,5.146Z" transform="translate(-155.017 -910.918)" fill="#243762"/>
      <path id="Path_163" data-name="Path 163" d="M178.24,943.313a.441.441,0,0,1-.048-.879l19.738-2.224a.441.441,0,1,1,.1.876l-19.739,2.224Z" transform="translate(-154.898 -910.256)" fill="#243762"/>
      <path id="Path_164" data-name="Path 164" d="M206.488,940.115a.441.441,0,0,1-.048-.879l20.77-2.34a.441.441,0,0,1,.1.876l-20.77,2.34Z" transform="translate(-158.24 -909.864)" fill="#243762"/>
      <path id="Path_165" data-name="Path 165" d="M180.369,962.208a.441.441,0,0,1-.048-.879l19.738-2.225a.446.446,0,0,1,.488.39.441.441,0,0,1-.389.487l-19.739,2.225Z" transform="translate(-155.15 -912.491)" fill="#243762"/>
    </g>
  </g>
  <line id="Line_47" data-name="Line 47" x2="308" transform="translate(27.007 340)" fill="none" stroke="#707070" stroke-width="1" opacity="0.473"/>
</svg>
