<svg xmlns="http://www.w3.org/2000/svg" xmlns:xlink="http://www.w3.org/1999/xlink" width="38.833" height="37.064" viewBox="0 0 38.833 37.064">
  <defs>
    <filter id="Fill_1" x="0" y="0" width="38.833" height="37.064" filterUnits="userSpaceOnUse">
      <feOffset dy="3" input="SourceAlpha"/>
      <feGaussianBlur stdDeviation="3" result="blur"/>
      <feFlood flood-opacity="0.161"/>
      <feComposite operator="in" in2="blur"/>
      <feComposite in="SourceGraphic"/>
    </filter>
  </defs>
  <g id="Iconly_Bulk_Arrow_-_Right_2" data-name="Iconly/Bulk/Arrow - Right 2" transform="translate(9 0.064)">
    <g id="Arrow_-_Right_2" data-name="Arrow - Right 2" transform="translate(0 25) rotate(-90)">
      <g transform="matrix(0, 1, -1, 0, 25.06, -9)" filter="url(#Fill_1)">
        <path id="Fill_1-2" data-name="Fill 1" d="M10.14.447l8.79,14.267a.906.906,0,0,1-.054,1.028,27.2,27.2,0,0,1-2.992,3.374,11.186,11.186,0,0,1-1.165,1,3.589,3.589,0,0,1-2.206.72,3.864,3.864,0,0,1-2.375-.767c-.119-.116-.642-.558-1.069-.975A45.369,45.369,0,0,1,.688,6.961,9.353,9.353,0,0,1,0,4.5,4.037,4.037,0,0,1,.452,2.624,3.888,3.888,0,0,1,2.327.978,19.315,19.315,0,0,1,4.559.444,36.815,36.815,0,0,1,9.286,0a.964.964,0,0,1,.854.446" transform="translate(9 25.06) rotate(-90)" fill="#1dbf8a"/>
      </g>
      <path id="Fill_4" data-name="Fill 4" d="M.136,1.391A.922.922,0,0,1,.992,0c1.754.075,3.3.206,4.45.364a15.473,15.473,0,0,1,2.754.72,3.7,3.7,0,0,1,2.065,3.293v.114a9.377,9.377,0,0,1-.854,2.762,28.767,28.767,0,0,1-1.863,3.511.956.956,0,0,1-1.621.014Z" transform="translate(14.739 0.01)" fill="#f5cb2e"/>
    </g>
  </g>
</svg>
