<svg id="Tab_Bar_v1" data-name="Tab Bar v1" xmlns="http://www.w3.org/2000/svg" width="95.688" height="27.376" viewBox="0 0 95.688 27.376">
  <g id="Home" transform="translate(-114.313 2.229)">
    <circle id="Ellipse_7" data-name="Ellipse 7" cx="8" cy="8" r="8" transform="translate(121.56 5.459)" fill="#9b9b9b" opacity="0.347"/>
    <text id="Ma_Carte" data-name="Ma Carte" transform="translate(149 16.459)" fill="#9b9b9b" font-size="13" font-family="Poppins-Medium, Poppins" font-weight="500"><tspan x="0" y="0">Ma Carte</tspan></text>
  </g>
  <path id="nfc" d="M26.459,18.581A1.07,1.07,0,0,1,25.4,17.329a22.781,22.781,0,0,0,.332-3.64A22.465,22.465,0,0,0,22.113,1.653,1.069,1.069,0,1,1,23.906.487a24.6,24.6,0,0,1,3.969,13.191V13.7a24.906,24.906,0,0,1-.364,4A1.07,1.07,0,0,1,26.459,18.581ZM23.906,26.89a24.538,24.538,0,0,0,2.117-4.033,1.069,1.069,0,0,0-1.978-.814,22.386,22.386,0,0,1-1.932,3.681,1.069,1.069,0,1,0,1.793,1.166ZM18.71,24.1a19.089,19.089,0,0,0,3.23-10.4q0-.014,0-.028a19.088,19.088,0,0,0-3.23-10.4,1.069,1.069,0,0,0-1.777,1.19A16.954,16.954,0,0,1,19.8,13.689a16.954,16.954,0,0,1-2.868,9.224A1.069,1.069,0,0,0,18.71,24.1ZM14,19.64a1.85,1.85,0,0,0,1.219-1.129,13.1,13.1,0,0,0,.84-4.844,13.21,13.21,0,0,0-2.4-7.314A1.069,1.069,0,1,0,11.9,7.577a11.077,11.077,0,0,1,2.02,6.133,10.9,10.9,0,0,1-.571,3.673L3.541,9.84a1.63,1.63,0,0,0-2.558.834A12.239,12.239,0,0,0,.5,14.063a10.12,10.12,0,0,0,1.509,4.888,1.069,1.069,0,0,0,1.8-1.161,8.021,8.021,0,0,1-1.166-3.727,10.118,10.118,0,0,1,.213-2.054l9.523,7.322a1.82,1.82,0,0,0,1.113.382A1.848,1.848,0,0,0,14,19.64Zm0,0" transform="translate(-0.5 0)" fill="#9b9b9b"/>
</svg>
