<svg id="magasins" xmlns="http://www.w3.org/2000/svg" xmlns:xlink="http://www.w3.org/1999/xlink" width="360" height="340.5" viewBox="0 0 360 340.5">
  <defs>
    <clipPath id="clip-path">
      <circle id="Ellipse_23" data-name="Ellipse 23" cx="91.27" cy="91.27" r="91.27" fill="none"/>
    </clipPath>
  </defs>
  <path id="Subtraction_1" data-name="Subtraction 1" d="M269.135,259H39.95A155.182,155.182,0,0,1,94.388,12.181,153.436,153.436,0,0,1,123.4,3.149a155.6,155.6,0,0,1,62.292,0,153.454,153.454,0,0,1,55.26,23.323A155.174,155.174,0,0,1,269.136,259Z" transform="translate(26.507 80.999)" fill="#abd8fe" opacity="0.211"/>
  <path id="Path_62" data-name="Path 62" d="M1198.4,936.259a3.857,3.857,0,1,1-3.856-3.857A3.862,3.862,0,0,1,1198.4,936.259Zm-1.911,0a1.946,1.946,0,1,0-1.945,1.946A1.948,1.948,0,0,0,1196.484,936.259Z" transform="translate(-882.194 -747.531)" fill="#91a8f6"/>
  <g id="Group_252" data-name="Group 252" transform="translate(325.02 45.544)">
    <path id="Path_63" data-name="Path 63" d="M1263.238,795.026h-21.846a.956.956,0,1,0,0,1.911h21.846a.956.956,0,1,0,0-1.911Z" transform="translate(-1229.214 -795.022)" fill="#91a8f6"/>
    <path id="Path_64" data-name="Path 64" d="M1234.439,795.022h-4.269a.956.956,0,1,0,0,1.911h4.269a.956.956,0,0,0,0-1.911Z" transform="translate(-1229.214 -795.022)" fill="#91a8f6"/>
    <path id="Path_65" data-name="Path 65" d="M1252.974,802.638a.957.957,0,0,1-.956.956h-2.732a.956.956,0,1,1,0-1.912h2.732A.956.956,0,0,1,1252.974,802.638Zm-7.511,0a.957.957,0,0,1-.956.956h-4.779a.956.956,0,0,1,0-1.912h4.779A.956.956,0,0,1,1245.463,802.638Zm-9.557,0a.957.957,0,0,1-.956.956h-4.779a.956.956,0,0,1,0-1.912h4.779A.956.956,0,0,1,1235.906,802.638Z" transform="translate(-1229.214 -795.022)" fill="#91a8f6"/>
  </g>
  <g id="Group_253" data-name="Group 253" transform="translate(21.834 103.726)">
    <path id="Path_66" data-name="Path 66" d="M908.787,858.918a.957.957,0,0,0-.956.956v2.216a.956.956,0,0,0,1.912,0v-2.216A.956.956,0,0,0,908.787,858.918Z" transform="translate(-903.113 -852.101)" fill="#91a8f6"/>
    <path id="Path_67" data-name="Path 67" d="M906.286,856.694h-2.217a.956.956,0,1,0,0,1.911h2.217a.956.956,0,1,0,0-1.911Z" transform="translate(-903.113 -852.101)" fill="#91a8f6"/>
    <path id="Path_68" data-name="Path 68" d="M908.787,852.1a.957.957,0,0,0-.956.956v2.216a.956.956,0,0,0,1.912,0v-2.216A.956.956,0,0,0,908.787,852.1Z" transform="translate(-903.113 -852.101)" fill="#91a8f6"/>
    <path id="Path_69" data-name="Path 69" d="M913.506,856.542h-2.218a.956.956,0,0,0,0,1.911h2.218a.956.956,0,1,0,0-1.911Z" transform="translate(-903.113 -852.101)" fill="#91a8f6"/>
  </g>
  <g id="Group_254" data-name="Group 254" transform="translate(261.549 40.659)">
    <path id="Path_70" data-name="Path 70" d="M1149.188,796.954a.956.956,0,0,0-.956.955v2.217a.956.956,0,1,0,1.912,0v-2.217A.956.956,0,0,0,1149.188,796.954Z" transform="translate(-1143.514 -790.137)" fill="#91a8f6"/>
    <path id="Path_71" data-name="Path 71" d="M1146.687,794.73h-2.217a.956.956,0,1,0,0,1.911h2.217a.956.956,0,0,0,0-1.911Z" transform="translate(-1143.514 -790.137)" fill="#91a8f6"/>
    <path id="Path_72" data-name="Path 72" d="M1149.188,790.137a.957.957,0,0,0-.956.956v2.215a.956.956,0,1,0,1.912,0v-2.215A.956.956,0,0,0,1149.188,790.137Z" transform="translate(-1143.514 -790.137)" fill="#91a8f6"/>
    <path id="Path_73" data-name="Path 73" d="M1153.907,794.578h-2.218a.956.956,0,0,0,0,1.911h2.218a.956.956,0,1,0,0-1.911Z" transform="translate(-1143.514 -790.137)" fill="#91a8f6"/>
  </g>
  <g id="Group_255" data-name="Group 255" transform="translate(144.373)">
    <path id="Path_74" data-name="Path 74" d="M1060.082,749.482h-21.847a.956.956,0,0,0,0,1.911h21.847a.956.956,0,1,0,0-1.911Z" transform="translate(-1026.058 -749.478)" fill="#91a8f6"/>
    <path id="Path_75" data-name="Path 75" d="M1031.283,749.478h-4.27a.955.955,0,0,0,0,1.911h4.27a.955.955,0,0,0,0-1.911Z" transform="translate(-1026.058 -749.478)" fill="#91a8f6"/>
    <path id="Path_76" data-name="Path 76" d="M1049.818,757.093a.956.956,0,0,1-.956.956h-2.732a.956.956,0,1,1,0-1.911h2.732A.956.956,0,0,1,1049.818,757.093Zm-7.511,0a.956.956,0,0,1-.956.956h-4.779a.956.956,0,0,1,0-1.911h4.779A.956.956,0,0,1,1042.307,757.093Zm-9.557,0a.956.956,0,0,1-.956.956h-4.779a.956.956,0,0,1,0-1.911h4.779A.956.956,0,0,1,1032.75,757.093Z" transform="translate(-1026.058 -749.478)" fill="#91a8f6"/>
  </g>
  <path id="Path_81" data-name="Path 81" d="M972.308,773.157s1.3,9.31-9.57,9.1c0,0,9.341.095,9.1,8.831,0,0,.84-6.872,9.412-8.407C981.246,782.676,974,784.338,972.308,773.157Z" transform="translate(-881.497 -749.478)" fill="#91a8f6"/>
  <path id="Path_82" data-name="Path 82" d="M878.7,798.868s1.3,9.31-9.57,9.1c0,0,9.341.095,9.1,8.831,0,0,.841-6.872,9.412-8.407C887.633,808.387,880.39,810.048,878.7,798.868Z" transform="translate(-869.126 -749.038)" fill="#91a8f6"/>
  <path id="Path_83" data-name="Path 83" d="M935.436,759.077s.454,3.245-3.336,3.171c0,0,3.257.033,3.169,3.078a3.7,3.7,0,0,1,3.281-2.931S936.026,762.974,935.436,759.077Z" transform="translate(-881.279 -749.478)" fill="#91a8f6"/>
  <path id="Path_84" data-name="Path 84" d="M1105.727,870.947s.454,3.245-3.336,3.171c0,0,3.257.033,3.169,3.078a3.7,3.7,0,0,1,3.281-2.931S1106.317,874.844,1105.727,870.947Z" transform="translate(-881.85 -748.191)" fill="#91a8f6"/>
  <g id="Group_257" data-name="Group 257" transform="translate(7.091 166.594)">
    <path id="Path_86" data-name="Path 86" d="M944.505,961.592H923.292a4.921,4.921,0,0,1-.157-9.84,7.616,7.616,0,0,1,13.995-4.03,5.525,5.525,0,0,1,6.135,4.027h1.24a4.921,4.921,0,1,1,0,9.843Zm-21.213-8.386a3.465,3.465,0,1,0,0,6.93h21.213a3.465,3.465,0,0,0,0-6.93h-2.448l-.1-.614a4.07,4.07,0,0,0-5.021-3.352l-.536.128-.269-.482a6.16,6.16,0,0,0-11.543,3c0,.18.012.357.027.533l.068.791Z" transform="translate(-918.37 -944.265)" fill="#91a8f6"/>
  </g>
  <g id="Group_259" data-name="Group 259" transform="translate(86.823 70.183)">
    <path id="Path_88" data-name="Path 88" d="M994.479,836.228H973.265a4.921,4.921,0,0,1-.157-9.84,7.616,7.616,0,0,1,14-4.03,5.527,5.527,0,0,1,6.134,4.027h1.241a4.922,4.922,0,0,1,0,9.843Zm-21.214-8.386a3.465,3.465,0,1,0,0,6.93h21.214a3.465,3.465,0,0,0,0-6.93H992.03l-.1-.614a4.072,4.072,0,0,0-5.021-3.352l-.536.128-.269-.481a6.16,6.16,0,0,0-11.544,2.995c0,.18.013.357.028.533l.067.791Z" transform="translate(-968.344 -818.9)" fill="#91a8f6"/>
  </g>
  <g id="Group_276" data-name="Group 276" transform="translate(165.362 33.652)">
    <g id="Group_272" data-name="Group 272" transform="translate(128.794 56.789)">
      <g id="Group_271" data-name="Group 271">
        <g id="Group_270" data-name="Group 270">
          <g id="Group_269" data-name="Group 269">
            <path id="Path_93" data-name="Path 93" d="M1178.726,844.673h59.408a2.377,2.377,0,0,0,0-4.754h-59.408a2.377,2.377,0,0,0,0,4.754Z" transform="translate(-1176.35 -839.919)" fill="#91a8f6"/>
          </g>
        </g>
      </g>
    </g>
    <g id="Group_275" data-name="Group 275">
      <g id="Group_274" data-name="Group 274">
        <g id="Group_273" data-name="Group 273">
          <path id="Path_94" data-name="Path 94" d="M1078.525,844.082a31.416,31.416,0,0,1-6.319-.643,1.569,1.569,0,0,1-1.22-1.852,1.592,1.592,0,0,1,1.853-1.22,28.359,28.359,0,0,0,9.84.273,1.568,1.568,0,1,1,.464,3.1A31.5,31.5,0,0,1,1078.525,844.082Zm14.229-3.661a1.569,1.569,0,0,1-.763-2.942,27.831,27.831,0,0,0,7.636-6.21,1.566,1.566,0,0,1,2.372,2.046,31.043,31.043,0,0,1-8.488,6.909A1.569,1.569,0,0,1,1092.754,840.421Zm13.345-15.509a1.594,1.594,0,0,1-.546-.1,1.568,1.568,0,0,1-.923-2.015,27.736,27.736,0,0,0,1.732-9.685,1.566,1.566,0,0,1,3.133,0,30.864,30.864,0,0,1-1.926,10.777A1.573,1.573,0,0,1,1106.1,824.912Zm-55.676-1.557a1.565,1.565,0,0,1-1.5-1.107,31.007,31.007,0,0,1-1.37-9.133c0-.585.015-1.161.048-1.735a1.6,1.6,0,0,1,1.653-1.475,1.565,1.565,0,0,1,1.475,1.653c-.028.513-.043,1.034-.043,1.554a27.976,27.976,0,0,0,1.232,8.213,1.567,1.567,0,0,1-1.036,1.959A1.544,1.544,0,0,1,1050.423,823.355Zm56.643-15.766a1.566,1.566,0,0,1-1.52-1.192,27.625,27.625,0,0,0-4.026-8.975,1.568,1.568,0,1,1,2.587-1.771,30.719,30.719,0,0,1,4.48,9.991,1.565,1.565,0,0,1-1.143,1.9A1.514,1.514,0,0,1,1107.066,807.589Zm-11.542-16.9a1.545,1.545,0,0,1-.905-.289,27.6,27.6,0,0,0-8.9-4.184,1.568,1.568,0,1,1,.806-3.031,30.728,30.728,0,0,1,9.909,4.659,1.567,1.567,0,0,1-.911,2.845Z" transform="translate(-1047.556 -783.13)" fill="#445eea"/>
        </g>
      </g>
    </g>
  </g>
  <text id="_" data-name="
" transform="translate(335.592 262)" fill="#000759" font-size="13" font-family="Poppins-Medium, Poppins" font-weight="500"><tspan x="0" y="0"></tspan><tspan x="0" y="40"></tspan></text>
  <g id="Group_388" data-name="Group 388" transform="translate(43.507 88.5)">
    <g id="Group_352" data-name="Group 352">
      <g id="Group_339" data-name="Group 339" transform="translate(171.68 165.892)">
        <g id="Group_338" data-name="Group 338">
          <path id="Path_248" data-name="Path 248" d="M566.764,506.44a18.849,18.849,0,0,0-23.317-18.313,18.35,18.35,0,0,0-33.519,9.52c-.264-.015-.529-.024-.8-.024a13.836,13.836,0,0,0-13.667,11.687h71.084A19.048,19.048,0,0,0,566.764,506.44Z" transform="translate(-480.272 -480.077)" fill="#fff"/>
          <path id="Path_249" data-name="Path 249" d="M586.65,497.007A18.827,18.827,0,0,0,577.789,502" transform="translate(-523.476 -488.962)" fill="none" stroke="#333" stroke-linecap="round" stroke-linejoin="round" stroke-width="4.5"/>
          <path id="Path_250" data-name="Path 250" d="M566.764,506.44a18.849,18.849,0,0,0-23.317-18.313,18.35,18.35,0,0,0-33.519,9.52c-.264-.015-.529-.024-.8-.024a13.836,13.836,0,0,0-13.667,11.687h71.084A19.048,19.048,0,0,0,566.764,506.44Z" transform="translate(-480.272 -480.077)" fill="none" stroke="#333" stroke-linecap="round" stroke-linejoin="round" stroke-width="4.5"/>
          <line id="Line_37" data-name="Line 37" x2="82.666" transform="translate(7.281 29.232)" fill="none" stroke="#333" stroke-linecap="round" stroke-linejoin="round" stroke-width="4.5"/>
          <line id="Line_38" data-name="Line 38" x1="5.086" transform="translate(0 29.232)" fill="none" stroke="#333" stroke-linecap="round" stroke-linejoin="round" stroke-width="4.5"/>
          <line id="Line_39" data-name="Line 39" x1="9.187" transform="translate(94.133 29.232)" fill="none" stroke="#333" stroke-linecap="round" stroke-linejoin="round" stroke-width="4.5"/>
          <path id="Path_251" data-name="Path 251" d="M575.651,488.127a19.066,19.066,0,0,1,2.315-.412,18.326,18.326,0,0,0-14.9-7.638c-.43,0-.854.02-1.276.049A18.338,18.338,0,0,1,575.651,488.127Z" transform="translate(-515.08 -480.077)" fill="#dfdfdf" style="mix-blend-mode: multiply;isolation: isolate"/>
          <path id="Path_252" data-name="Path 252" d="M604.378,495.886c-.445,0-.885.018-1.321.048a18.862,18.862,0,0,1,17.35,21.671h2.6a19.047,19.047,0,0,0,.217-2.87A18.85,18.85,0,0,0,604.378,495.886Z" transform="translate(-536.736 -488.373)" fill="#dfdfdf" style="mix-blend-mode: multiply;isolation: isolate"/>
        </g>
        <path id="Path_253" data-name="Path 253" d="M535.5,481.568a18.34,18.34,0,0,0-25.567,16.079c-.264-.015-.53-.024-.8-.024a13.836,13.836,0,0,0-13.667,11.687h20.368A94.538,94.538,0,0,0,535.5,481.568Z" transform="translate(-480.272 -480.077)" fill="#dfdfdf" style="mix-blend-mode: multiply;isolation: isolate"/>
      </g>
      <g id="Group_340" data-name="Group 340" transform="translate(32.631 31.245)">
        <path id="Path_254" data-name="Path 254" d="M547.733,316.109a103.918,103.918,0,0,0-59.869-116.025" transform="translate(-337.235 -200.084)" fill="none" stroke="#333" stroke-linecap="round" stroke-linejoin="round" stroke-width="4.5"/>
        <path id="Path_255" data-name="Path 255" d="M607.23,462.227q1-2.994,1.812-6.068" transform="translate(-399.878 -334.47)" fill="none" stroke="#333" stroke-linecap="round" stroke-linejoin="round" stroke-width="4.5"/>
        <path id="Path_256" data-name="Path 256" d="M232.332,539.854a109.662,109.662,0,0,0,158.111,6.958" transform="translate(-208.256 -378.392)" fill="none" stroke="#333" stroke-linecap="round" stroke-linejoin="round" stroke-width="4.5"/>
        <path id="Path_257" data-name="Path 257" d="M216.219,517.922q2.113,3.286,4.462,6.4" transform="translate(-199.8 -366.883)" fill="none" stroke="#333" stroke-linecap="round" stroke-linejoin="round" stroke-width="4.5"/>
        <path id="Path_258" data-name="Path 258" d="M231.166,213.878a103.915,103.915,0,0,0-48.533,102.665" transform="translate(-181.667 -207.323)" fill="none" stroke="#333" stroke-linecap="round" stroke-linejoin="round" stroke-width="4.5"/>
        <path id="Path_259" data-name="Path 259" d="M303.75,200.084q-3.883,1.709-7.593,3.72" transform="translate(-240.357 -200.084)" fill="none" stroke="#333" stroke-linecap="round" stroke-linejoin="round" stroke-width="4.5"/>
      </g>
      <g id="Group_346" data-name="Group 346" transform="translate(47.76 34.977)">
        <g id="Group_341" data-name="Group 341" transform="translate(0)">
          <circle id="Ellipse_19" data-name="Ellipse 19" cx="91.27" cy="91.27" r="91.27" fill="#92cef8"/>
        </g>
        <g id="Group_343" data-name="Group 343" transform="translate(0.035 3.174)">
          <g id="Group_342" data-name="Group 342">
            <path id="Path_260" data-name="Path 260" d="M465.6,509.008a.875.875,0,0,0,1.108.463l1.175-.412a3.214,3.214,0,0,0,1.314-.981l7.183-9.933a10.5,10.5,0,0,1,1.133-1.28l.244-.227a2.51,2.51,0,0,0,.691-1.441l.191-2.665a3.069,3.069,0,0,0-.222-1.388c-.156-.293-.527-.233-.828.134l-1.444,1.76a4.544,4.544,0,0,1-1.321,1.032l-3.874,1.832a3,3,0,0,0-1.177,1.127l-.472.9a4.106,4.106,0,0,0-.4,1.619v1.1a2.929,2.929,0,0,1-.526,1.538l-.978,1.266a6.913,6.913,0,0,0-.83,1.483l-.959,2.525A2.473,2.473,0,0,0,465.6,509.008Z" transform="translate(-343.128 -359.638)" fill="#e6f5ff"/>
            <path id="Path_261" data-name="Path 261" d="M376.012,294.173l.056.262.147.49a2.124,2.124,0,0,1,.027.964.923.923,0,0,0,.143.763.4.4,0,0,0,.517.093.79.79,0,0,1,.514-.154c.143.023.295-.342.337-.815l.113-1.242a.669.669,0,0,0-.776-.756l-.28.033C376.339,293.866,375.982,294.028,376.012,294.173Z" transform="translate(-296.176 -256.157)" fill="#e6f5ff"/>
            <path id="Path_262" data-name="Path 262" d="M378.806,288.671c-.052-.256-.306-.336-.568-.178a1.178,1.178,0,0,0-.514.818.868.868,0,0,0,.259.728c.165.108.437-.051.608-.355A1.753,1.753,0,0,0,378.806,288.671Z" transform="translate(-297.074 -253.344)" fill="#e6f5ff"/>
            <path id="Path_263" data-name="Path 263" d="M387.818,303.8c.671.371,1.641.917,2.307,1.293.413.233.774.187.805-.1a1.186,1.186,0,0,0-.148-.765,1.1,1.1,0,0,1,.013-.87c.121-.348-.162-.578-.632-.514l-.572.078a4.092,4.092,0,0,1-1.584-.134c-.4-.138-.781-.058-.84.179S387.4,303.567,387.818,303.8Z" transform="translate(-302.027 -260.85)" fill="#e6f5ff"/>
            <path id="Path_264" data-name="Path 264" d="M419.546,311.9c.005.134.384.329.846.436l.061.014c.462.107.837.26.837.342s.38.089.849.016l.2-.03c.469-.073.849-.255.849-.408s-.384-.278-.859-.282h-.244a11.368,11.368,0,0,1-1.7-.167C419.914,311.734,419.541,311.77,419.546,311.9Z" transform="translate(-319.023 -265.604)" fill="#e6f5ff"/>
            <path id="Path_265" data-name="Path 265" d="M444.8,312.725a1.79,1.79,0,0,0,1.007.362c.362.015.648-.106.638-.272a1.545,1.545,0,0,1,.416-.792c.239-.272.068-.374-.384-.228l-.928.3-.55.147C444.7,312.323,444.606,312.539,444.8,312.725Z" transform="translate(-332.222 -265.58)" fill="#e6f5ff"/>
            <path id="Path_266" data-name="Path 266" d="M344.028,259.117a1.422,1.422,0,0,0,1.141,0,5.366,5.366,0,0,1,1.419-.4,6.616,6.616,0,0,0,1.429-.268c0-.053.095-.478.19-.893a2.48,2.48,0,0,1,.741-1.247.72.72,0,0,0,.2-.947.885.885,0,0,0-1.117-.153l-.5.252a5.977,5.977,0,0,1-1.493.491.911.911,0,0,0-.778.738,2.149,2.149,0,0,1-.7,1.191l-.443.382C343.745,258.578,343.71,258.958,344.028,259.117Z" transform="translate(-279.278 -235.857)" fill="#e6f5ff"/>
            <path id="Path_267" data-name="Path 267" d="M351.439,256.875a1.519,1.519,0,0,0,1.123-.033l1-.337a6.283,6.283,0,0,1,1.673-.274h1.047a1.435,1.435,0,0,0,1.148-.5,3.5,3.5,0,0,1,.967-.939c.374-.242.6-.632.5-.869a.745.745,0,0,0-.808-.322c-.35.059-.614-.277-.591-.75l.007-.135a3.875,3.875,0,0,0-.341-1.627l-.043-.086a2.148,2.148,0,0,0-.666-.869c-.156-.055.044-.3.447-.555l.313-.195c.4-.251.632-.617.514-.817a.657.657,0,0,0-.7-.241c-.266.067-.289-.1-.053-.372s.1-.484-.308-.474a1.865,1.865,0,0,0-1.25.707l-.547.734c-.284.381-.4.838-.27,1.023a.716.716,0,0,1-.134.793.475.475,0,0,0,.233.748.994.994,0,0,1,.506.992.85.85,0,0,1-.705.738,1.592,1.592,0,0,0-1.04.775l-.192.324c-.242.408-.162.8.178.874s.265.292-.169.485l-1.371.61C351.482,256.477,351.268,256.741,351.439,256.875Z" transform="translate(-283.25 -231.863)" fill="#e6f5ff"/>
            <path id="Path_268" data-name="Path 268" d="M312.379,228.311c.367.2.752.366.845.261.155-.174,5.93-3.269,8.035-4.394a7.745,7.745,0,0,1,1.6-.6l4.731-1.08,6.679-1.527a1.812,1.812,0,0,0,1.15-.991l.051-.131a2.4,2.4,0,0,1,1.1-1.15l7.289-3.244c.433-.193.4-.393-.069-.447l-2.988-.341a11.355,11.355,0,0,0-1.71-.039l-3.894.267-4.705.8-3.061.667c-.463.1-.614.406-.336.682a.64.64,0,0,1-.2.991l-3.7,2.576a5.2,5.2,0,0,1-1.543.679l-1.88.421a4.447,4.447,0,0,0-1.511.722l-4.357,3.457-1.613,1.412A.583.583,0,0,0,312.379,228.311Z" transform="translate(-262.605 -214.617)" fill="#e6f5ff"/>
            <path id="Path_269" data-name="Path 269" d="M208.012,404.394a91.276,91.276,0,0,0,50.847,79.565c.425.21.47.138.1-.156l-9.61-7.592a1.487,1.487,0,0,1-.581-1.183,1.873,1.873,0,0,0-.482-1.289l-8.424-9.346a2.958,2.958,0,0,1-.644-1.495l-.07-.874a1.638,1.638,0,0,1,.64-1.342l.178-.123a1,1,0,0,0,.316-1.25l-5.874-11.437a2.987,2.987,0,0,1-.245-1.61l.673-3.864a3.868,3.868,0,0,0-.14-1.656L232.37,434.2a2.254,2.254,0,0,0-1.076-1.15l-1.074-.464a4.812,4.812,0,0,1-1.37-.973l-1.131-1.23a6.1,6.1,0,0,0-1.338-1.039l-8.42-4.537a2.287,2.287,0,0,1-.981-1.236l-2.357-8.706a2.638,2.638,0,0,0-.94-1.3l-.927-.614a2.678,2.678,0,0,1-.948-1.3l-1.11-3.953a5.566,5.566,0,0,0-.744-1.517l-1.447-1.948C208.223,403.845,208,403.92,208.012,404.394Z" transform="translate(-208.011 -313.995)" fill="#e6f5ff"/>
            <path id="Path_270" data-name="Path 270" d="M265.235,240.351a91.76,91.76,0,0,0-24.5,24.494c-.266.393-.115.589.335.437.512-.173.98-.329,1.349-.452a2.438,2.438,0,0,0,1.212-1.032l1.288-2.478a2.119,2.119,0,0,1,1.233-.957l2.93-.681a1.1,1.1,0,0,0,.815-1.053l-.023-.892a2.413,2.413,0,0,1,.564-1.487L251.7,254.9c.324-.347.479-.738.345-.874s.063-.483.437-.774l.409-.319a1.675,1.675,0,0,1,1.359-.3,2.327,2.327,0,0,0,.7.156c.115-.032,1.031-.7,1.692-1.2a5.062,5.062,0,0,1,1.521-.721l1.088-.269a3.319,3.319,0,0,0,1.413-.841l.31-.341a5.554,5.554,0,0,0,.891-1.435l.46-1.176a3.608,3.608,0,0,1,1-1.321l3.776-2.876c.377-.288.322-.387-.123-.223l-2.127.786c-.445.164-.65.053-.458-.25a4.68,4.68,0,0,1,1.047-1.046l2.118-1.509c.386-.275.315-.5-.159-.5h-.592A3.285,3.285,0,0,0,265.235,240.351Z" transform="translate(-225.118 -227.871)" fill="#e6f5ff"/>
            <path id="Path_271" data-name="Path 271" d="M434.836,302.843a91.289,91.289,0,0,0-52.87-80.367,13.236,13.236,0,0,0-1.607-.593l-.8-.227a11.832,11.832,0,0,0-1.681-.325l-1.387-.144a1.384,1.384,0,0,0-1.114.278c-.144.2-.535.1-.873-.234l-.4-.391a3.271,3.271,0,0,0-1.459-.753l-2.581-.466c-.467-.084-.83-.036-.811.108s-.248.32-.6.394-.383.274-.08.457a3.271,3.271,0,0,1,.53.357c.036.054-.274.118-.59.167-.345.054-.277.243.154.44l.986.45c.432.2.4.3-.068.232l-.4-.058a2.191,2.191,0,0,0-1.07.035c-.122.087.091.385.476.663.549.4,1.236.886,1.321.922s-1.055-.377-1.88-.677a2.349,2.349,0,0,1-1.031-.67,1.791,1.791,0,0,0-1.014-.546c-.436-.094-.809.058-.832.34s.313.658.75.842c1.111.465,3.008,1.264,3.117,1.333s-2.308-.373-3.637-.621c-.466-.087-.731.065-.591.34s-.127.444-.6.376l-1.433-.207a4.231,4.231,0,0,0-1.663.155c-.52.178-1.1.376-1.143.386s.127.227.3.441c.187.234.177.424-.031.431a1.359,1.359,0,0,1-.781-.351,3.87,3.87,0,0,1-.653-.8.38.38,0,0,0-.6-.133c-.192.168-.067.565.282.887l.385.355c.348.322.25.526-.219.456l-.068-.01a2.62,2.62,0,0,0-1.185.046c-.185.1-.188.412-.005.706s.035.457-.329.362a2.447,2.447,0,0,0-1.053-.055c-.218.064-.149.264.152.447s.321.427.045.546a1.413,1.413,0,0,1-1.186-.3l-2.325-1.757c-.378-.286-.306-.451.161-.369,1.128.2,2.989.524,3.037.518a2.459,2.459,0,0,0,.369-.394c.192-.229-.015-.559-.456-.732l-1.944-.763a11.739,11.739,0,0,0-1.642-.483l-4.37-.88a3.732,3.732,0,0,0-1.654.11l-3.78,1.3a5.214,5.214,0,0,0-1.458.846l-1.972,1.731a7.078,7.078,0,0,1-1.426.927L334.7,229.24a1.85,1.85,0,0,0-.933,1.205l-.243,1.34a1.58,1.58,0,0,0,.421,1.343,1.322,1.322,0,0,0,1.343.117c.936-.461,2.4-1.185,2.487-1.23.127-.067,1.3,2.86,1.46,3.017.08.079-.027.117-.153.134-.148.021-.125.26.053.562a.932.932,0,0,0,.877.447c.306-.054.509-.185.454-.294s.265-.315.716-.463l.067-.022a1.5,1.5,0,0,0,.936-1.118l.032-.232a1.829,1.829,0,0,1,.888-1.235l.038-.019a2.773,2.773,0,0,0,.963-.725c.108-.188-.132-.544-.535-.8l-.051-.031a1.26,1.26,0,0,1-.531-1.277,2.062,2.062,0,0,1,.969-1.2l1.239-.61c.426-.21.555-.539.288-.737s-.154-.518.25-.716a1.808,1.808,0,0,1,1.482.054.5.5,0,0,1,.053.916l-.732.53c-.384.278-.671.7-.642.942s.058.671.062.958a1.8,1.8,0,0,0,.5,1.02,1.733,1.733,0,0,0,1.342.371l2.99-.457c.469-.071.949.043,1.073.255a.509.509,0,0,1-.215.662,1.764,1.764,0,0,1-1.083.161,5.714,5.714,0,0,0-1.495,0l-.281.039c-.469.066-.842.24-.833.388s.281.394.606.55a.841.841,0,0,1,.455.889c-.074.336-.459.43-.86.21a1.435,1.435,0,0,0-1.28-.063,1.208,1.208,0,0,0-.4,1.181c.13.722.3,1.652.3,1.7a4.768,4.768,0,0,1-.923.277,1.949,1.949,0,0,1-1.276-.082,1.845,1.845,0,0,0-1.266-.045l-1.458.42a4.706,4.706,0,0,0-1.217.537,2.334,2.334,0,0,1-.41.272,4.471,4.471,0,0,1-.567-.514,1.647,1.647,0,0,0-1.38-.348l-.22.051a1.664,1.664,0,0,1-1.428-.43l-.287-.3c-.327-.344-.347-.715-.046-.829a2.071,2.071,0,0,0,.789-.527c.134-.177.078-.35-.125-.384s-.172-.236.07-.449a.962.962,0,0,0,.385-.662c-.03-.154-.425-.177-.883-.053l-.257.069a2.277,2.277,0,0,0-1.133.681,2.011,2.011,0,0,0-.125,1.3v0a5.748,5.748,0,0,1,.125,1.4c-.029.308-.426.651-.887.764l-2.287.563a2.684,2.684,0,0,0-1.333.9l-.409.573a2.43,2.43,0,0,1-1.344.853l-.376.068a1.309,1.309,0,0,0-1.007.771,1.341,1.341,0,0,1-.932.808c-.426.105-.774.351-.778.55s-.375.247-.828.106l-.355-.11c-.453-.14-.836-.049-.856.2s-.419.483-.892.515l-1.427.1c-.473.032-.91.255-.975.5s.205.648.6.905l.408.264a2.024,2.024,0,0,1,.808,1.321l.117,1.156a3.12,3.12,0,0,1-.342,1.6l-.476.826a1.523,1.523,0,0,1-1.287.694l-5.136-.3a3.674,3.674,0,0,0-1.62.346l-.111.057a.79.79,0,0,0-.429,1.026,1.566,1.566,0,0,1-.106,1.368l-2.224,3.734c-.243.408-.334.852-.2.992a1.389,1.389,0,0,1-.038,1.068l-.23.681a.5.5,0,0,0,.578.706l.985-.124c.471-.059.93.122,1.026.405a1.109,1.109,0,0,0,.759.636,3.942,3.942,0,0,0,1.42-.078l3.652-.88a3.783,3.783,0,0,0,1.457-.793l.9-.857a1.463,1.463,0,0,0,.355-1.4,1.108,1.108,0,0,1,.47-1.244L326.278,254a.654.654,0,0,0,.262-1,.725.725,0,0,1,.2-1.055,2.225,2.225,0,0,1,1.524-.333l1.14.223a2.356,2.356,0,0,0,1.553-.319l2-1.367a1.535,1.535,0,0,1,1.428-.11,2.106,2.106,0,0,1,.932,1.1c.1.35.2.7.2.728s1.186,1.222,1.94,1.972a1.514,1.514,0,0,0,1.113.5,1.87,1.87,0,0,1,1.2.4l1.458,1.067a3.645,3.645,0,0,1,1.016,1.238,1.925,1.925,0,0,1,.012,1.39,4.91,4.91,0,0,0-.28.67,1.629,1.629,0,0,0,.143.3c.089.162.445.027.791-.3l.332-.313a1.923,1.923,0,0,0,.626-.978,1.337,1.337,0,0,0-.492-.8.65.65,0,0,1-.107-.9c.188-.226.384-.443.439-.431a8.324,8.324,0,0,1,.8.558c.382.282.733.414.789.289s-.087-.437-.318-.7a4.613,4.613,0,0,0-1.192-.848l-.837-.409c-.426-.208-.736-.5-.69-.654s-.289-.293-.746-.313a1.9,1.9,0,0,1-1.313-.744l-.763-1.115a12.921,12.921,0,0,0-1.077-1.331l-.146-.153a2.374,2.374,0,0,1-.631-1.106c-.021-.268.335-.576.8-.69l.023-.006a.945.945,0,0,1,1.087.375.506.506,0,0,0,.745.269c.271-.173.6.058.724.515l.033.117a2.933,2.933,0,0,0,.768,1.27,1.3,1.3,0,0,0,.984.319,1.72,1.72,0,0,1,1.143.38l2.371,1.711c.385.278.637.584.563.684a2.481,2.481,0,0,0-.061,1.037v.006a2.516,2.516,0,0,0,.711,1.431l.815.737c.352.318.609.72.575.9-.028.15-.055.3-.055.326a10.113,10.113,0,0,0,1.264.137c.473.038.838.2.816.359a.268.268,0,0,1-.349.215.9.9,0,0,0-.651.174c-.189.141-.234.624-.1,1.08v0c.134.455.377.786.544.737a.619.619,0,0,1,.571.261.976.976,0,0,0,.746.321c.263-.015.344-.306.18-.65s-.077-.687.193-.767.319-.27.108-.423-.091-.351.268-.44.317-.352-.095-.587l-.636-.364c-.412-.235-.623-.512-.472-.617s.087-.494-.144-.868-.045-.635.415-.583a1.583,1.583,0,0,0,1.083-.179.453.453,0,0,0-.086-.607c-.186-.184.021-.477.466-.644l.166-.061a2.747,2.747,0,0,1,1.629.029h0a3.435,3.435,0,0,0,1.643.12l.58-.126a2.06,2.06,0,0,0,.99-.425c.083-.134-.058-.392-.316-.577a3.075,3.075,0,0,1-.795-1.127,2.738,2.738,0,0,1-.072-1.611l.762-2.426a2.35,2.35,0,0,1,1.022-1.211l.738-.378c.422-.216.865-.219.988-.006a1.585,1.585,0,0,0,1.054.478c.459.052.591.214.3.362a1.432,1.432,0,0,0-.571.42c-.021.084.272.231.654.329s.657.328.617.515a2.364,2.364,0,0,0-.061.34c.007.012.15.107.294.2a1.413,1.413,0,0,0,1.061-.2l.883-.458a1.869,1.869,0,0,1,1.527,0c1.59.817,5.109,2.63,5.113,2.682s.854.762,1.483,1.289a.794.794,0,0,1,.143,1.134,1.465,1.465,0,0,1-1.107.5,3.374,3.374,0,0,0-1.221.114A2.594,2.594,0,0,1,369,254.89l-2.5-.966a5.515,5.515,0,0,0-1.66-.309h-.953a3.66,3.66,0,0,0-1.6.441l-.308.184a3.4,3.4,0,0,1-1.6.409l-.638-.024c-.474-.018-.891.062-.931.178s.1.312.317.437.01.284-.46.354l-2.825.424c-.469.07-.655.414-.414.768s.558.633.71.623.434.332.631.764L358,260.868a1.785,1.785,0,0,0,1.205.916l1.423.225a1.292,1.292,0,0,0,1.167-.331c.176-.257.649-.268,1.056-.024l1.236.738a1.884,1.884,0,0,0,1.526.1l2.209-.956a.7.7,0,0,1,.99.494l.455,1.884a5.4,5.4,0,0,1,.082,1.686l-.647,4.615a.693.693,0,0,1-.935.584l-2.084-.683a2.257,2.257,0,0,0-1.569.147l-.9.5a2.325,2.325,0,0,1-1.573.162l-7.914-2.43a6.294,6.294,0,0,0-1.68-.23l-2.405.062a1.256,1.256,0,0,0-1.1.846l-.653,2.218a.679.679,0,0,1-1,.426L335.2,265.7a.541.541,0,0,1-.109-.958l.2-.17a1.7,1.7,0,0,0,.517-1.408l-.239-1.5a1.011,1.011,0,0,0-.994-.828l-9.441.219a3.571,3.571,0,0,0-1.58.488l-3.856,2.5a3.088,3.088,0,0,1-1.578.421l-2.293-.123a2.713,2.713,0,0,1-1.482-.637l-.36-.34a.589.589,0,0,0-1,.184l-.227.473a3.577,3.577,0,0,1-1.093,1.24l-2.966,1.913a4.449,4.449,0,0,0-1.169,1.2l-3.67,6.02a3.358,3.358,0,0,1-1.224,1.1l-1.794.844a3.348,3.348,0,0,0-1.223,1.1l-4.618,7.612a3.6,3.6,0,0,0-.442,1.593l.018,4.5a6.991,6.991,0,0,1-.241,1.682l-1.741,5.846a2.24,2.24,0,0,0,.194,1.562l.366.615a3.687,3.687,0,0,1,.439,1.6v1.691a2.088,2.088,0,0,0,.658,1.411l2.983,2.5a2.089,2.089,0,0,1,.658,1.411v1.708a2.042,2.042,0,0,0,.667,1.4l7.861,6.373a1.19,1.19,0,0,0,1.366.041l1.609-1.149a1.736,1.736,0,0,1,1.495-.176l2.632,1.071a2.6,2.6,0,0,0,1.6.034l7.532-2.7a1.418,1.418,0,0,1,1.4.336l2.213,2.357a1.737,1.737,0,0,0,1.431.464,29.316,29.316,0,0,1,3.442-.523c.44.028,1.326,1.612,1.835,2.6a2.513,2.513,0,0,1,.149,1.594,47.634,47.634,0,0,0-1.422,5.767c.2.145,4.42,6.373,4.621,6.548.157.137,1.834,4.3,2.548,6.08a1.488,1.488,0,0,1,.015,1.217,1.621,1.621,0,0,0-.035,1.235l.8,2.444a2.1,2.1,0,0,1-.183,1.547l-.769,1.25a6.452,6.452,0,0,0-.651,1.567l-1.054,4.4a2.425,2.425,0,0,0,.24,1.573l3.56,5.965a5.13,5.13,0,0,1,.563,1.588l.432,3a5.386,5.386,0,0,0,.548,1.6l2.764,4.837a2.424,2.424,0,0,1,.211,1.577l-.079.3a2.183,2.183,0,0,0,.262,1.545l.843,1.259a.815.815,0,0,0,1.165.2,2.953,2.953,0,0,1,.832-.453c.309-.058,3.062-.136,4.494-.173a2.6,2.6,0,0,0,1.484-.611l7.233-6.821a2.033,2.033,0,0,0,.534-1.444c-.038-.6-.016-1.3.286-1.335a22.448,22.448,0,0,0,4.53-2.321c0-.159.118-2.994.179-4.457a2.088,2.088,0,0,1,.716-1.382l3.31-2.549a15.043,15.043,0,0,1,1.427-.95L374.8,354.6a2.208,2.208,0,0,0,.93-1.265l1.621-7.388a2.217,2.217,0,0,0-.192-1.437,3.123,3.123,0,0,1-.364-1.457l.081-5.576a3.264,3.264,0,0,1,.506-1.562l2.879-4.1a11.188,11.188,0,0,1,1.108-1.3l9.4-9.186a4.127,4.127,0,0,0,.88-1.418l4.463-13.774c.146-.451-.1-.695-.549-.543l-8.251,2.78a1.413,1.413,0,0,1-1.388-.365l-.732-.815a1.805,1.805,0,0,1-.364-1.473l.151-.6a1.6,1.6,0,0,0-.421-1.417l-4.139-3.83a4.229,4.229,0,0,1-.927-1.39l-1.544-4.205a3.11,3.11,0,0,0-1.007-1.287l-.13-.088a2.4,2.4,0,0,1-.88-1.324l-.916-4.584a2.473,2.473,0,0,0-.871-1.337l-.907-.638a3.98,3.98,0,0,1-1.082-1.265l-3.133-6.367a1.3,1.3,0,0,1,.221-1.386l.654-.671a.619.619,0,0,1,1.032.128L374.4,281.4a2.573,2.573,0,0,0,1.2,1,1.734,1.734,0,0,1,.984,1.088l1.061,3.977a4.944,4.944,0,0,0,.754,1.5l5.593,7.081a3.9,3.9,0,0,1,.668,1.522l.641,3.995a2.732,2.732,0,0,0,.786,1.409l.27.233a1.416,1.416,0,0,0,1.423.187l6.719-3.256a3.312,3.312,0,0,0,1.207-1.116l.916-1.567a1.837,1.837,0,0,1,1.29-.808l1.647-.127a1.419,1.419,0,0,0,1.137-.878l3.07-8.882a1.317,1.317,0,0,0-.386-1.354l-2.695-2.191a5,5,0,0,1-1.067-1.3l-.88-1.672c-.221-.42-.583-.422-.808,0l-.929,1.72a1.612,1.612,0,0,1-1.267.768l-.963.013a1.93,1.93,0,0,1-1.382-.67l-6.571-8.556a.571.571,0,0,1,.293-.95l.281-.093a1.8,1.8,0,0,1,1.495.257l6.83,5.294a1.4,1.4,0,0,0,1.428.106l.547-.307a1.082,1.082,0,0,1,1.3.236l1.152,1.365a2.931,2.931,0,0,0,1.394.837l3.832.823a5.239,5.239,0,0,0,1.686.03l2-.355a1.553,1.553,0,0,1,1.37.53l2.723,3.536a2.618,2.618,0,0,1,.495,1.448,2.307,2.307,0,0,0,.545,1.406l.949,1.054a.641.641,0,0,0,1.057-.073l.493-.729c.266-.393.576-.339.693.121l3.577,14.114,1.61,8.773a2,2,0,0,0,.591,1.14c.241.163.6-.053.8-.482l1.208-2.551a3.86,3.86,0,0,0,.306-1.633l-.554-7.668a3.268,3.268,0,0,1,.369-1.6l.4-.7a5.437,5.437,0,0,0,.561-1.592l1.159-7.552a2.836,2.836,0,0,1,.764-1.429l.526-.481a.488.488,0,0,1,.868.246l1.045,3.678a4.733,4.733,0,0,0,.79,1.482l.071.084a2.72,2.72,0,0,1,.555,1.515v3.436a.8.8,0,0,0,.7.866,1.061,1.061,0,0,1,.9.843l1.027,4.323C434.766,303.327,434.849,303.317,434.836,302.843Z" transform="translate(-252.371 -217.222)" fill="#e6f5ff"/>
          </g>
        </g>
        <g id="Group_344" data-name="Group 344" transform="translate(0)">
          <circle id="Ellipse_20" data-name="Ellipse 20" cx="91.27" cy="91.27" r="91.27" fill="none"/>
        </g>
        <g id="Group_345" data-name="Group 345" opacity="0.85">
          <line id="Line_40" data-name="Line 40" y2="182.539" transform="translate(91.27)" fill="none" stroke="#fff" stroke-linecap="round" stroke-linejoin="round" stroke-width="4.5"/>
          <path id="Path_272" data-name="Path 272" d="M344.726,390.477c-25.025-8.832-50.051-47.106-50.051-91.269s25.026-82.437,50.051-91.269" transform="translate(-253.457 -207.938)" fill="none" stroke="#fff" stroke-linecap="round" stroke-linejoin="round" stroke-width="4.5"/>
          <path id="Path_273" data-name="Path 273" d="M390.477,400H207.938" transform="translate(-207.938 -308.73)" fill="none" stroke="#fff" stroke-linecap="round" stroke-linejoin="round" stroke-width="4.5"/>
          <path id="Path_274" data-name="Path 274" d="M400,390.477c25.025-8.832,50.051-47.106,50.051-91.269S425.025,216.77,400,207.938" transform="translate(-308.73 -207.938)" fill="none" stroke="#fff" stroke-linecap="round" stroke-linejoin="round" stroke-width="4.5"/>
          <path id="Path_275" data-name="Path 275" d="M392.767,275.142c-17.659,11.18-42.19,18.115-69.322,18.115s-51.663-6.935-69.322-18.115" transform="translate(-232.175 -243.206)" fill="none" stroke="#fff" stroke-linecap="round" stroke-linejoin="round" stroke-width="4.5"/>
          <path id="Path_276" data-name="Path 276" d="M392.767,504.852c-17.659-11.18-42.19-18.115-69.322-18.115s-51.663,6.935-69.322,18.115" transform="translate(-232.175 -354.249)" fill="none" stroke="#fff" stroke-linecap="round" stroke-linejoin="round" stroke-width="4.5"/>
          <circle id="Ellipse_21" data-name="Ellipse 21" cx="91.27" cy="91.27" r="91.27" transform="translate(0)" fill="none" stroke="#fff" stroke-linecap="round" stroke-linejoin="round" stroke-width="4.5"/>
        </g>
        <path id="Path_277" data-name="Path 277" d="M375.754,247.766A91.267,91.267,0,0,1,247.767,375.754,91.268,91.268,0,1,0,375.754,247.766Z" transform="translate(-228.84 -228.839)" fill="#c7dff0" style="mix-blend-mode: multiply;isolation: isolate"/>
        <circle id="Ellipse_22" data-name="Ellipse 22" cx="91.27" cy="91.27" r="91.27" transform="translate(0)" fill="none" stroke="#333" stroke-linecap="round" stroke-linejoin="round" stroke-width="4.5"/>
      </g>
      <g id="Group_348" data-name="Group 348" transform="translate(47.761 34.977)">
        <g id="Group_347" data-name="Group 347" clip-path="url(#clip-path)">
          <path id="Path_278" data-name="Path 278" d="M144.428,450.324l.513-3.29a21.589,21.589,0,0,1,19.946-18.305,27.889,27.889,0,0,1,49.554-13.32A28.586,28.586,0,0,1,247.558,447.9l-.37,2.421Z" transform="translate(-174.608 -311.217)" fill="#dfdfdf" style="mix-blend-mode: multiply;isolation: isolate"/>
          <path id="Path_279" data-name="Path 279" d="M422.841,305.445l.513-3.29a20.135,20.135,0,0,1,18.426-17.061,25.949,25.949,0,0,1,46-12.319,26.593,26.593,0,0,1,30.678,30.25l-.37,2.42Z" transform="translate(-320.717 -236.808)" fill="#dfdfdf" style="mix-blend-mode: multiply;isolation: isolate"/>
          <path id="Path_280" data-name="Path 280" d="M357.134,204.476c-1.432-1.357-35.078-33.517-35.078-58.39a37.04,37.04,0,1,1,74.079,0c0,24.872-33.646,57.033-35.079,58.39l-1.961,1.858ZM359.1,131.7a14.317,14.317,0,1,0,14.317,14.317A14.333,14.333,0,0,0,359.1,131.7Z" transform="translate(-267.826 -156.04)" fill="#dfdfdf" style="mix-blend-mode: multiply;isolation: isolate"/>
        </g>
      </g>
      <g id="Group_349" data-name="Group 349" transform="translate(136.57 69.824)">
        <path id="Path_281" data-name="Path 281" d="M519.589,302.13a23.723,23.723,0,0,0-29.347-23.049,23.1,23.1,0,0,0-42.189,11.982c-.332-.019-.666-.031-1-.031a17.415,17.415,0,0,0-17.2,14.709h89.467A23.875,23.875,0,0,0,519.589,302.13Z" transform="translate(-410.728 -268.95)" fill="#fff"/>
        <path id="Path_282" data-name="Path 282" d="M544.618,290.258a23.7,23.7,0,0,0-11.153,6.278" transform="translate(-465.105 -280.132)" fill="none" stroke="#333" stroke-linecap="round" stroke-linejoin="round" stroke-width="4.5"/>
        <path id="Path_283" data-name="Path 283" d="M519.589,302.13a23.723,23.723,0,0,0-29.347-23.049,23.1,23.1,0,0,0-42.189,11.982c-.332-.019-.666-.031-1-.031a17.415,17.415,0,0,0-17.2,14.709h89.467A23.875,23.875,0,0,0,519.589,302.13Z" transform="translate(-410.728 -268.95)" fill="none" stroke="#333" stroke-linecap="round" stroke-linejoin="round" stroke-width="4.5"/>
        <line id="Line_41" data-name="Line 41" x2="104.046" transform="translate(9.164 36.792)" fill="none" stroke="#333" stroke-linecap="round" stroke-linejoin="round" stroke-width="4.5"/>
        <line id="Line_42" data-name="Line 42" x1="6.401" transform="translate(0 36.792)" fill="none" stroke="#333" stroke-linecap="round" stroke-linejoin="round" stroke-width="4.5"/>
        <line id="Line_43" data-name="Line 43" x1="5.106" transform="translate(116.494 36.792)" fill="none" stroke="#333" stroke-linecap="round" stroke-linejoin="round" stroke-width="4.5"/>
        <path id="Path_284" data-name="Path 284" d="M530.774,279.081a23.926,23.926,0,0,1,2.914-.518,23.065,23.065,0,0,0-18.752-9.613c-.541,0-1.075.025-1.607.062A23.078,23.078,0,0,1,530.774,279.081Z" transform="translate(-454.538 -268.95)" fill="#dfdfdf" style="mix-blend-mode: multiply;isolation: isolate"/>
        <path id="Path_285" data-name="Path 285" d="M566.931,288.847c-.56,0-1.114.022-1.663.061A23.74,23.74,0,0,1,587.1,316.184h3.278a23.745,23.745,0,0,0-23.452-27.337Z" transform="translate(-481.795 -279.392)" fill="#dfdfdf" style="mix-blend-mode: multiply;isolation: isolate"/>
      </g>
      <g id="Group_350" data-name="Group 350" transform="translate(0 134.053)">
        <path id="Path_286" data-name="Path 286" d="M248.713,446.706A25.717,25.717,0,0,0,216.9,421.722a25.035,25.035,0,0,0-45.732,12.989c-.36-.021-.722-.034-1.088-.034a18.877,18.877,0,0,0-18.646,15.945h96.981A25.937,25.937,0,0,0,248.713,446.706Z" transform="translate(-133.17 -410.739)" fill="#fff"/>
        <path id="Path_287" data-name="Path 287" d="M275.843,433.837a25.68,25.68,0,0,0-12.089,6.806" transform="translate(-192.114 -422.861)" fill="none" stroke="#333" stroke-linecap="round" stroke-linejoin="round" stroke-width="4.5"/>
        <path id="Path_288" data-name="Path 288" d="M248.713,446.706A25.717,25.717,0,0,0,216.9,421.722a25.035,25.035,0,0,0-45.732,12.989c-.36-.021-.722-.034-1.088-.034a18.877,18.877,0,0,0-18.646,15.945h96.981A25.937,25.937,0,0,0,248.713,446.706Z" transform="translate(-133.17 -410.739)" fill="none" stroke="#333" stroke-linecap="round" stroke-linejoin="round" stroke-width="4.5"/>
        <line id="Line_44" data-name="Line 44" x2="109.168" transform="translate(11.088 39.882)" fill="none" stroke="#333" stroke-linecap="round" stroke-linejoin="round" stroke-width="4.5"/>
        <line id="Line_45" data-name="Line 45" x1="6.653" transform="translate(0 39.882)" fill="none" stroke="#333" stroke-linecap="round" stroke-linejoin="round" stroke-width="4.5"/>
        <line id="Line_46" data-name="Line 46" x1="6.73" transform="translate(123.817 39.882)" fill="none" stroke="#333" stroke-linecap="round" stroke-linejoin="round" stroke-width="4.5"/>
        <path id="Path_289" data-name="Path 289" d="M260.836,421.722a26,26,0,0,1,3.159-.563,25,25,0,0,0-20.327-10.42c-.586,0-1.166.028-1.742.067A25.016,25.016,0,0,1,260.836,421.722Z" transform="translate(-180.659 -410.739)" fill="#dfdfdf" style="mix-blend-mode: multiply;isolation: isolate"/>
        <path id="Path_290" data-name="Path 290" d="M300.03,432.308c-.606,0-1.207.024-1.8.066A25.735,25.735,0,0,1,321.9,461.941h3.554a25.74,25.74,0,0,0-25.422-29.633Z" transform="translate(-210.206 -422.058)" fill="#dfdfdf" style="mix-blend-mode: multiply;isolation: isolate"/>
      </g>
      <g id="Group_351" data-name="Group 351" transform="translate(104.794)">
        <path id="Path_291" data-name="Path 291" d="M396.433,149.235c0,23.932-34.188,56.32-34.188,56.32s-34.188-32.388-34.188-56.32a34.188,34.188,0,1,1,68.377,0Zm-51.357-.071A17.168,17.168,0,1,0,362.244,132,17.168,17.168,0,0,0,345.076,149.164Z" transform="translate(-328.056 -115.046)" fill="#af9cda"/>
        <path id="Path_292" data-name="Path 292" d="M395.92,115.046c-.985,0-1.956.051-2.92.133,17.568,1.483,31.842,13.039,31.842,34.055,0,19.491-23.787,44.139-32.617,52.617,2.268,2.352,3.694,3.7,3.694,3.7s34.188-32.388,34.188-56.32A34.189,34.189,0,0,0,395.92,115.046Z" transform="translate(-361.732 -115.046)" fill="#f2bfba" style="mix-blend-mode: multiply;isolation: isolate"/>
        <path id="Path_293" data-name="Path 293" d="M396.433,149.235c0,23.932-34.188,56.32-34.188,56.32s-34.188-32.388-34.188-56.32a34.188,34.188,0,1,1,68.377,0Zm-51.357-.071A17.168,17.168,0,1,0,362.244,132,17.168,17.168,0,0,0,345.076,149.164Z" transform="translate(-328.056 -115.046)" fill="none" stroke="#333" stroke-linecap="round" stroke-linejoin="round" stroke-width="4.5"/>
        <path id="Path_294" data-name="Path 294" d="M338.957,156.584a29.06,29.06,0,0,1,19.868-27.533" transform="translate(-333.777 -122.396)" fill="none" stroke="#fff" stroke-linecap="round" stroke-linejoin="round" stroke-width="4.5" opacity="0.85"/>
      </g>
    </g>
  </g>
  <line id="Line_47" data-name="Line 47" x2="308" transform="translate(27.007 340)" fill="none" stroke="#707070" stroke-width="1" opacity="0.473"/>
</svg>
