<svg id="profil" xmlns="http://www.w3.org/2000/svg" xmlns:xlink="http://www.w3.org/1999/xlink" width="360" height="340.5" viewBox="0 0 360 340.5">
  <defs>
    <clipPath id="clip-path">
      <circle id="Ellipse_23" data-name="Ellipse 23" cx="91.27" cy="91.27" r="91.27" fill="none"/>
    </clipPath>
    <clipPath id="clip-path-2">
      <circle id="Ellipse_24" data-name="Ellipse 24" cx="91.27" cy="91.27" r="91.27" transform="translate(97.76 206.977)" fill="#92cef8"/>
    </clipPath>
  </defs>
  <path id="Subtraction_1" data-name="Subtraction 1" d="M269.135,259H39.95A155.182,155.182,0,0,1,94.388,12.181,153.436,153.436,0,0,1,123.4,3.149a155.6,155.6,0,0,1,62.292,0,153.454,153.454,0,0,1,55.26,23.323A155.174,155.174,0,0,1,269.136,259Z" transform="translate(26.507 80.999)" fill="#abd8fe" opacity="0.211"/>
  <path id="Path_62" data-name="Path 62" d="M1198.4,936.259a3.857,3.857,0,1,1-3.856-3.857A3.862,3.862,0,0,1,1198.4,936.259Zm-1.911,0a1.946,1.946,0,1,0-1.945,1.946A1.948,1.948,0,0,0,1196.484,936.259Z" transform="translate(-882.194 -747.531)" fill="#91a8f6"/>
  <g id="Group_252" data-name="Group 252" transform="translate(325.02 45.544)">
    <path id="Path_63" data-name="Path 63" d="M1263.238,795.026h-21.846a.956.956,0,1,0,0,1.911h21.846a.956.956,0,1,0,0-1.911Z" transform="translate(-1229.214 -795.022)" fill="#91a8f6"/>
    <path id="Path_64" data-name="Path 64" d="M1234.439,795.022h-4.269a.956.956,0,1,0,0,1.911h4.269a.956.956,0,0,0,0-1.911Z" transform="translate(-1229.214 -795.022)" fill="#91a8f6"/>
    <path id="Path_65" data-name="Path 65" d="M1252.974,802.638a.957.957,0,0,1-.956.956h-2.732a.956.956,0,1,1,0-1.912h2.732A.956.956,0,0,1,1252.974,802.638Zm-7.511,0a.957.957,0,0,1-.956.956h-4.779a.956.956,0,0,1,0-1.912h4.779A.956.956,0,0,1,1245.463,802.638Zm-9.557,0a.957.957,0,0,1-.956.956h-4.779a.956.956,0,0,1,0-1.912h4.779A.956.956,0,0,1,1235.906,802.638Z" transform="translate(-1229.214 -795.022)" fill="#91a8f6"/>
  </g>
  <g id="Group_253" data-name="Group 253" transform="translate(21.834 103.726)">
    <path id="Path_66" data-name="Path 66" d="M908.787,858.918a.957.957,0,0,0-.956.956v2.216a.956.956,0,0,0,1.912,0v-2.216A.956.956,0,0,0,908.787,858.918Z" transform="translate(-903.113 -852.101)" fill="#91a8f6"/>
    <path id="Path_67" data-name="Path 67" d="M906.286,856.694h-2.217a.956.956,0,1,0,0,1.911h2.217a.956.956,0,1,0,0-1.911Z" transform="translate(-903.113 -852.101)" fill="#91a8f6"/>
    <path id="Path_68" data-name="Path 68" d="M908.787,852.1a.957.957,0,0,0-.956.956v2.216a.956.956,0,0,0,1.912,0v-2.216A.956.956,0,0,0,908.787,852.1Z" transform="translate(-903.113 -852.101)" fill="#91a8f6"/>
    <path id="Path_69" data-name="Path 69" d="M913.506,856.542h-2.218a.956.956,0,0,0,0,1.911h2.218a.956.956,0,1,0,0-1.911Z" transform="translate(-903.113 -852.101)" fill="#91a8f6"/>
  </g>
  <g id="Group_254" data-name="Group 254" transform="translate(261.549 40.659)">
    <path id="Path_70" data-name="Path 70" d="M1149.188,796.954a.956.956,0,0,0-.956.955v2.217a.956.956,0,1,0,1.912,0v-2.217A.956.956,0,0,0,1149.188,796.954Z" transform="translate(-1143.514 -790.137)" fill="#91a8f6"/>
    <path id="Path_71" data-name="Path 71" d="M1146.687,794.73h-2.217a.956.956,0,1,0,0,1.911h2.217a.956.956,0,0,0,0-1.911Z" transform="translate(-1143.514 -790.137)" fill="#91a8f6"/>
    <path id="Path_72" data-name="Path 72" d="M1149.188,790.137a.957.957,0,0,0-.956.956v2.215a.956.956,0,1,0,1.912,0v-2.215A.956.956,0,0,0,1149.188,790.137Z" transform="translate(-1143.514 -790.137)" fill="#91a8f6"/>
    <path id="Path_73" data-name="Path 73" d="M1153.907,794.578h-2.218a.956.956,0,0,0,0,1.911h2.218a.956.956,0,1,0,0-1.911Z" transform="translate(-1143.514 -790.137)" fill="#91a8f6"/>
  </g>
  <g id="Group_255" data-name="Group 255" transform="translate(144.373)">
    <path id="Path_74" data-name="Path 74" d="M1060.082,749.482h-21.847a.956.956,0,0,0,0,1.911h21.847a.956.956,0,1,0,0-1.911Z" transform="translate(-1026.058 -749.478)" fill="#91a8f6"/>
    <path id="Path_75" data-name="Path 75" d="M1031.283,749.478h-4.27a.955.955,0,0,0,0,1.911h4.27a.955.955,0,0,0,0-1.911Z" transform="translate(-1026.058 -749.478)" fill="#91a8f6"/>
    <path id="Path_76" data-name="Path 76" d="M1049.818,757.093a.956.956,0,0,1-.956.956h-2.732a.956.956,0,1,1,0-1.911h2.732A.956.956,0,0,1,1049.818,757.093Zm-7.511,0a.956.956,0,0,1-.956.956h-4.779a.956.956,0,0,1,0-1.911h4.779A.956.956,0,0,1,1042.307,757.093Zm-9.557,0a.956.956,0,0,1-.956.956h-4.779a.956.956,0,0,1,0-1.911h4.779A.956.956,0,0,1,1032.75,757.093Z" transform="translate(-1026.058 -749.478)" fill="#91a8f6"/>
  </g>
  <path id="Path_81" data-name="Path 81" d="M972.308,773.157s1.3,9.31-9.57,9.1c0,0,9.341.095,9.1,8.831,0,0,.84-6.872,9.412-8.407C981.246,782.676,974,784.338,972.308,773.157Z" transform="translate(-881.497 -749.478)" fill="#91a8f6"/>
  <path id="Path_82" data-name="Path 82" d="M878.7,798.868s1.3,9.31-9.57,9.1c0,0,9.341.095,9.1,8.831,0,0,.841-6.872,9.412-8.407C887.633,808.387,880.39,810.048,878.7,798.868Z" transform="translate(-869.126 -749.038)" fill="#91a8f6"/>
  <path id="Path_83" data-name="Path 83" d="M935.436,759.077s.454,3.245-3.336,3.171c0,0,3.257.033,3.169,3.078a3.7,3.7,0,0,1,3.281-2.931S936.026,762.974,935.436,759.077Z" transform="translate(-881.279 -749.478)" fill="#91a8f6"/>
  <path id="Path_84" data-name="Path 84" d="M1105.727,870.947s.454,3.245-3.336,3.171c0,0,3.257.033,3.169,3.078a3.7,3.7,0,0,1,3.281-2.931S1106.317,874.844,1105.727,870.947Z" transform="translate(-881.85 -748.191)" fill="#91a8f6"/>
  <g id="Group_257" data-name="Group 257" transform="translate(7.091 166.594)">
    <path id="Path_86" data-name="Path 86" d="M944.505,961.592H923.292a4.921,4.921,0,0,1-.157-9.84,7.616,7.616,0,0,1,13.995-4.03,5.525,5.525,0,0,1,6.135,4.027h1.24a4.921,4.921,0,1,1,0,9.843Zm-21.213-8.386a3.465,3.465,0,1,0,0,6.93h21.213a3.465,3.465,0,0,0,0-6.93h-2.448l-.1-.614a4.07,4.07,0,0,0-5.021-3.352l-.536.128-.269-.482a6.16,6.16,0,0,0-11.543,3c0,.18.012.357.027.533l.068.791Z" transform="translate(-918.37 -944.265)" fill="#91a8f6"/>
  </g>
  <g id="Group_259" data-name="Group 259" transform="translate(86.823 70.183)">
    <path id="Path_88" data-name="Path 88" d="M994.479,836.228H973.265a4.921,4.921,0,0,1-.157-9.84,7.616,7.616,0,0,1,14-4.03,5.527,5.527,0,0,1,6.134,4.027h1.241a4.922,4.922,0,0,1,0,9.843Zm-21.214-8.386a3.465,3.465,0,1,0,0,6.93h21.214a3.465,3.465,0,0,0,0-6.93H992.03l-.1-.614a4.072,4.072,0,0,0-5.021-3.352l-.536.128-.269-.481a6.16,6.16,0,0,0-11.544,2.995c0,.18.013.357.028.533l.067.791Z" transform="translate(-968.344 -818.9)" fill="#91a8f6"/>
  </g>
  <g id="Group_276" data-name="Group 276" transform="translate(165.362 33.652)">
    <g id="Group_272" data-name="Group 272" transform="translate(128.794 56.789)">
      <g id="Group_271" data-name="Group 271">
        <g id="Group_270" data-name="Group 270">
          <g id="Group_269" data-name="Group 269">
            <path id="Path_93" data-name="Path 93" d="M1178.726,844.673h59.408a2.377,2.377,0,0,0,0-4.754h-59.408a2.377,2.377,0,0,0,0,4.754Z" transform="translate(-1176.35 -839.919)" fill="#91a8f6"/>
          </g>
        </g>
      </g>
    </g>
    <g id="Group_275" data-name="Group 275">
      <g id="Group_274" data-name="Group 274">
        <g id="Group_273" data-name="Group 273">
          <path id="Path_94" data-name="Path 94" d="M1078.525,844.082a31.416,31.416,0,0,1-6.319-.643,1.569,1.569,0,0,1-1.22-1.852,1.592,1.592,0,0,1,1.853-1.22,28.359,28.359,0,0,0,9.84.273,1.568,1.568,0,1,1,.464,3.1A31.5,31.5,0,0,1,1078.525,844.082Zm14.229-3.661a1.569,1.569,0,0,1-.763-2.942,27.831,27.831,0,0,0,7.636-6.21,1.566,1.566,0,0,1,2.372,2.046,31.043,31.043,0,0,1-8.488,6.909A1.569,1.569,0,0,1,1092.754,840.421Zm13.345-15.509a1.594,1.594,0,0,1-.546-.1,1.568,1.568,0,0,1-.923-2.015,27.736,27.736,0,0,0,1.732-9.685,1.566,1.566,0,0,1,3.133,0,30.864,30.864,0,0,1-1.926,10.777A1.573,1.573,0,0,1,1106.1,824.912Zm-55.676-1.557a1.565,1.565,0,0,1-1.5-1.107,31.007,31.007,0,0,1-1.37-9.133c0-.585.015-1.161.048-1.735a1.6,1.6,0,0,1,1.653-1.475,1.565,1.565,0,0,1,1.475,1.653c-.028.513-.043,1.034-.043,1.554a27.976,27.976,0,0,0,1.232,8.213,1.567,1.567,0,0,1-1.036,1.959A1.544,1.544,0,0,1,1050.423,823.355Zm56.643-15.766a1.566,1.566,0,0,1-1.52-1.192,27.625,27.625,0,0,0-4.026-8.975,1.568,1.568,0,1,1,2.587-1.771,30.719,30.719,0,0,1,4.48,9.991,1.565,1.565,0,0,1-1.143,1.9A1.514,1.514,0,0,1,1107.066,807.589Zm-11.542-16.9a1.545,1.545,0,0,1-.905-.289,27.6,27.6,0,0,0-8.9-4.184,1.568,1.568,0,1,1,.806-3.031,30.728,30.728,0,0,1,9.909,4.659,1.567,1.567,0,0,1-.911,2.845Z" transform="translate(-1047.556 -783.13)" fill="#445eea"/>
        </g>
      </g>
    </g>
  </g>
  <text id="_" data-name="
" transform="translate(335.592 262)" fill="#000759" font-size="13" font-family="Poppins-Medium, Poppins" font-weight="500"><tspan x="0" y="0"></tspan><tspan x="0" y="40"></tspan></text>
  <g id="Group_384" data-name="Group 384" transform="translate(-68.609 -683.173)">
    <g id="Group_290" data-name="Group 290" transform="translate(112.116 777.673)">
      <g id="Group_287" data-name="Group 287" transform="translate(10.62)" opacity="0.41">
        <g id="Group_286" data-name="Group 286">
          <path id="Path_99" data-name="Path 99" d="M388.406,924.466a79.235,79.235,0,0,0-.362-13.482c-2.376-21.01-13.137-40.821-28.974-54.8-5.649-4.987-12.078-9.455-15.756-16.038-6.192-11.086-5.723-23.827-13.408-34.772a65.022,65.022,0,0,0-31.552-23.894c-37.7-13.086-90.486,8.221-85.733,53.723.017.163.035.4.056.7a16.552,16.552,0,0,1-16.2,17.622c-34.785.827-64.728,27.692-71.134,61.722-4.12,21.884,2.626,45.872,18.608,61.354,11.93,11.557,27.936,17.906,43.95,22.268,32.108,8.747,65.9,10.58,99,7.236,30.99-3.131,63.679-12.055,83.721-35.938A78.5,78.5,0,0,0,388.406,924.466Z" transform="translate(-124.16 -777.673)" fill="#c5d9ff"/>
        </g>
      </g>
      <circle id="Ellipse_14" data-name="Ellipse 14" cx="8.693" cy="8.693" r="8.693" transform="matrix(0.231, -0.973, 0.973, 0.231, 248.079, 41.075)" fill="#c5d9ff" opacity="0.31"/>
      <circle id="Ellipse_15" data-name="Ellipse 15" cx="10.08" cy="10.08" r="10.08" transform="translate(57.78 24.543) rotate(-45)" fill="#c5d9ff" opacity="0.31"/>
      <circle id="Ellipse_16" data-name="Ellipse 16" cx="13.018" cy="13.018" r="13.018" transform="translate(0 200.535)" fill="#c5d9ff" opacity="0.31"/>
    </g>
  </g>
  <line id="Line_47" data-name="Line 47" x2="308" transform="translate(27.007 340)" fill="none" stroke="#707070" stroke-width="1" opacity="0.473"/>
  <line id="Line_47-2" data-name="Line 47" x2="308" transform="translate(27.007 340)" fill="none" stroke="#707070" stroke-width="1" opacity="0.473"/>
  <g id="Group_389" data-name="Group 389" transform="translate(43.507 88.5)">
    <g id="Group_339" data-name="Group 339" transform="translate(171.68 165.892)">
      <g id="Group_338" data-name="Group 338">
        <path id="Path_248" data-name="Path 248" d="M566.764,506.44a18.849,18.849,0,0,0-23.317-18.313,18.35,18.35,0,0,0-33.519,9.52c-.264-.015-.529-.024-.8-.024a13.836,13.836,0,0,0-13.667,11.687h71.084A19.048,19.048,0,0,0,566.764,506.44Z" transform="translate(-480.272 -480.077)" fill="#fff"/>
        <path id="Path_249" data-name="Path 249" d="M586.65,497.007A18.827,18.827,0,0,0,577.789,502" transform="translate(-523.476 -488.962)" fill="none" stroke="#333" stroke-linecap="round" stroke-linejoin="round" stroke-width="4.5"/>
        <path id="Path_250" data-name="Path 250" d="M566.764,506.44a18.849,18.849,0,0,0-23.317-18.313,18.35,18.35,0,0,0-33.519,9.52c-.264-.015-.529-.024-.8-.024a13.836,13.836,0,0,0-13.667,11.687h71.084A19.048,19.048,0,0,0,566.764,506.44Z" transform="translate(-480.272 -480.077)" fill="none" stroke="#333" stroke-linecap="round" stroke-linejoin="round" stroke-width="4.5"/>
        <line id="Line_37" data-name="Line 37" x2="82.666" transform="translate(7.281 29.232)" fill="none" stroke="#333" stroke-linecap="round" stroke-linejoin="round" stroke-width="4.5"/>
        <line id="Line_38" data-name="Line 38" x1="5.086" transform="translate(0 29.232)" fill="none" stroke="#333" stroke-linecap="round" stroke-linejoin="round" stroke-width="4.5"/>
        <line id="Line_39" data-name="Line 39" x1="9.187" transform="translate(94.133 29.232)" fill="none" stroke="#333" stroke-linecap="round" stroke-linejoin="round" stroke-width="4.5"/>
        <path id="Path_251" data-name="Path 251" d="M575.651,488.127a19.066,19.066,0,0,1,2.315-.412,18.326,18.326,0,0,0-14.9-7.638c-.43,0-.854.02-1.276.049A18.338,18.338,0,0,1,575.651,488.127Z" transform="translate(-515.08 -480.077)" fill="#dfdfdf" style="mix-blend-mode: multiply;isolation: isolate"/>
        <path id="Path_252" data-name="Path 252" d="M604.378,495.886c-.445,0-.885.018-1.321.048a18.862,18.862,0,0,1,17.35,21.671h2.6a19.047,19.047,0,0,0,.217-2.87A18.85,18.85,0,0,0,604.378,495.886Z" transform="translate(-536.736 -488.373)" fill="#dfdfdf" style="mix-blend-mode: multiply;isolation: isolate"/>
      </g>
      <path id="Path_253" data-name="Path 253" d="M535.5,481.568a18.34,18.34,0,0,0-25.567,16.079c-.264-.015-.53-.024-.8-.024a13.836,13.836,0,0,0-13.667,11.687h20.368A94.538,94.538,0,0,0,535.5,481.568Z" transform="translate(-480.272 -480.077)" fill="#dfdfdf" style="mix-blend-mode: multiply;isolation: isolate"/>
    </g>
    <g id="Group_340" data-name="Group 340" transform="translate(32.631 31.245)">
      <path id="Path_254" data-name="Path 254" d="M547.733,316.109a103.918,103.918,0,0,0-59.869-116.025" transform="translate(-337.235 -200.084)" fill="none" stroke="#333" stroke-linecap="round" stroke-linejoin="round" stroke-width="4.5"/>
      <path id="Path_255" data-name="Path 255" d="M607.23,462.227q1-2.994,1.812-6.068" transform="translate(-399.878 -334.47)" fill="none" stroke="#333" stroke-linecap="round" stroke-linejoin="round" stroke-width="4.5"/>
      <path id="Path_256" data-name="Path 256" d="M232.332,539.854a109.662,109.662,0,0,0,158.111,6.958" transform="translate(-208.256 -378.392)" fill="none" stroke="#333" stroke-linecap="round" stroke-linejoin="round" stroke-width="4.5"/>
      <path id="Path_257" data-name="Path 257" d="M216.219,517.922q2.113,3.286,4.462,6.4" transform="translate(-199.8 -366.883)" fill="none" stroke="#333" stroke-linecap="round" stroke-linejoin="round" stroke-width="4.5"/>
      <path id="Path_258" data-name="Path 258" d="M231.166,213.878a103.915,103.915,0,0,0-48.533,102.665" transform="translate(-181.667 -207.323)" fill="none" stroke="#333" stroke-linecap="round" stroke-linejoin="round" stroke-width="4.5"/>
      <path id="Path_259" data-name="Path 259" d="M303.75,200.084q-3.883,1.709-7.593,3.72" transform="translate(-240.357 -200.084)" fill="none" stroke="#333" stroke-linecap="round" stroke-linejoin="round" stroke-width="4.5"/>
    </g>
    <g id="Group_346" data-name="Group 346" transform="translate(47.76 34.977)">
      <g id="Group_341" data-name="Group 341" transform="translate(0)">
        <circle id="Ellipse_19" data-name="Ellipse 19" cx="91.27" cy="91.27" r="91.27" fill="#92cef8"/>
      </g>
      <g id="Group_344" data-name="Group 344" transform="translate(0)">
        <circle id="Ellipse_20" data-name="Ellipse 20" cx="91.27" cy="91.27" r="91.27" fill="none"/>
      </g>
      <path id="Path_277" data-name="Path 277" d="M375.754,247.766A91.267,91.267,0,0,1,247.767,375.754,91.268,91.268,0,1,0,375.754,247.766Z" transform="translate(-228.84 -228.839)" fill="#c7dff0" style="mix-blend-mode: multiply;isolation: isolate"/>
      <circle id="Ellipse_22" data-name="Ellipse 22" cx="91.27" cy="91.27" r="91.27" transform="translate(0)" fill="none" stroke="#333" stroke-linecap="round" stroke-linejoin="round" stroke-width="4.5"/>
    </g>
    <g id="Group_348" data-name="Group 348" transform="translate(47.761 34.977)">
      <g id="Group_347" data-name="Group 347" clip-path="url(#clip-path)">
        <path id="Path_278" data-name="Path 278" d="M144.428,450.324l.513-3.29a21.589,21.589,0,0,1,19.946-18.305,27.889,27.889,0,0,1,49.554-13.32A28.586,28.586,0,0,1,247.558,447.9l-.37,2.421Z" transform="translate(-174.608 -311.217)" fill="#dfdfdf" style="mix-blend-mode: multiply;isolation: isolate"/>
      </g>
    </g>
    <g id="Group_350" data-name="Group 350" transform="translate(0 134.053)">
      <path id="Path_286" data-name="Path 286" d="M248.713,446.706A25.717,25.717,0,0,0,216.9,421.722a25.035,25.035,0,0,0-45.732,12.989c-.36-.021-.722-.034-1.088-.034a18.877,18.877,0,0,0-18.646,15.945h96.981A25.937,25.937,0,0,0,248.713,446.706Z" transform="translate(-133.17 -410.739)" fill="#fff"/>
      <path id="Path_287" data-name="Path 287" d="M275.843,433.837a25.68,25.68,0,0,0-12.089,6.806" transform="translate(-192.114 -422.861)" fill="none" stroke="#333" stroke-linecap="round" stroke-linejoin="round" stroke-width="4.5"/>
      <path id="Path_288" data-name="Path 288" d="M248.713,446.706A25.717,25.717,0,0,0,216.9,421.722a25.035,25.035,0,0,0-45.732,12.989c-.36-.021-.722-.034-1.088-.034a18.877,18.877,0,0,0-18.646,15.945h96.981A25.937,25.937,0,0,0,248.713,446.706Z" transform="translate(-133.17 -410.739)" fill="none" stroke="#333" stroke-linecap="round" stroke-linejoin="round" stroke-width="4.5"/>
      <line id="Line_44" data-name="Line 44" x2="109.168" transform="translate(11.088 39.882)" fill="none" stroke="#333" stroke-linecap="round" stroke-linejoin="round" stroke-width="4.5"/>
      <line id="Line_45" data-name="Line 45" x1="6.653" transform="translate(0 39.882)" fill="none" stroke="#333" stroke-linecap="round" stroke-linejoin="round" stroke-width="4.5"/>
      <line id="Line_46" data-name="Line 46" x1="6.73" transform="translate(123.817 39.882)" fill="none" stroke="#333" stroke-linecap="round" stroke-linejoin="round" stroke-width="4.5"/>
      <path id="Path_289" data-name="Path 289" d="M260.836,421.722a26,26,0,0,1,3.159-.563,25,25,0,0,0-20.327-10.42c-.586,0-1.166.028-1.742.067A25.016,25.016,0,0,1,260.836,421.722Z" transform="translate(-180.659 -410.739)" fill="#dfdfdf" style="mix-blend-mode: multiply;isolation: isolate"/>
      <path id="Path_290" data-name="Path 290" d="M300.03,432.308c-.606,0-1.207.024-1.8.066A25.735,25.735,0,0,1,321.9,461.941h3.554a25.74,25.74,0,0,0-25.422-29.633Z" transform="translate(-210.206 -422.058)" fill="#dfdfdf" style="mix-blend-mode: multiply;isolation: isolate"/>
    </g>
  </g>
  <g id="Group_390" data-name="Group 390" transform="translate(91.268 123.477)">
    <g id="Group_344-2" data-name="Group 344" transform="translate(0)">
      <circle id="Ellipse_20-2" data-name="Ellipse 20" cx="91.27" cy="91.27" r="91.27" fill="none"/>
    </g>
  </g>
  <g id="Mask_Group_1" data-name="Mask Group 1" transform="translate(-6.493 -83.5)" clip-path="url(#clip-path-2)">
    <g id="Group_394" data-name="Group 394" transform="translate(43.956 140.733)">
      <g id="Group_391" data-name="Group 391" transform="translate(87.624 62.87)">
        <path id="Path_351" data-name="Path 351" d="M82.337,69.041S85.8,65.862,92.4,71.614l3.068-4.772S88.057,60.978,82.337,69.041Z" transform="translate(-82.337 -55.108)" fill="#3c67af"/>
        <path id="Path_352" data-name="Path 352" d="M92.6,57.861s-4.1,5.089,1.8,10.886l-3.979,4.019S81.294,61.583,92.6,57.861Z" transform="translate(-80.507 -57.861)" fill="#3c67af"/>
      </g>
      <path id="Path_353" data-name="Path 353" d="M78.962,162.831a34.988,34.988,0,0,1,18.462-14.117l27.034-10.019h25.807l27.026,10.019a35,35,0,0,1,18.463,14.117Z" transform="translate(3.945 37.162)" fill="#91d7f4"/>
      <path id="Path_354" data-name="Path 354" d="M147.93,212.762H189.7c0-7.134-.465-17.3-.465-17.3-2.454-42.709-33.58-49.423-33.58-49.423-24.269-5.876-11.041,31.662-11.041,31.662C143.974,186.748,145.32,198.917,147.93,212.762Z" transform="translate(28.626 39.835)" fill="#c5d9ff"/>
      <g id="Group_392" data-name="Group 392" transform="translate(123.592 150.509)">
        <rect id="Rectangle_385" data-name="Rectangle 385" width="35.429" height="34.543" fill="#c5d9ff"/>
      </g>
      <g id="Group_393" data-name="Group 393" transform="translate(123.592 150.509)">
        <path id="Path_355" data-name="Path 355" d="M143.5,136.616V120.56H108.069v7.952C118.175,136.924,130.348,137.99,143.5,136.616Z" transform="translate(-108.069 -120.56)" fill="#56c6f1"/>
      </g>
      <path id="Path_356" data-name="Path 356" d="M195.824,214.928c.679-18.625.472-23.741.306-30.094-.37-14.152-3.4-26.112-12.724-36.617l-.045-.011L158.1,139.97s5.311,9.3-17.9,9.3c0,0-15.292-.6-17.525-9.3l-25.649,8.236S75.1,153.6,71.342,176.678l12.89,23.7-.458,14.549Z" transform="translate(0.914 37.669)" fill="#3c67af"/>
      <path id="Path_357" data-name="Path 357" d="M108.085,212.1H69.044c.013,0,.136-9.269.157-9.926A184.779,184.779,0,0,1,71.712,174.9c2.347-12.838,8.581-24.222,22.3-27.484,6.28-1.494,11.864,2.308,15.266,7.475C109.281,154.89,115.493,162.549,108.085,212.1Z" transform="translate(0 40.5)" fill="#c5d9ff"/>
    </g>
  </g>
  <g id="Group_395" data-name="Group 395" transform="translate(130.355 102.5)">
    <path id="Path_357-2" data-name="Path 357" d="M158.984,100.278c1.008-7.945-.685-15.554-.6-23.385.057-5.254-.97-13.184-7.5-13.849-9.052-.925-11.846,14.707-12.38,21.481-.737,9.338,1.579,19.432,3.38,28.569.649,3.3.581,9.895,4.3,11.49,3.177,1.361,6.426-1.848,8.05-4.234C158.141,114.589,158.148,106.928,158.984,100.278Z" transform="translate(-65.321 -38.212)" fill="#3c67af"/>
    <path id="Path_358" data-name="Path 358" d="M169.626,141.749c-3.581,14.011-9.886,17.872-9.886,17.872l-8.459,1.651c-4.866-.618-13.261-2.6-13.261-2.6C118.7,152.1,113.1,150.33,110.106,142.986c-.126-.31-15.23-52.739-15.23-52.739-2.471-26.984,25.775-32.6,30.039-33.3,4.218-.974,31.113-8.448,39.058,17.458C163.972,74.4,175.708,104.418,169.626,141.749Z" transform="translate(-82.678 -41.314)" fill="#c5d9ff"/>
    <path id="Path_359" data-name="Path 359" d="M181.937,52.243c1.531,8.378.1,19.974-6.393,25.323-7.049,5.8-13.1,4.227-21.583,6.111-8.818,1.958-17.842,2.735-26.706,4.45-6.207,1.2-13.372,1.89-16.229,8.475-3.777,8.7-4.522,20.056-1.978,28.535,2.115,7.063,2.765,13.933,5.086,23.127-8.013-6.631-14.235-16.3-14.235-16.3-3.995-7.027-3.995-7.027-8.5-19.25-2.642-7.164-4.924-13.465-5.265-20.852C85.7,82.333,90.316,78.18,95.4,69.432c4.779-8.226,11.487-13.92,20.233-16.527,0,0,44.343,2.491,43.508-7.637,0,0,10.65,2.719,8.623,9.8,0,0,11.142-2.034,8.778-9.8A10.4,10.4,0,0,1,181.937,52.243Z" transform="translate(-86.105 -45.267)" fill="#3c67af"/>
    <path id="Path_360" data-name="Path 360" d="M107.66,102.869s-4.776-10.406-12.282-4.241c0,0-3.418,2.666.791,9.631,0,0,6.114,10.009,13.438,4.463Z" transform="translate(-82.938 -24.818)" fill="#91d7f4"/>
    <path id="Path_361" data-name="Path 361" d="M105.722,83.746s.031,18.628,3.454,28.509l-3.63.72s-1.909-12.776-8.486-12.926Z" transform="translate(-81.748 -29.962)" fill="#3c67af"/>
  </g>
</svg>
