<?xml version="1.0" encoding="UTF-8" standalone="no"?>
<svg
   xmlns:dc="http://purl.org/dc/elements/1.1/"
   xmlns:cc="http://creativecommons.org/ns#"
   xmlns:rdf="http://www.w3.org/1999/02/22-rdf-syntax-ns#"
   xmlns:svg="http://www.w3.org/2000/svg"
   xmlns="http://www.w3.org/2000/svg"
   xmlns:sodipodi="http://sodipodi.sourceforge.net/DTD/sodipodi-0.dtd"
   xmlns:inkscape="http://www.inkscape.org/namespaces/inkscape"
   id="Contact"
   width="360"
   height="340.5"
   viewBox="0 0 360 340.5"
   version="1.1"
   sodipodi:docname="Contact.svg"
   inkscape:version="1.0.2-2 (e86c870879, 2021-01-15)">
  <metadata
     id="metadata157">
    <rdf:RDF>
      <cc:Work
         rdf:about="">
        <dc:format>image/svg+xml</dc:format>
        <dc:type
           rdf:resource="http://purl.org/dc/dcmitype/StillImage" />
        <dc:title></dc:title>
      </cc:Work>
    </rdf:RDF>
  </metadata>
  <defs
     id="defs155" />
  <sodipodi:namedview
     pagecolor="#ffffff"
     bordercolor="#666666"
     borderopacity="1"
     objecttolerance="10"
     gridtolerance="10"
     guidetolerance="10"
     inkscape:pageopacity="0"
     inkscape:pageshadow="2"
     inkscape:window-width="1366"
     inkscape:window-height="745"
     id="namedview153"
     showgrid="false"
     inkscape:zoom="1.6975037"
     inkscape:cx="180"
     inkscape:cy="193.81401"
     inkscape:window-x="-8"
     inkscape:window-y="-8"
     inkscape:window-maximized="1"
     inkscape:current-layer="Contact" />
  <path
     id="Subtraction_1"
     data-name="Subtraction 1"
     d="M269.135,259H39.95A155.182,155.182,0,0,1,94.388,12.181,153.436,153.436,0,0,1,123.4,3.149a155.6,155.6,0,0,1,62.292,0,153.454,153.454,0,0,1,55.26,23.323A155.174,155.174,0,0,1,269.136,259Z"
     transform="translate(26.507 80.999)"
     fill="#abd8fe"
     opacity="0.211" />
  <path
     id="Path_62"
     data-name="Path 62"
     d="M1198.4,936.259a3.857,3.857,0,1,1-3.856-3.857A3.862,3.862,0,0,1,1198.4,936.259Zm-1.911,0a1.946,1.946,0,1,0-1.945,1.946A1.948,1.948,0,0,0,1196.484,936.259Z"
     transform="translate(-882.194 -747.531)"
     fill="#91a8f6" />
  <g
     id="Group_252"
     data-name="Group 252"
     transform="translate(325.02 45.544)">
    <path
       id="Path_63"
       data-name="Path 63"
       d="M1263.238,795.026h-21.846a.956.956,0,1,0,0,1.911h21.846a.956.956,0,1,0,0-1.911Z"
       transform="translate(-1229.214 -795.022)"
       fill="#91a8f6" />
    <path
       id="Path_64"
       data-name="Path 64"
       d="M1234.439,795.022h-4.269a.956.956,0,1,0,0,1.911h4.269a.956.956,0,0,0,0-1.911Z"
       transform="translate(-1229.214 -795.022)"
       fill="#91a8f6" />
    <path
       id="Path_65"
       data-name="Path 65"
       d="M1252.974,802.638a.957.957,0,0,1-.956.956h-2.732a.956.956,0,1,1,0-1.912h2.732A.956.956,0,0,1,1252.974,802.638Zm-7.511,0a.957.957,0,0,1-.956.956h-4.779a.956.956,0,0,1,0-1.912h4.779A.956.956,0,0,1,1245.463,802.638Zm-9.557,0a.957.957,0,0,1-.956.956h-4.779a.956.956,0,0,1,0-1.912h4.779A.956.956,0,0,1,1235.906,802.638Z"
       transform="translate(-1229.214 -795.022)"
       fill="#91a8f6" />
  </g>
  <g
     id="Group_253"
     data-name="Group 253"
     transform="translate(21.834 103.726)">
    <path
       id="Path_66"
       data-name="Path 66"
       d="M908.787,858.918a.957.957,0,0,0-.956.956v2.216a.956.956,0,0,0,1.912,0v-2.216A.956.956,0,0,0,908.787,858.918Z"
       transform="translate(-903.113 -852.101)"
       fill="#91a8f6" />
    <path
       id="Path_67"
       data-name="Path 67"
       d="M906.286,856.694h-2.217a.956.956,0,1,0,0,1.911h2.217a.956.956,0,1,0,0-1.911Z"
       transform="translate(-903.113 -852.101)"
       fill="#91a8f6" />
    <path
       id="Path_68"
       data-name="Path 68"
       d="M908.787,852.1a.957.957,0,0,0-.956.956v2.216a.956.956,0,0,0,1.912,0v-2.216A.956.956,0,0,0,908.787,852.1Z"
       transform="translate(-903.113 -852.101)"
       fill="#91a8f6" />
    <path
       id="Path_69"
       data-name="Path 69"
       d="M913.506,856.542h-2.218a.956.956,0,0,0,0,1.911h2.218a.956.956,0,1,0,0-1.911Z"
       transform="translate(-903.113 -852.101)"
       fill="#91a8f6" />
  </g>
  <g
     id="Group_254"
     data-name="Group 254"
     transform="translate(261.549 40.659)">
    <path
       id="Path_70"
       data-name="Path 70"
       d="M1149.188,796.954a.956.956,0,0,0-.956.955v2.217a.956.956,0,1,0,1.912,0v-2.217A.956.956,0,0,0,1149.188,796.954Z"
       transform="translate(-1143.514 -790.137)"
       fill="#91a8f6" />
    <path
       id="Path_71"
       data-name="Path 71"
       d="M1146.687,794.73h-2.217a.956.956,0,1,0,0,1.911h2.217a.956.956,0,0,0,0-1.911Z"
       transform="translate(-1143.514 -790.137)"
       fill="#91a8f6" />
    <path
       id="Path_72"
       data-name="Path 72"
       d="M1149.188,790.137a.957.957,0,0,0-.956.956v2.215a.956.956,0,1,0,1.912,0v-2.215A.956.956,0,0,0,1149.188,790.137Z"
       transform="translate(-1143.514 -790.137)"
       fill="#91a8f6" />
    <path
       id="Path_73"
       data-name="Path 73"
       d="M1153.907,794.578h-2.218a.956.956,0,0,0,0,1.911h2.218a.956.956,0,1,0,0-1.911Z"
       transform="translate(-1143.514 -790.137)"
       fill="#91a8f6" />
  </g>
  <g
     id="Group_255"
     data-name="Group 255"
     transform="translate(144.373)">
    <path
       id="Path_74"
       data-name="Path 74"
       d="M1060.082,749.482h-21.847a.956.956,0,0,0,0,1.911h21.847a.956.956,0,1,0,0-1.911Z"
       transform="translate(-1026.058 -749.478)"
       fill="#91a8f6" />
    <path
       id="Path_75"
       data-name="Path 75"
       d="M1031.283,749.478h-4.27a.955.955,0,0,0,0,1.911h4.27a.955.955,0,0,0,0-1.911Z"
       transform="translate(-1026.058 -749.478)"
       fill="#91a8f6" />
    <path
       id="Path_76"
       data-name="Path 76"
       d="M1049.818,757.093a.956.956,0,0,1-.956.956h-2.732a.956.956,0,1,1,0-1.911h2.732A.956.956,0,0,1,1049.818,757.093Zm-7.511,0a.956.956,0,0,1-.956.956h-4.779a.956.956,0,0,1,0-1.911h4.779A.956.956,0,0,1,1042.307,757.093Zm-9.557,0a.956.956,0,0,1-.956.956h-4.779a.956.956,0,0,1,0-1.911h4.779A.956.956,0,0,1,1032.75,757.093Z"
       transform="translate(-1026.058 -749.478)"
       fill="#91a8f6" />
  </g>
  <path
     id="Path_81"
     data-name="Path 81"
     d="M972.308,773.157s1.3,9.31-9.57,9.1c0,0,9.341.095,9.1,8.831,0,0,.84-6.872,9.412-8.407C981.246,782.676,974,784.338,972.308,773.157Z"
     transform="translate(-881.497 -749.478)"
     fill="#91a8f6" />
  <path
     id="Path_82"
     data-name="Path 82"
     d="M878.7,798.868s1.3,9.31-9.57,9.1c0,0,9.341.095,9.1,8.831,0,0,.841-6.872,9.412-8.407C887.633,808.387,880.39,810.048,878.7,798.868Z"
     transform="translate(-869.126 -749.038)"
     fill="#91a8f6" />
  <path
     id="Path_83"
     data-name="Path 83"
     d="M935.436,759.077s.454,3.245-3.336,3.171c0,0,3.257.033,3.169,3.078a3.7,3.7,0,0,1,3.281-2.931S936.026,762.974,935.436,759.077Z"
     transform="translate(-881.279 -749.478)"
     fill="#91a8f6" />
  <path
     id="Path_84"
     data-name="Path 84"
     d="M1105.727,870.947s.454,3.245-3.336,3.171c0,0,3.257.033,3.169,3.078a3.7,3.7,0,0,1,3.281-2.931S1106.317,874.844,1105.727,870.947Z"
     transform="translate(-881.85 -748.191)"
     fill="#91a8f6" />
  <g
     id="Group_257"
     data-name="Group 257"
     transform="translate(7.091 166.594)">
    <path
       id="Path_86"
       data-name="Path 86"
       d="M944.505,961.592H923.292a4.921,4.921,0,0,1-.157-9.84,7.616,7.616,0,0,1,13.995-4.03,5.525,5.525,0,0,1,6.135,4.027h1.24a4.921,4.921,0,1,1,0,9.843Zm-21.213-8.386a3.465,3.465,0,1,0,0,6.93h21.213a3.465,3.465,0,0,0,0-6.93h-2.448l-.1-.614a4.07,4.07,0,0,0-5.021-3.352l-.536.128-.269-.482a6.16,6.16,0,0,0-11.543,3c0,.18.012.357.027.533l.068.791Z"
       transform="translate(-918.37 -944.265)"
       fill="#91a8f6" />
  </g>
  <g
     id="Group_259"
     data-name="Group 259"
     transform="translate(86.823 70.183)">
    <path
       id="Path_88"
       data-name="Path 88"
       d="M994.479,836.228H973.265a4.921,4.921,0,0,1-.157-9.84,7.616,7.616,0,0,1,14-4.03,5.527,5.527,0,0,1,6.134,4.027h1.241a4.922,4.922,0,0,1,0,9.843Zm-21.214-8.386a3.465,3.465,0,1,0,0,6.93h21.214a3.465,3.465,0,0,0,0-6.93H992.03l-.1-.614a4.072,4.072,0,0,0-5.021-3.352l-.536.128-.269-.481a6.16,6.16,0,0,0-11.544,2.995c0,.18.013.357.028.533l.067.791Z"
       transform="translate(-968.344 -818.9)"
       fill="#91a8f6" />
  </g>
  <g
     id="Group_276"
     data-name="Group 276"
     transform="translate(165.362 33.652)">
    <g
       id="Group_272"
       data-name="Group 272"
       transform="translate(128.794 56.789)">
      <g
         id="Group_271"
         data-name="Group 271">
        <g
           id="Group_270"
           data-name="Group 270">
          <g
             id="Group_269"
             data-name="Group 269">
            <path
               id="Path_93"
               data-name="Path 93"
               d="M1178.726,844.673h59.408a2.377,2.377,0,0,0,0-4.754h-59.408a2.377,2.377,0,0,0,0,4.754Z"
               transform="translate(-1176.35 -839.919)"
               fill="#91a8f6" />
          </g>
        </g>
      </g>
    </g>
    <g
       id="Group_275"
       data-name="Group 275">
      <g
         id="Group_274"
         data-name="Group 274">
        <g
           id="Group_273"
           data-name="Group 273">
          <path
             id="Path_94"
             data-name="Path 94"
             d="M1078.525,844.082a31.416,31.416,0,0,1-6.319-.643,1.569,1.569,0,0,1-1.22-1.852,1.592,1.592,0,0,1,1.853-1.22,28.359,28.359,0,0,0,9.84.273,1.568,1.568,0,1,1,.464,3.1A31.5,31.5,0,0,1,1078.525,844.082Zm14.229-3.661a1.569,1.569,0,0,1-.763-2.942,27.831,27.831,0,0,0,7.636-6.21,1.566,1.566,0,0,1,2.372,2.046,31.043,31.043,0,0,1-8.488,6.909A1.569,1.569,0,0,1,1092.754,840.421Zm13.345-15.509a1.594,1.594,0,0,1-.546-.1,1.568,1.568,0,0,1-.923-2.015,27.736,27.736,0,0,0,1.732-9.685,1.566,1.566,0,0,1,3.133,0,30.864,30.864,0,0,1-1.926,10.777A1.573,1.573,0,0,1,1106.1,824.912Zm-55.676-1.557a1.565,1.565,0,0,1-1.5-1.107,31.007,31.007,0,0,1-1.37-9.133c0-.585.015-1.161.048-1.735a1.6,1.6,0,0,1,1.653-1.475,1.565,1.565,0,0,1,1.475,1.653c-.028.513-.043,1.034-.043,1.554a27.976,27.976,0,0,0,1.232,8.213,1.567,1.567,0,0,1-1.036,1.959A1.544,1.544,0,0,1,1050.423,823.355Zm56.643-15.766a1.566,1.566,0,0,1-1.52-1.192,27.625,27.625,0,0,0-4.026-8.975,1.568,1.568,0,1,1,2.587-1.771,30.719,30.719,0,0,1,4.48,9.991,1.565,1.565,0,0,1-1.143,1.9A1.514,1.514,0,0,1,1107.066,807.589Zm-11.542-16.9a1.545,1.545,0,0,1-.905-.289,27.6,27.6,0,0,0-8.9-4.184,1.568,1.568,0,1,1,.806-3.031,30.728,30.728,0,0,1,9.909,4.659,1.567,1.567,0,0,1-.911,2.845Z"
             transform="translate(-1047.556 -783.13)"
             fill="#445eea" />
        </g>
      </g>
    </g>
  </g>
  <text
     id="_"
     data-name=" "
     transform="translate(335.592 262)"
     fill="#000759"
     font-size="13"
     font-family="Poppins-Medium, Poppins"
     font-weight="500"><tspan
       x="0"
       y="0"
       id="tspan40" /><tspan
       x="0"
       y="40"
       id="tspan42" /></text>
  <line
     id="Line_47"
     data-name="Line 47"
     x2="308"
     transform="translate(27.007 340)"
     fill="none"
     stroke="#707070"
     stroke-width="1"
     opacity="0.473" />
  <g
     id="g241"
     transform="matrix(0.33898837,0,0,0.46041066,91.528741,98.438749)">
    <rect
       fill="#e3e4e2"
       height="392"
       rx="24"
       width="368"
       x="56"
       y="24"
       id="rect159" />
    <path
       d="M 400,24 H 80 A 24,24 0 0 0 56,48 V 88 H 424 V 48 A 24,24 0 0 0 400,24 Z"
       fill="#0093b9"
       id="path161" />
    <path
       d="m 440.224,495.578 h -88 v -144 h -62.745 a 17.255,17.255 0 0 1 -17.255,-17.255 17.255,17.255 0 0 1 14.564,-17.044 L 403.24,298.892 a 24,24 0 0 1 26.82,17.113 l 10.164,35.573 z"
       fill="#f5be9a"
       id="path163" />
    <path
       d="M 471.772,351.578 H 248.224 L 235.592,360 H 216 a 8,8 0 0 0 -8,8 8,8 0 0 0 8,8 h 20.856 l 11.368,7.578 h 224 a 16,16 0 0 0 15.982,-16.773 C 487.8,358.2 480.388,351.578 471.772,351.578 Z"
       fill="#0093b9"
       id="path165" />
    <path
       d="m 488.224,367.578 a 16,16 0 0 0 -16,-16 h -16 v 32 h 16 a 16,16 0 0 0 16,-16 z"
       fill="#e3e4e2"
       id="path167" />
    <path
       d="m 352.224,447.578 -17.717,-7.086 A 35.45,35.45 0 0 1 312.224,407.578 L 285.2,380.549 a 16.97,16.97 0 0 1 -4.971,-12 16.971,16.971 0 0 1 16.971,-16.971 h 3.023 a 16.972,16.972 0 0 1 7.589,1.792 l 60.417,30.208 24,24 z"
       fill="#f5be9a"
       id="path169" />
    <path
       d="M 96,128 H 224 V 256 H 96 Z"
       fill="#0093b9"
       id="path171" />
    <circle
       cx="160"
       cy="184"
       fill="#f6bc1b"
       r="24"
       id="circle173" />
    <path
       d="m 128,256 v -16 a 32,32 0 0 1 32,-32 32,32 0 0 1 32,32 v 16 z"
       fill="#f6bc1b"
       id="path175" />
    <path
       d="M 64,392 V 96 h 352 v 184 h 16 V 48 A 32.036,32.036 0 0 0 400,16 H 80 A 32.036,32.036 0 0 0 48,48 v 344 a 32.036,32.036 0 0 0 32,32 H 272 V 408 H 80 A 16.019,16.019 0 0 1 64,392 Z M 80,32 h 320 a 16.019,16.019 0 0 1 16,16 V 80 H 64 V 48 A 16.019,16.019 0 0 1 80,32 Z"
       id="path177" />
    <path
       d="M 80,48 H 96 V 64 H 80 Z"
       id="path179" />
    <path
       d="m 112,48 h 16 v 16 h -16 z"
       id="path181" />
    <path
       d="m 144,48 h 16 v 16 h -16 z"
       id="path183" />
    <path
       d="m 472,344 h -25.965 l -8.507,-29.772 A 32.036,32.036 0 0 0 401.769,291.411 L 285.316,309.8 A 25.239,25.239 0 0 0 265.764,344 H 248 a 8.005,8.005 0 0 0 -4.438,1.344 L 221.578,360 H 208 v 16 h 13.578 l 21.984,14.656 A 8.005,8.005 0 0 0 248,392 h 36.686 l 19.448,19.447 a 43.214,43.214 0 0 0 27.178,36.894 L 344,453.416 V 496 h 16 v -48 a 8,8 0 0 0 -5.028,-7.428 l -17.718,-7.087 A 27.315,27.315 0 0 1 320,408 a 8,8 0 0 0 -2.343,-5.657 l -27.029,-27.03 A 8.97,8.97 0 0 1 296.971,360 h 3.023 a 9.008,9.008 0 0 1 4.011,0.947 l 59.256,29.628 23.082,23.082 11.314,-11.314 L 387.314,392 H 432 v 104 h 16 V 392 h 24 a 24,24 0 0 0 0,-48 z m -233.578,24 12,-8 h 23.251 a 24.994,24.994 0 0 0 -0.67,16 h -22.581 z m 58.549,-24 h -7.716 a 9.255,9.255 0 0 1 -1.443,-18.4 l 116.453,-18.387 a 16.007,16.007 0 0 1 17.879,11.408 l 7.25,25.379 h -42.08 L 397.657,333.657 386.343,322.343 364.687,344 Z m 72.918,32 -32,-16 H 448 v 16 z M 472,376 h -8 v -16 h 8 a 8,8 0 0 1 0,16 z"
       id="path185" />
    <path
       d="M 232,256 V 128 a 8,8 0 0 0 -8,-8 H 96 a 8,8 0 0 0 -8,8 v 128 a 8,8 0 0 0 8,8 h 128 a 8,8 0 0 0 8,-8 z m -72,-40 a 24.028,24.028 0 0 1 24,24 v 8 h -48 v -8 a 24.028,24.028 0 0 1 24,-24 z m -16,-32 a 16,16 0 1 1 16,16 16.019,16.019 0 0 1 -16,-16 z m 72,64 h -16 v -8 a 39.994,39.994 0 0 0 -17.632,-33.146 32,32 0 1 0 -44.736,0 A 39.994,39.994 0 0 0 120,240 v 8 H 104 V 136 h 112 z"
       id="path187" />
    <path
       d="m 128,280 h 96 v 16 h -96 z"
       id="path189" />
    <path
       d="m 96,280 h 16 v 16 H 96 Z"
       id="path191" />
    <path
       d="m 296,136 h 96 v 16 h -96 z"
       id="path193" />
    <path
       d="m 264,168 h 128 v 16 H 264 Z"
       id="path195" />
    <path
       d="m 264,200 h 128 v 16 H 264 Z"
       id="path197" />
    <path
       d="m 264,232 h 128 v 16 H 264 Z"
       id="path199" />
    <path
       d="m 264,136 h 16 v 16 h -16 z"
       id="path201" />
    <path
       d="m 448,56 h 16 v 160 h -16 z"
       id="path203" />
    <path
       d="m 448,232 h 16 v 16 h -16 z"
       id="path205" />
    <path
       d="m 91.61,345.435 -11.038,27.594 14.856,5.942 9.384,-23.459 4.993,9.987 a 14,14 0 0 0 20.288,5.387 l 12.887,-8.592 9.605,9.605 a 13.907,13.907 0 0 0 9.9,4.1 H 192 V 360 h -28.687 l -10.177,-10.179 a 14.037,14.037 0 0 0 -17.666,-1.749 l -12.37,8.244 -5.972,-11.944 a 14,14 0 0 0 -25.521,1.063 z"
       id="path207" />
  </g>
</svg>
