<svg id="Composant_32_1" data-name="Composant 32 – 1" xmlns="http://www.w3.org/2000/svg" width="360" height="105.072" viewBox="0 0 360 105.072">
  <g id="Groupe_252" data-name="Groupe 252" transform="translate(325.02 35.945)">
    <path id="Tracé_63" data-name="Tracé 63" d="M1263.238,795.026h-21.846a.956.956,0,1,0,0,1.911h21.846a.956.956,0,1,0,0-1.911Z" transform="translate(-1229.214 -795.022)" fill="#91a8f6"/>
    <path id="Tracé_64" data-name="Tracé 64" d="M1234.439,795.022h-4.269a.956.956,0,1,0,0,1.911h4.269a.956.956,0,0,0,0-1.911Z" transform="translate(-1229.214 -795.022)" fill="#91a8f6"/>
    <path id="Tracé_65" data-name="Tracé 65" d="M1252.974,802.638a.957.957,0,0,1-.956.956h-2.732a.956.956,0,1,1,0-1.912h2.732A.956.956,0,0,1,1252.974,802.638Zm-7.511,0a.957.957,0,0,1-.956.956h-4.779a.956.956,0,0,1,0-1.912h4.779A.956.956,0,0,1,1245.463,802.638Zm-9.557,0a.957.957,0,0,1-.956.956h-4.779a.956.956,0,0,1,0-1.912h4.779A.956.956,0,0,1,1235.906,802.638Z" transform="translate(-1229.214 -795.022)" fill="#91a8f6"/>
  </g>
  <g id="Groupe_253" data-name="Groupe 253" transform="translate(21.834 94.127)">
    <path id="Tracé_66" data-name="Tracé 66" d="M908.787,858.918a.957.957,0,0,0-.956.956v2.216a.956.956,0,0,0,1.912,0v-2.216A.956.956,0,0,0,908.787,858.918Z" transform="translate(-903.113 -852.101)" fill="#1dbf8a"/>
    <path id="Tracé_67" data-name="Tracé 67" d="M906.286,856.694h-2.217a.956.956,0,1,0,0,1.911h2.217a.956.956,0,1,0,0-1.911Z" transform="translate(-903.113 -852.101)" fill="#1dbf8a"/>
    <path id="Tracé_68" data-name="Tracé 68" d="M908.787,852.1a.957.957,0,0,0-.956.956v2.216a.956.956,0,0,0,1.912,0v-2.216A.956.956,0,0,0,908.787,852.1Z" transform="translate(-903.113 -852.101)" fill="#1dbf8a"/>
    <path id="Tracé_69" data-name="Tracé 69" d="M913.506,856.542h-2.218a.956.956,0,0,0,0,1.911h2.218a.956.956,0,1,0,0-1.911Z" transform="translate(-903.113 -852.101)" fill="#1dbf8a"/>
  </g>
  <g id="Groupe_254" data-name="Groupe 254" transform="translate(261.549 31.06)">
    <path id="Tracé_70" data-name="Tracé 70" d="M1149.188,796.954a.956.956,0,0,0-.956.955v2.217a.956.956,0,1,0,1.912,0v-2.217A.956.956,0,0,0,1149.188,796.954Z" transform="translate(-1143.514 -790.137)" fill="#1dbf8a"/>
    <path id="Tracé_71" data-name="Tracé 71" d="M1146.687,794.73h-2.217a.956.956,0,1,0,0,1.911h2.217a.956.956,0,0,0,0-1.911Z" transform="translate(-1143.514 -790.137)" fill="#1dbf8a"/>
    <path id="Tracé_72" data-name="Tracé 72" d="M1149.188,790.137a.957.957,0,0,0-.956.956v2.215a.956.956,0,1,0,1.912,0v-2.215A.956.956,0,0,0,1149.188,790.137Z" transform="translate(-1143.514 -790.137)" fill="#1dbf8a"/>
    <path id="Tracé_73" data-name="Tracé 73" d="M1153.907,794.578h-2.218a.956.956,0,0,0,0,1.911h2.218a.956.956,0,1,0,0-1.911Z" transform="translate(-1143.514 -790.137)" fill="#1dbf8a"/>
  </g>
  <g id="Groupe_255" data-name="Groupe 255" transform="translate(144.373 0.401)">
    <path id="Tracé_74" data-name="Tracé 74" d="M1060.082,749.482h-21.847a.956.956,0,0,0,0,1.911h21.847a.956.956,0,1,0,0-1.911Z" transform="translate(-1026.058 -749.478)" fill="#91a8f6"/>
    <path id="Tracé_75" data-name="Tracé 75" d="M1031.283,749.478h-4.27a.955.955,0,0,0,0,1.911h4.27a.955.955,0,0,0,0-1.911Z" transform="translate(-1026.058 -749.478)" fill="#91a8f6"/>
    <path id="Tracé_76" data-name="Tracé 76" d="M1049.818,757.093a.956.956,0,0,1-.956.956h-2.732a.956.956,0,1,1,0-1.911h2.732A.956.956,0,0,1,1049.818,757.093Zm-7.511,0a.956.956,0,0,1-.956.956h-4.779a.956.956,0,0,1,0-1.911h4.779A.956.956,0,0,1,1042.307,757.093Zm-9.557,0a.956.956,0,0,1-.956.956h-4.779a.956.956,0,0,1,0-1.911h4.779A.956.956,0,0,1,1032.75,757.093Z" transform="translate(-1026.058 -749.478)" fill="#91a8f6"/>
  </g>
  <path id="Tracé_81" data-name="Tracé 81" d="M972.308,773.157s1.3,9.31-9.57,9.1c0,0,9.341.095,9.1,8.831,0,0,.84-6.872,9.412-8.407C981.246,782.676,974,784.338,972.308,773.157Z" transform="translate(-881.497 -759.077)" fill="#f9e16f"/>
  <path id="Tracé_82" data-name="Tracé 82" d="M878.7,798.868s1.3,9.31-9.57,9.1c0,0,9.341.095,9.1,8.831,0,0,.841-6.872,9.412-8.407C887.633,808.387,880.39,810.048,878.7,798.868Z" transform="translate(-869.126 -758.637)" fill="#1277d9"/>
  <path id="Tracé_83" data-name="Tracé 83" d="M935.436,759.077s.454,3.245-3.336,3.171c0,0,3.257.033,3.169,3.078a3.7,3.7,0,0,1,3.281-2.931S936.026,762.974,935.436,759.077Z" transform="translate(-881.279 -759.077)" fill="#91a8f6"/>
  <g id="Groupe_259" data-name="Groupe 259" transform="translate(86.823 60.584)">
    <path id="Tracé_88" data-name="Tracé 88" d="M994.479,836.228H973.265a4.921,4.921,0,0,1-.157-9.84,7.616,7.616,0,0,1,14-4.03,5.527,5.527,0,0,1,6.134,4.027h1.241a4.922,4.922,0,0,1,0,9.843Zm-21.214-8.386a3.465,3.465,0,1,0,0,6.93h21.214a3.465,3.465,0,0,0,0-6.93H992.03l-.1-.614a4.072,4.072,0,0,0-5.021-3.352l-.536.128-.269-.481a6.16,6.16,0,0,0-11.544,2.995c0,.18.013.357.028.533l.067.791Z" transform="translate(-968.344 -818.9)" fill="#91a8f6"/>
  </g>
  <g id="Groupe_276" data-name="Groupe 276" transform="translate(165.362 26.053)">
    <g id="Groupe_272" data-name="Groupe 272" transform="translate(128.794 56.789)">
      <g id="Groupe_271" data-name="Groupe 271">
        <g id="Groupe_270" data-name="Groupe 270">
          <g id="Groupe_269" data-name="Groupe 269">
            <path id="Tracé_93" data-name="Tracé 93" d="M1178.726,844.673h59.408a2.377,2.377,0,0,0,0-4.754h-59.408a2.377,2.377,0,0,0,0,4.754Z" transform="translate(-1176.35 -839.919)" fill="#1dbf8a"/>
          </g>
        </g>
      </g>
    </g>
    <g id="Groupe_275" data-name="Groupe 275">
      <g id="Groupe_274" data-name="Groupe 274">
        <g id="Groupe_273" data-name="Groupe 273">
          <path id="Tracé_94" data-name="Tracé 94" d="M1078.525,844.082a31.416,31.416,0,0,1-6.319-.643,1.569,1.569,0,0,1-1.22-1.852,1.592,1.592,0,0,1,1.853-1.22,28.359,28.359,0,0,0,9.84.273,1.568,1.568,0,1,1,.464,3.1A31.5,31.5,0,0,1,1078.525,844.082Zm14.229-3.661a1.569,1.569,0,0,1-.763-2.942,27.831,27.831,0,0,0,7.636-6.21,1.566,1.566,0,0,1,2.372,2.046,31.043,31.043,0,0,1-8.488,6.909A1.569,1.569,0,0,1,1092.754,840.421Zm13.345-15.509a1.594,1.594,0,0,1-.546-.1,1.568,1.568,0,0,1-.923-2.015,27.736,27.736,0,0,0,1.732-9.685,1.566,1.566,0,0,1,3.133,0,30.864,30.864,0,0,1-1.926,10.777A1.573,1.573,0,0,1,1106.1,824.912Zm-55.676-1.557a1.565,1.565,0,0,1-1.5-1.107,31.007,31.007,0,0,1-1.37-9.133c0-.585.015-1.161.048-1.735a1.6,1.6,0,0,1,1.653-1.475,1.565,1.565,0,0,1,1.475,1.653c-.028.513-.043,1.034-.043,1.554a27.976,27.976,0,0,0,1.232,8.213,1.567,1.567,0,0,1-1.036,1.959A1.544,1.544,0,0,1,1050.423,823.355Zm56.643-15.766a1.566,1.566,0,0,1-1.52-1.192,27.625,27.625,0,0,0-4.026-8.975,1.568,1.568,0,1,1,2.587-1.771,30.719,30.719,0,0,1,4.48,9.991,1.565,1.565,0,0,1-1.143,1.9A1.514,1.514,0,0,1,1107.066,807.589Zm-11.542-16.9a1.545,1.545,0,0,1-.905-.289,27.6,27.6,0,0,0-8.9-4.184,1.568,1.568,0,1,1,.806-3.031,30.728,30.728,0,0,1,9.909,4.659,1.567,1.567,0,0,1-.911,2.845Z" transform="translate(-1047.556 -783.13)" fill="#f27f63"/>
        </g>
      </g>
    </g>
  </g>
</svg>
