<svg id="Composant_31_1" data-name="Composant 31 – 1" xmlns="http://www.w3.org/2000/svg" width="227.172" height="61.815" viewBox="0 0 227.172 61.815">
  <text id="smart-clik" transform="translate(58.172 40)" fill="#04bf8a" font-size="40" font-family="AvocadoSansBold-Regular, Avocado Sans Bold"><tspan x="0" y="0">smart-clik</tspan></text>
  <g id="Groupe_426" data-name="Groupe 426" transform="translate(0 0.96)">
    <path id="Tracé_380" data-name="Tracé 380" d="M716.455,328.591a11.934,11.934,0,0,1-.876,3.294,27.841,27.841,0,0,1,.745-4.7,25.679,25.679,0,0,1-2.209,6.119l3.281-1-1.249.634" transform="translate(-679.906 -295.29)" fill="none" stroke="#f5cb00" stroke-miterlimit="10" stroke-width="1"/>
    <g id="Groupe_425" data-name="Groupe 425">
      <g id="Groupe_419" data-name="Groupe 419" transform="translate(0 9.278)">
        <path id="Tracé_381" data-name="Tracé 381" d="M649.748,263.577c-10.183,1.979-20.746,3.431-30.562,6.873a1.947,1.947,0,0,0,.515,3.8c10.624.306,21.352-2.611,31.381-5.839a2.511,2.511,0,0,0-1.334-4.838Z" transform="translate(-617.823 -263.52)" fill="#0477d9"/>
      </g>
      <g id="Groupe_420" data-name="Groupe 420" transform="translate(3.574 10.945)">
        <path id="Tracé_382" data-name="Tracé 382" d="M627.951,270.773q2.9,11.916,6.081,23.739c1.981,7.419,2.836,15.831,6.091,22.8.7,1.5,3.134.74,3.077-.833-.133-3.707-1.275-7.265-2.176-10.843-1.024-4.069-2.069-8.13-3.028-12.214-1.868-7.964-3.87-15.863-6.065-23.743-.714-2.561-4.609-1.486-3.981,1.1Z" transform="translate(-627.883 -268.211)" fill="#f27f63"/>
      </g>
      <g id="Groupe_421" data-name="Groupe 421" transform="translate(29.852)">
        <path id="Tracé_383" data-name="Tracé 383" d="M701.919,241.01c1.985,9.847,3.772,19.982,7.869,29.208,1.007,2.268,5.11,1.2,4.793-1.3-1.271-10.009-4.553-19.7-7.089-29.447-.945-3.629-6.3-2.081-5.573,1.537Z" transform="translate(-701.851 -237.404)" fill="#f5cb00"/>
      </g>
      <g id="Groupe_422" data-name="Groupe 422" transform="translate(30.544 26.102)">
        <path id="Tracé_384" data-name="Tracé 384" d="M708.73,311.308c-4.8,4.108-6.6,11.918-3.124,17.454a1.2,1.2,0,0,0,2.177-.918c-1.073-5.3-.423-10.054,3.17-14.314a1.573,1.573,0,0,0-2.223-2.223Z" transform="translate(-703.797 -310.876)" fill="#f5cb00"/>
      </g>
      <g id="Groupe_423" data-name="Groupe 423" transform="translate(37.083 28.978)">
        <path id="Tracé_385" data-name="Tracé 385" d="M722.333,322.2a23.01,23.01,0,0,1,1.014,5.122c.131,1.9-.166,3.559,1.666,4.71a2.2,2.2,0,0,0,2.212,0l.284-.162a2.729,2.729,0,0,0,1.352-2.356,29.268,29.268,0,0,0-1.445-8.714c-1.054-3.2-6.078-1.867-5.083,1.4Z" transform="translate(-722.203 -318.971)" fill="#f5cb00"/>
      </g>
      <g id="Groupe_424" data-name="Groupe 424" transform="translate(1.373 38.691)">
        <path id="Tracé_386" data-name="Tracé 386" d="M625.052,361.676c7.038-1.78,14.119-3.4,21.187-5.059,7.006-1.643,14.322-2.391,21.2-4.493a2.936,2.936,0,0,0-.777-5.739c-7.23-.487-14.712,1.567-21.665,3.327-7.266,1.838-14.292,4.336-21.4,6.7-3.316,1.1-1.982,6.136,1.452,5.267Z" transform="translate(-621.689 -346.313)" fill="#04bf8a"/>
      </g>
    </g>
  </g>
</svg>
