<svg id="annonces" xmlns="http://www.w3.org/2000/svg" width="25.936" height="19.27" viewBox="0 0 25.936 19.27">
  <path id="Tracé_95" data-name="Tracé 95" d="M16.855,32.3a.787.787,0,0,0-.992-.505l-3.294,1.07a.787.787,0,0,0-.505.992l.165.507L3.85,40.515.545,41.588a.787.787,0,0,0-.505.992L2.047,48.76a.787.787,0,0,0,.992.505l3.3-1.074,1.7.009A3.56,3.56,0,0,0,15,48.237l1.741.009.165.507a.787.787,0,0,0,.992.505l3.294-1.07A.787.787,0,0,0,21.7,47.2ZM3.3,47.524,1.78,42.843l1.928-.626L5.229,46.9Zm8.223,1.923a1.988,1.988,0,0,1-1.838-1.238l3.67.019A1.988,1.988,0,0,1,11.524,49.447Zm-4.73-2.828L5.966,44.07l-.828-2.549,7.6-5.584,2.331,7.175,1.155,3.556Zm11.365.9-.1-.3v0l-2.08-6.4-2.177-6.7,1.8-.584,4.354,13.4Z" transform="translate(-0.001 -31.752)" fill="#fff"/>
  <path id="Tracé_96" data-name="Tracé 96" d="M182.142,37.06a.787.787,0,0,0,1.059-.344l1.413-2.772a.787.787,0,1,0-1.4-.715L181.8,36A.787.787,0,0,0,182.142,37.06Z" transform="translate(-162.636 -32.689)" fill="#fff"/>
  <path id="Tracé_97" data-name="Tracé 97" d="M208.774,131.937,206,130.525a.787.787,0,0,0-.715,1.4l2.773,1.412a.787.787,0,0,0,.715-1.4Z" transform="translate(-183.351 -120.079)" fill="#fff"/>
  <path id="Tracé_98" data-name="Tracé 98" d="M203.912,84.217a.787.787,0,0,0,.992.505l2.959-.962a.787.787,0,0,0-.487-1.5l-2.959.962A.787.787,0,0,0,203.912,84.217Z" transform="translate(-182.471 -76.927)" fill="#fff"/>
</svg>
