<svg id="home_2_" data-name="home (2)" xmlns="http://www.w3.org/2000/svg" width="21.106" height="19.786" viewBox="0 0 21.106 19.786">
  <path id="Tracé_379" data-name="Tracé 379" d="M20.913,25.112l-8.2-8.2a3.054,3.054,0,0,0-4.314,0l-8.2,8.2a.66.66,0,0,0,.933.933l.523-.523v8.385a1.9,1.9,0,0,0,1.9,1.9H17.561a1.9,1.9,0,0,0,1.9-1.9V25.522l.523.523a.66.66,0,0,0,.933-.933ZM8.575,34.484V29.29a.743.743,0,0,1,.742-.742H11.79a.743.743,0,0,1,.742.742v5.194Zm9.564-.577a.578.578,0,0,1-.577.577h-3.71V29.29a2.064,2.064,0,0,0-2.061-2.061H9.317A2.064,2.064,0,0,0,7.256,29.29v5.194H3.545a.578.578,0,0,1-.577-.577V24.2l6.361-6.361a1.733,1.733,0,0,1,2.449,0L18.139,24.2Z" transform="translate(0 -16.017)" fill="#fff"/>
</svg>
