<?xml version="1.0" encoding="UTF-8" standalone="no"?>
<svg
   xmlns:dc="http://purl.org/dc/elements/1.1/"
   xmlns:cc="http://creativecommons.org/ns#"
   xmlns:rdf="http://www.w3.org/1999/02/22-rdf-syntax-ns#"
   xmlns:svg="http://www.w3.org/2000/svg"
   xmlns="http://www.w3.org/2000/svg"
   xmlns:sodipodi="http://sodipodi.sourceforge.net/DTD/sodipodi-0.dtd"
   xmlns:inkscape="http://www.inkscape.org/namespaces/inkscape"
   id="annonces"
   width="25.936"
   height="19.27"
   viewBox="0 0 25.936 19.27"
   version="1.1"
   sodipodi:docname="annonces.svg"
   inkscape:version="1.0.2-2 (e86c870879, 2021-01-15)">
  <metadata
     id="metadata11">
    <rdf:RDF>
      <cc:Work
         rdf:about="">
        <dc:format>image/svg+xml</dc:format>
        <dc:type
           rdf:resource="http://purl.org/dc/dcmitype/StillImage" />
        <dc:title></dc:title>
      </cc:Work>
    </rdf:RDF>
  </metadata>
  <defs
     id="defs9" />
  <sodipodi:namedview
     pagecolor="#ffffff"
     bordercolor="#666666"
     borderopacity="1"
     objecttolerance="10"
     gridtolerance="10"
     guidetolerance="10"
     inkscape:pageopacity="0"
     inkscape:pageshadow="2"
     inkscape:window-width="1366"
     inkscape:window-height="745"
     id="namedview7"
     showgrid="false"
     inkscape:zoom="14.997405"
     inkscape:cx="13.554239"
     inkscape:cy="12.141699"
     inkscape:window-x="-8"
     inkscape:window-y="-8"
     inkscape:window-maximized="1"
     inkscape:current-layer="annonces" />
  <ellipse
     id="Ellipse_7"
     data-name="Ellipse 7"
     cx="14.403907"
     cy="11.083426"
     fill="#9b9b9b"
     opacity="0.347"
     rx="7.5323391"
     ry="5.6617627"
     style="stroke-width:0.816301" />
  <path
     id="nfc"
     d="M 24.489708,13.13086 A 1.0074504,0.7572608 0 0 1 23.492614,12.244794 21.449277,16.122578 0 0 0 23.805206,9.6686924 21.15175,15.898938 0 0 0 20.397765,1.1505707 1.0068791,0.75683142 0 1 1 22.085951,0.32536875 23.161944,17.409921 0 0 1 25.822932,9.6609078 v 0.015573 a 23.450055,17.626484 0 0 1 -0.342721,2.8308812 1.0074504,0.7572608 0 0 1 -0.990503,0.623501 z m -2.403757,5.880449 a 23.103567,17.366043 0 0 0 1.993244,-2.854236 1.0069531,0.75688701 0 0 0 -1.86237,-0.576084 21.077368,15.843028 0 0 1 -1.81906,2.605119 1.0068789,0.75683129 0 1 0 1.688186,0.825201 z M 17.193696,17.03677 a 17.973102,13.509675 0 0 0 3.041182,-7.360292 q 0,-0.00991 0,-0.019818 a 17.972161,13.508966 0 0 0 -3.041182,-7.3602915 1.0068155,0.75678362 0 0 0 -1.673121,0.8421873 15.96291,11.998692 0 0 1 2.699402,6.5301352 15.96291,11.998692 0 0 1 -2.700343,6.528012 1.0065088,0.75655308 0 0 0 1.674062,0.840065 z m -4.434664,-3.156434 a 1.7418534,1.3092827 0 0 0 1.147739,-0.799015 12.334205,9.2711368 0 0 0 0.790896,-3.4281978 12.437775,9.3489859 0 0 0 -2.259701,-5.1762667 1.0088417,0.75830663 0 1 0 -1.656173,0.8662497 10.429465,7.8394186 0 0 1 1.901916,4.3404482 10.262812,7.7141521 0 0 1 -0.537622,2.5994566 L 2.9114399,6.9446771 A 1.5347141,1.1535842 0 0 0 0.50297445,7.5349159 11.523537,8.6617897 0 0 0 0.04820949,9.9333801 9.5284091,7.1621302 0 0 0 1.468997,13.392717 1.0083652,0.75794846 0 0 0 3.1637733,12.571054 7.5521116,5.6766252 0 0 1 2.0659348,9.9333801 9.5265261,7.1607147 0 0 1 2.2664834,8.4797233 l 8.9663076,5.1819277 a 1.7136071,1.2880511 0 0 0 1.047937,0.27035 1.7399704,1.3078672 0 0 0 0.478304,-0.05167 z m 0,0"
     fill="#9b9b9b"
     style="stroke-width:0.816301" />
  <path
     style="fill:#f9f9f9;stroke:none;stroke-width:0.0666782"
     d="M 11.616569,13.788543 C 11.374256,13.697874 10.327092,13.101137 5.2291898,10.148625 3.6392633,9.2278001 2.3136609,8.4743978 2.2834067,8.4743978 c -0.055137,0 -0.1554411,0.4309149 -0.2348333,1.0088606 -0.1037935,0.7555766 0.2446926,1.8914046 0.8620614,2.8097356 0.4026066,0.598875 0.4277415,0.687142 0.2780807,0.976554 C 2.9930314,13.647959 2.2224786,13.804745 1.7680601,13.558611 1.4982079,13.412446 1.025142,12.786552 0.72074277,12.172947 0.01899919,10.758379 -0.08222871,9.5002459 0.38635386,8.0169196 0.57851682,7.4086162 0.78013651,7.1305572 1.175189,6.9290165 1.5284781,6.7487818 2.1681637,6.6976998 2.5189962,6.821707 c 0.1466921,0.051851 1.556936,0.8395462 3.1338755,1.7504349 1.5769395,0.9108887 3.3472458,1.9331201 3.9340139,2.2716241 0.5867684,0.338506 1.4035684,0.812523 1.8151114,1.053373 0.411543,0.240851 0.765526,0.409974 0.786629,0.375829 0.08612,-0.139348 0.31152,-0.860119 0.402101,-1.285828 0.05318,-0.24994 0.0967,-0.768794 0.0967,-1.1530092 0,-1.5498804 -0.482602,-2.8124495 -1.608725,-4.208698 -0.407271,-0.504965 -0.463799,-0.6074725 -0.429516,-0.7788876 0.07759,-0.3879725 0.447885,-0.6395524 0.941332,-0.6395524 0.445921,0 0.718232,0.157919 1.135829,0.6586934 1.101659,1.3210865 1.714835,2.7001031 1.896885,4.2660425 0.131026,1.1270433 -0.104117,2.5201603 -0.609343,3.6100743 -0.370329,0.798904 -0.775795,1.076289 -1.626514,1.112719 -0.335458,0.01437 -0.621521,-0.01012 -0.770801,-0.06598 z"
     id="path45" />
  <path
     style="fill:#f9f9f9;stroke-width:0.0666782"
     d="m 15.994949,17.276777 c -0.32503,-0.10302 -0.573721,-0.391855 -0.573721,-0.66633 0,-0.192436 0.06761,-0.31977 0.338572,-0.637637 0.469294,-0.550536 1.131159,-1.556601 1.463382,-2.224412 0.370789,-0.74533 0.571143,-1.290153 0.785934,-2.137186 0.163381,-0.6443 0.177952,-0.808942 0.174345,-1.9699457 C 18.17973,8.4406484 18.168607,8.3331892 17.970812,7.5868998 17.578219,6.1056296 16.879923,4.7417261 15.88851,3.5197777 15.38015,2.8932066 15.310234,2.6860295 15.506208,2.3869345 c 0.232243,-0.3544474 0.903015,-0.4872807 1.361644,-0.269647 0.276851,0.1313742 1.042408,1.0592289 1.587484,1.924029 1.263158,2.0040851 1.896347,4.3604269 1.700493,6.3281875 -0.229602,2.306813 -1.03565,4.22369 -2.581714,6.139617 -0.236747,0.293384 -0.513163,0.585854 -0.614258,0.649931 -0.224271,0.142153 -0.703406,0.20061 -0.964908,0.117725 z"
     id="path47" />
  <path
     style="fill:#f9f9f9;stroke-width:0.0666782"
     d="m 23.989377,12.981677 c -0.275385,-0.121558 -0.451735,-0.336351 -0.456244,-0.555701 -0.0021,-0.101343 0.05337,-0.484312 0.123225,-0.851042 0.156634,-0.822277 0.181573,-2.8592998 0.04449,-3.6339618 C 23.286486,5.5993729 22.365317,3.5755857 20.811283,1.5926602 20.199944,0.81260073 20.162436,0.65265759 20.50946,0.3056328 c 0.289164,-0.28916388 0.720845,-0.36533056 1.14736,-0.20244283 0.236105,0.0901695 0.395967,0.23764715 0.793887,0.7323848 2.301372,2.86132153 3.487381,6.29419103 3.295643,9.53915223 -0.0553,0.935855 -0.236009,2.009593 -0.381548,2.267058 -0.217832,0.385354 -0.893928,0.552429 -1.375425,0.339892 z"
     id="path49" />
  <path
     style="fill:#f9f9f9;stroke-width:0.0666782"
     d="m 20.855502,19.245747 c -0.327674,-0.119632 -0.566765,-0.383371 -0.566765,-0.625193 0,-0.192447 0.01152,-0.210386 0.819765,-1.276606 0.285843,-0.377076 0.68696,-0.96977 0.891373,-1.317096 0.313624,-0.532894 0.414678,-0.651037 0.647155,-0.756604 0.470203,-0.213517 0.905793,-0.148217 1.259,0.188739 0.337228,0.321712 0.229763,0.651877 -0.628812,1.931903 -0.467826,0.69747 -1.229169,1.628908 -1.441149,1.763124 -0.265258,0.16795 -0.668487,0.205672 -0.980567,0.09173 z"
     id="path51" />
  <path
     style="fill:#f9f9f9;stroke-width:0.0666782"
     d="M 13.587049,16.67757 C 11.964302,16.534198 10.528747,16.036784 9.3070542,15.19457 8.6976978,14.77449 7.8603971,13.898353 7.5348248,13.340138 7.2515351,12.85442 6.9903699,12.082497 6.9317222,11.557555 c -0.038575,-0.345273 -0.036885,-0.349552 0.1077797,-0.273061 0.080833,0.04274 0.7170671,0.407821 1.4138543,0.811292 0.6967872,0.403471 1.6429498,0.950717 2.1025848,1.216103 0.933384,0.53892 1.185863,0.629064 1.764751,0.630079 0.876227,0.0015 1.456388,-0.404012 1.816586,-1.269847 C 14.785206,11.114646 14.893784,9.4303263 14.44589,7.8847386 14.264398,7.2584454 13.864438,6.3573519 13.551455,5.8696102 13.442967,5.7005461 13.354204,5.5384093 13.354204,5.5093061 c 0,-0.09418 2.46525,0.013708 2.992496,0.130963 0.958372,0.2131325 0.942348,0.2023181 1.186026,0.8004435 0.119526,0.2933841 0.300392,0.8634827 0.401924,1.2668859 0.16882,0.670745 0.18454,0.8389357 0.183846,1.9670069 -8e-4,1.3043476 -0.03771,1.5515206 -0.403247,2.7004676 -0.359335,1.129453 -1.141601,2.50938 -2.022806,3.568256 -0.203488,0.244516 -0.337893,0.47095 -0.337893,0.569254 0,0.14407 -0.02935,0.163302 -0.250043,0.163813 -0.137524,3.33e-4 -0.400069,0.01265 -0.583434,0.02741 -0.183365,0.01476 -0.603676,0.003 -0.934024,-0.02624 z"
     id="path53" />
  <path
     style="fill:#f9f9f9;stroke-width:0.0666782"
     d="M 9.6721582,10.821098 C 8.3019899,10.027315 7.2895198,9.4003978 7.2884125,9.3450929 7.2846767,9.1585035 7.8373356,8.3250725 8.2664183,7.8702223 8.9577314,7.1373939 9.8984069,6.4998667 10.819804,6.1397079 c 0.201355,-0.078707 0.388428,-0.1782021 0.415717,-0.221101 0.03689,-0.057988 0.04988,-0.056655 0.05064,0.0052 5.6e-4,0.045756 0.102599,0.2257876 0.226751,0.4000692 0.321868,0.4518322 0.662866,1.1600798 0.87489,1.8171354 0.238243,0.7383063 0.305342,2.0308295 0.145541,2.8035465 -0.112425,0.543628 -0.361331,1.266086 -0.434144,1.260117 -0.02487,-0.002 -1.117037,-0.624646 -2.4270388,-1.383572 z"
     id="path55" />
  <path
     style="fill:#ffffff;stroke-width:0.0666782"
     d="m 18.196561,15.859009 c 0.02717,-0.04584 0.199166,-0.32339 0.382219,-0.616774 1.208071,-1.936211 1.816821,-4.279995 1.639285,-6.3114961 -0.03636,-0.4160161 -0.108088,-0.9361767 -0.159404,-1.1559123 -0.05132,-0.2197356 -0.08145,-0.4113739 -0.06696,-0.425863 0.05771,-0.057713 0.862903,0.8380376 1.144229,1.2729219 0.164639,0.2545072 0.392253,0.7080053 0.505806,1.0077734 0.192769,0.5088851 0.206678,0.6047341 0.209725,1.4451891 0.0029,0.813005 -0.01392,0.947319 -0.174241,1.387296 -0.487729,1.338521 -1.636317,2.56146 -3.103232,3.304111 -0.391385,0.198145 -0.448159,0.212097 -0.377429,0.09275 z"
     id="path57" />
  <path
     style="fill:#ffffff;stroke-width:0.0666782"
     d="M 11.120484,13.481929 C 10.790427,13.303249 8.6919668,12.103458 6.4572397,10.815727 4.2225123,9.5279957 2.3560994,8.4743978 2.3096557,8.4743978 c -0.1251912,0 -0.2291484,0.4231789 -0.2705741,1.1014277 -0.056354,0.9226595 0.2049464,1.7364605 0.9222157,2.8721765 0.141801,0.224526 0.25782,0.483409 0.25782,0.575296 0,0.383634 -0.5957696,0.679006 -1.1668685,0.578512 C 1.5372496,13.511188 0.79265488,12.459499 0.38118329,11.241543 0.12133244,10.472385 0.08112698,9.4078393 0.28045794,8.5745737 0.60364553,7.2235488 1.0173465,6.8074427 2.037375,6.8074427 c 0.365513,0 0.4643754,0.036156 1.1898611,0.4351537 0.6894773,0.3791943 3.7905778,2.1592899 7.5922519,4.3581096 0.641258,0.370892 1.217802,0.674349 1.281209,0.674349 0.155789,0 0.220814,-0.139883 0.418237,-0.899722 0.137732,-0.530102 0.168488,-0.804578 0.168488,-1.5036335 0,-1.6716048 -0.379338,-2.6935058 -1.595381,-4.2978035 -0.222383,-0.2933841 -0.404474,-0.594261 -0.404648,-0.6686153 -0.0012,-0.5277223 0.941889,-0.8431493 1.496372,-0.5004598 0.44666,0.2760509 1.231746,1.3616079 1.712347,2.3677017 0.594603,1.2447479 0.839801,2.6884686 0.66252,3.9008994 -0.166915,1.141542 -0.590879,2.266754 -1.024978,2.72032 -0.262066,0.273819 -0.720313,0.415207 -1.341751,0.413986 -0.436543,-8.6e-4 -0.515589,-0.02489 -1.071419,-0.325799 z"
     id="path59" />
  <path
     style="fill:#ffffff;stroke-width:0.0666782"
     d="M 12.987474,16.570248 C 11.155858,16.287458 9.6493323,15.572234 8.5111105,14.445092 8.1761453,14.113388 7.7835658,13.657528 7.6387115,13.432071 7.349224,12.9815 7.0330068,12.106438 6.9712532,11.585026 l -0.039589,-0.334266 0.2274203,0.138326 c 1.0834664,0.659006 4.2571515,2.430607 4.4503935,2.48428 0.134457,0.03735 0.469505,0.06777 0.744553,0.06762 1.105742,-6.18e-4 1.646654,-0.540137 2.095946,-2.090548 C 15.00808,9.9245434 14.73326,7.8382602 13.685217,6.0447904 13.539833,5.7960015 13.420882,5.5842697 13.420882,5.5742751 c 0,-0.1271487 2.333228,-0.018048 3.100537,0.1449804 0.796004,0.1691248 0.923404,0.346551 1.355904,1.8883257 0.167322,0.5964677 0.177694,0.7171236 0.177694,2.0670242 0,1.4227756 -0.0017,1.4393616 -0.22019,2.2003806 -0.362745,1.263239 -1.016936,2.521114 -1.983294,3.813466 -0.27334,0.36555 -0.496983,0.706191 -0.496983,0.756977 0,0.05079 -0.05804,0.1234 -0.128973,0.161364 -0.180153,0.09641 -1.518468,0.07456 -2.238103,-0.03655 z"
     id="path61" />
  <path
     style="fill:#ffffff;stroke-width:0.0666782"
     d="M 10.546244,11.285181 C 9.2869663,10.562643 8.1762143,9.9006177 7.5031918,9.4714758 7.4206776,9.4188619 7.3530376,9.3305227 7.3528808,9.2751665 7.3523393,9.0839504 8.0923677,8.0850654 8.5646279,7.6395591 9.1334253,7.1029845 9.9155782,6.582405 10.690245,6.2248068 l 0.569934,-0.2630902 0.351008,0.5817905 c 0.408327,0.6767964 0.714797,1.4286014 0.8535,2.0937351 0.115717,0.5549066 0.129911,1.8637308 0.02535,2.3375878 -0.108663,0.492444 -0.339254,1.166869 -0.398961,1.166869 -0.02863,0 -0.723801,-0.385433 -1.544832,-0.856518 z"
     id="path63" />
  <path
     style="fill:#ffffff;stroke-width:0.0666782"
     d="m 15.842223,17.145883 c -0.482855,-0.294418 -0.473874,-0.603618 0.03673,-1.264305 1.197655,-1.549698 1.924555,-3.059387 2.246421,-4.665558 0.172796,-0.862288 0.1061,-2.8212866 -0.123989,-3.6417779 C 17.571486,6.0412454 16.987059,4.8931193 15.947951,3.5402108 15.736699,3.2651632 15.532508,2.95761 15.494193,2.8567592 15.329802,2.4240582 15.728356,2.0739515 16.385795,2.0735396 l 0.397802,-2.492e-4 0.472168,0.4834169 c 1.38728,1.420329 2.535375,3.8581737 2.828442,6.005863 0.181639,1.331101 -0.03019,3.0123877 -0.570642,4.5291617 -0.534728,1.500715 -2.085788,3.821207 -2.735664,4.092743 -0.308247,0.128793 -0.686764,0.113181 -0.935678,-0.03859 z"
     id="path65" />
  <path
     style="fill:#ffffff;stroke-width:0.0666782"
     d="m 23.910285,12.878478 c -0.353967,-0.215829 -0.376479,-0.319838 -0.24301,-1.122732 0.08808,-0.529876 0.119162,-1.092883 0.1204,-2.1811579 0.0015,-1.2994115 -0.01619,-1.5468683 -0.154751,-2.1670416 C 23.167929,5.3262507 22.383134,3.653085 20.979017,1.7494764 20.584037,1.213988 20.356853,0.84493859 20.356294,0.73789307 c -0.0029,-0.55548413 0.8442,-0.86571279 1.405094,-0.5145812 0.279544,0.17500063 0.566268,0.49092044 1.073852,1.18319643 2.04307,2.7864761 3.093536,6.1372311 2.856126,9.1104157 -0.08216,1.028978 -0.215546,1.795887 -0.361394,2.077926 -0.204002,0.394498 -0.982712,0.55007 -1.419687,0.283628 z"
     id="path67" />
  <path
     style="fill:#ffffff;stroke-width:0.0666782"
     d="m 20.788824,19.173838 c -0.110019,-0.05588 -0.252544,-0.164041 -0.316722,-0.24035 -0.222454,-0.264501 -0.150209,-0.464043 0.475558,-1.313508 0.325735,-0.442178 0.790404,-1.114801 1.032598,-1.494719 0.332318,-0.521291 0.498386,-0.718433 0.676903,-0.803562 0.436851,-0.20832 0.956774,-0.120592 1.258006,0.212265 0.09511,0.105102 0.116927,0.202675 0.09007,0.402918 -0.08591,0.640466 -1.816772,3.021036 -2.362251,3.248952 -0.283714,0.118543 -0.60608,0.114016 -0.854161,-0.012 z"
     id="path69" />
</svg>
