<?xml version="1.0" encoding="UTF-8" standalone="no"?>
<svg
   xmlns:dc="http://purl.org/dc/elements/1.1/"
   xmlns:cc="http://creativecommons.org/ns#"
   xmlns:rdf="http://www.w3.org/1999/02/22-rdf-syntax-ns#"
   xmlns:svg="http://www.w3.org/2000/svg"
   xmlns="http://www.w3.org/2000/svg"
   xmlns:sodipodi="http://sodipodi.sourceforge.net/DTD/sodipodi-0.dtd"
   xmlns:inkscape="http://www.inkscape.org/namespaces/inkscape"
   id="annonces"
   width="25.936"
   height="19.27"
   viewBox="0 0 25.936 19.27"
   version="1.1"
   sodipodi:docname="register.svg"
   inkscape:version="1.0.2-2 (e86c870879, 2021-01-15)">
  <metadata
     id="metadata342">
    <rdf:RDF>
      <cc:Work
         rdf:about="">
        <dc:format>image/svg+xml</dc:format>
        <dc:type
           rdf:resource="http://purl.org/dc/dcmitype/StillImage" />
        <dc:title></dc:title>
      </cc:Work>
    </rdf:RDF>
  </metadata>
  <defs
     id="defs340" />
  <sodipodi:namedview
     pagecolor="#ffffff"
     bordercolor="#666666"
     borderopacity="1"
     objecttolerance="10"
     gridtolerance="10"
     guidetolerance="10"
     inkscape:pageopacity="0"
     inkscape:pageshadow="2"
     inkscape:window-width="1366"
     inkscape:window-height="745"
     id="namedview338"
     showgrid="false"
     inkscape:zoom="21.209533"
     inkscape:cx="14.281088"
     inkscape:cy="12.676825"
     inkscape:window-x="-8"
     inkscape:window-y="-8"
     inkscape:window-maximized="1"
     inkscape:current-layer="annonces" />
  <g
     id="g241"
     transform="matrix(0.04518753,0,0,0.03880996,1.1779877,-0.2336726)">
    <rect
       fill="#e3e4e2"
       height="392"
       rx="24"
       width="368"
       x="56"
       y="24"
       id="rect159" />
    <path
       d="M 400,24 H 80 A 24,24 0 0 0 56,48 V 88 H 424 V 48 A 24,24 0 0 0 400,24 Z"
       fill="#0093b9"
       id="path161" />
    <path
       d="m 440.224,495.578 h -88 v -144 h -62.745 a 17.255,17.255 0 0 1 -17.255,-17.255 17.255,17.255 0 0 1 14.564,-17.044 L 403.24,298.892 a 24,24 0 0 1 26.82,17.113 l 10.164,35.573 z"
       fill="#f5be9a"
       id="path163" />
    <path
       d="M 471.772,351.578 H 248.224 L 235.592,360 H 216 a 8,8 0 0 0 -8,8 8,8 0 0 0 8,8 h 20.856 l 11.368,7.578 h 224 a 16,16 0 0 0 15.982,-16.773 C 487.8,358.2 480.388,351.578 471.772,351.578 Z"
       fill="#0093b9"
       id="path165" />
    <path
       d="m 488.224,367.578 a 16,16 0 0 0 -16,-16 h -16 v 32 h 16 a 16,16 0 0 0 16,-16 z"
       fill="#e3e4e2"
       id="path167" />
    <path
       d="m 352.224,447.578 -17.717,-7.086 A 35.45,35.45 0 0 1 312.224,407.578 L 285.2,380.549 a 16.97,16.97 0 0 1 -4.971,-12 16.971,16.971 0 0 1 16.971,-16.971 h 3.023 a 16.972,16.972 0 0 1 7.589,1.792 l 60.417,30.208 24,24 z"
       fill="#f5be9a"
       id="path169" />
    <path
       d="M 96,128 H 224 V 256 H 96 Z"
       fill="#0093b9"
       id="path171" />
    <circle
       cx="160"
       cy="184"
       fill="#f6bc1b"
       r="24"
       id="circle173" />
    <path
       d="m 128,256 v -16 a 32,32 0 0 1 32,-32 32,32 0 0 1 32,32 v 16 z"
       fill="#f6bc1b"
       id="path175" />
    <path
       d="M 64,392 V 96 h 352 v 184 h 16 V 48 A 32.036,32.036 0 0 0 400,16 H 80 A 32.036,32.036 0 0 0 48,48 v 344 a 32.036,32.036 0 0 0 32,32 H 272 V 408 H 80 A 16.019,16.019 0 0 1 64,392 Z M 80,32 h 320 a 16.019,16.019 0 0 1 16,16 V 80 H 64 V 48 A 16.019,16.019 0 0 1 80,32 Z"
       id="path177" />
    <path
       d="M 80,48 H 96 V 64 H 80 Z"
       id="path179" />
    <path
       d="m 112,48 h 16 v 16 h -16 z"
       id="path181" />
    <path
       d="m 144,48 h 16 v 16 h -16 z"
       id="path183" />
    <path
       d="m 472,344 h -25.965 l -8.507,-29.772 A 32.036,32.036 0 0 0 401.769,291.411 L 285.316,309.8 A 25.239,25.239 0 0 0 265.764,344 H 248 a 8.005,8.005 0 0 0 -4.438,1.344 L 221.578,360 H 208 v 16 h 13.578 l 21.984,14.656 A 8.005,8.005 0 0 0 248,392 h 36.686 l 19.448,19.447 a 43.214,43.214 0 0 0 27.178,36.894 L 344,453.416 V 496 h 16 v -48 a 8,8 0 0 0 -5.028,-7.428 l -17.718,-7.087 A 27.315,27.315 0 0 1 320,408 a 8,8 0 0 0 -2.343,-5.657 l -27.029,-27.03 A 8.97,8.97 0 0 1 296.971,360 h 3.023 a 9.008,9.008 0 0 1 4.011,0.947 l 59.256,29.628 23.082,23.082 11.314,-11.314 L 387.314,392 H 432 v 104 h 16 V 392 h 24 a 24,24 0 0 0 0,-48 z m -233.578,24 12,-8 h 23.251 a 24.994,24.994 0 0 0 -0.67,16 h -22.581 z m 58.549,-24 h -7.716 a 9.255,9.255 0 0 1 -1.443,-18.4 l 116.453,-18.387 a 16.007,16.007 0 0 1 17.879,11.408 l 7.25,25.379 h -42.08 L 397.657,333.657 386.343,322.343 364.687,344 Z m 72.918,32 -32,-16 H 448 v 16 z M 472,376 h -8 v -16 h 8 a 8,8 0 0 1 0,16 z"
       id="path185" />
    <path
       d="M 232,256 V 128 a 8,8 0 0 0 -8,-8 H 96 a 8,8 0 0 0 -8,8 v 128 a 8,8 0 0 0 8,8 h 128 a 8,8 0 0 0 8,-8 z m -72,-40 a 24.028,24.028 0 0 1 24,24 v 8 h -48 v -8 a 24.028,24.028 0 0 1 24,-24 z m -16,-32 a 16,16 0 1 1 16,16 16.019,16.019 0 0 1 -16,-16 z m 72,64 h -16 v -8 a 39.994,39.994 0 0 0 -17.632,-33.146 32,32 0 1 0 -44.736,0 A 39.994,39.994 0 0 0 120,240 v 8 H 104 V 136 h 112 z"
       id="path187" />
    <path
       d="m 128,280 h 96 v 16 h -96 z"
       id="path189" />
    <path
       d="m 96,280 h 16 v 16 H 96 Z"
       id="path191" />
    <path
       d="m 296,136 h 96 v 16 h -96 z"
       id="path193" />
    <path
       d="m 264,168 h 128 v 16 H 264 Z"
       id="path195" />
    <path
       d="m 264,200 h 128 v 16 H 264 Z"
       id="path197" />
    <path
       d="m 264,232 h 128 v 16 H 264 Z"
       id="path199" />
    <path
       d="m 264,136 h 16 v 16 h -16 z"
       id="path201" />
    <path
       d="m 448,56 h 16 v 160 h -16 z"
       id="path203" />
    <path
       d="m 448,232 h 16 v 16 h -16 z"
       id="path205" />
    <path
       d="m 91.61,345.435 -11.038,27.594 14.856,5.942 9.384,-23.459 4.993,9.987 a 14,14 0 0 0 20.288,5.387 l 12.887,-8.592 9.605,9.605 a 13.907,13.907 0 0 0 9.9,4.1 H 192 V 360 h -28.687 l -10.177,-10.179 a 14.037,14.037 0 0 0 -17.666,-1.749 l -12.37,8.244 -5.972,-11.944 a 14,14 0 0 0 -25.521,1.063 z"
       id="path207" />
  </g>
  <path
     style="fill:#ffffff;stroke-width:0.0666782"
     d="M 13.514309,15.746777 V 15.580081 H 9.1178881 c -2.5783079,0 -4.4645037,-0.02589 -4.5610539,-0.06259 -0.090548,-0.03443 -0.227525,-0.1301 -0.3043926,-0.212608 C 4.1127604,15.15495 4.1126822,15.151607 4.1126822,9.3330962 V 3.5113264 h 7.9013668 7.901367 v 3.5672838 3.5672838 h 0.200035 c 0.18979,0 0.200034,0.01402 0.200034,0.273847 0,0.235303 -0.01642,0.266845 -0.116687,0.224104 -0.325881,-0.138921 -0.983723,-0.09008 -3.612778,0.26822 -1.519447,0.207077 -2.839675,0.416604 -2.933841,0.465613 -0.398167,0.207232 -0.637775,0.652783 -0.560049,1.041412 l 0.03878,0.193898 H 12.6635 c -0.431579,0 -0.507612,0.02296 -0.991838,0.299555 -0.418062,0.2388 -0.588667,0.299657 -0.84115,0.300052 l -0.316721,4.96e-4 v 0.333391 0.333391 l 0.316721,4.67e-4 c 0.252483,4e-4 0.423088,0.06125 0.84115,0.300052 l 0.524428,0.299556 h 0.900229 0.900229 l 0.459002,0.406936 c 0.252451,0.223815 0.459002,0.433851 0.459002,0.466747 0,0.03293 -0.315055,0.05984 -0.700121,0.05984 H 13.514309 Z M 5.7009861,14.113161 c 0.097251,-0.220038 0.1932702,-0.40007 0.2133764,-0.40007 0.020106,0 0.089602,0.0898 0.1544363,0.199555 0.2362429,0.399927 0.69997,0.460216 1.233411,0.160354 l 0.3235795,-0.181893 0.3200592,0.244383 0.3200592,0.244383 h 0.823889 0.8238891 V 14.046482 13.713091 H 9.2509591 8.5882324 L 8.2800698,13.446379 c -0.2613629,-0.226208 -0.353843,-0.266713 -0.6089553,-0.266713 -0.2042591,0 -0.3965161,0.0561 -0.5990605,0.174796 -0.1640472,0.09614 -0.3078778,0.16365 -0.3196233,0.150026 -0.011746,-0.01362 -0.099932,-0.150946 -0.1959704,-0.305161 -0.2319149,-0.372401 -0.5962058,-0.498763 -0.9506337,-0.329748 -0.1984533,0.09464 -0.2837184,0.213495 -0.5375641,0.749369 -0.1659347,0.350292 -0.2912954,0.645691 -0.2785793,0.656442 0.032919,0.02783 0.6120925,0.226258 0.6788536,0.232576 0.030596,0.0029 0.1351986,-0.174767 0.2324493,-0.394805 z m 0.5453985,-3.167215 v -0.36673 H 5.8796545 5.5129244 v 0.36673 0.36673 h 0.3667301 0.3667301 z m 5.0675434,0 v -0.36673 H 9.1135473 6.9131667 v 0.36673 0.36673 h 2.2003806 2.2003807 z m 0.296271,-1.0483485 c 0.08956,-0.12786 0.103798,-0.498376 0.103798,-2.7004672 0,-2.4633702 -0.0046,-2.5569197 -0.133356,-2.6856308 C 11.451212,4.3820701 11.35838,4.3781431 8.4282625,4.3781431 c -2.624534,0 -3.0383858,0.013563 -3.1672146,0.1037982 L 5.1128552,4.5857395 v 2.6080882 c 0,2.3332825 0.011627,2.6209364 0.1103516,2.7300254 C 5.3270859,10.038638 5.5145857,10.04579 8.4199796,10.04579 H 11.506401 Z M 18.915243,9.0789563 V 8.7122262 h -2.933841 -2.933841 v 0.3667301 0.3667301 h 2.933841 2.933841 z m 0,-1.2335467 v -0.333391 h -2.933841 -2.933841 v 0.333391 0.333391 h 2.933841 2.933841 z m 0,-1.2668859 v -0.333391 h -2.933841 -2.933841 v 0.333391 0.333391 h 2.933841 2.933841 z M 13.834515,5.3616465 13.814361,5.011586 H 13.44763 13.0809 L 13.06075,5.3616465 13.0406,5.7117071 h 0.407038 0.407039 z m 5.067543,0 -0.02015,-0.3500605 h -2.167042 -2.167041 l -0.02015,0.3500605 -0.02015,0.3500606 h 2.207349 2.20735 z"
     id="path464" />
  <path
     style="fill:#ffffff;stroke-width:0.0666782"
     d="m 14.065871,13.032262 c -0.210176,-0.101439 -0.259161,-0.308184 -0.108465,-0.457789 0.101293,-0.10056 0.622347,-0.19066 2.879995,-0.498009 1.51598,-0.206381 2.831265,-0.35643 2.922854,-0.333443 0.259109,0.06503 0.444762,0.315331 0.6066,0.81782 0.08176,0.253875 0.148665,0.481966 0.148665,0.506869 0,0.0249 -0.397569,0.04447 -0.883486,0.04348 l -0.883486,-0.0018 0.233359,-0.193447 0.233359,-0.193447 -0.266698,-0.235392 c -0.146684,-0.129465 -0.284112,-0.236641 -0.305396,-0.238167 -0.02128,-0.0015 -0.261325,0.191564 -0.533425,0.42909 l -0.494729,0.431865 -1.700294,-0.003 c -1.070195,-0.0019 -1.755347,-0.02954 -1.848853,-0.07467 z"
     id="path466" />
  <path
     style="fill:#ffffff;stroke-width:0.0666782"
     d="m 17.448323,17.982033 c 0,-1.152331 0.04376,-1.074696 -0.751701,-1.333456 -0.579625,-0.188549 -0.867408,-0.454729 -1.013338,-0.93727 -0.100852,-0.333485 -0.166811,-0.41224 -0.772889,-0.922835 -0.692384,-0.583306 -0.810598,-0.791462 -0.533653,-0.939678 0.242943,-0.130019 0.462798,-0.06817 1.816193,0.510972 1.239197,0.530269 1.400556,0.618879 1.882024,1.033512 0.289641,0.249434 0.544685,0.452389 0.566765,0.451012 0.02208,-0.0014 0.160166,-0.105318 0.306858,-0.230981 l 0.266713,-0.228478 -0.233374,-0.199717 -0.233373,-0.199717 0.950164,-0.0027 0.950164,-0.0027 v 2.000346 2.000346 h -1.600277 -1.600276 z"
     id="path468" />
  <path
     style="fill:#ffffff;stroke-width:0.0666782"
     d="m 16.781541,18.157746 v -0.822923 l -0.283383,-0.08474 c -0.76544,-0.228896 -1.32043,-0.698544 -1.465224,-1.239911 -0.06385,-0.23874 -0.1644,-0.374812 -0.479887,-0.649437 l -0.399109,-0.347417 -0.936588,-0.03376 -0.936588,-0.03376 -0.539978,-0.316301 C 11.306201,14.374932 11.140267,14.313195 10.890637,14.313195 H 10.580468 V 14.046482 13.77977 h 0.310169 c 0.246089,0 0.417642,-0.06199 0.830371,-0.300052 0.478735,-0.276135 0.556768,-0.300052 0.978942,-0.300052 0.252308,0 0.476829,-0.01809 0.498937,-0.04019 0.02211,-0.02211 0.01121,-0.116445 -0.02423,-0.209639 -0.120318,-0.316463 0.150621,-0.785759 0.581203,-1.006707 0.168416,-0.08642 5.409964,-0.810484 5.867157,-0.810484 0.357566,0 0.790613,0.183003 1.02603,0.433593 0.08562,0.09113 0.266642,0.488438 0.402278,0.882896 l 0.24661,0.717197 0.825669,0.03334 c 0.888807,0.03589 1.066087,0.09734 1.296875,0.449572 0.14275,0.217864 0.146683,0.629338 0.008,0.840937 -0.223968,0.341819 -0.530618,0.456853 -1.317242,0.494137 l -0.72894,0.03455 v 1.990904 1.990903 h -0.333391 -0.333391 v -2.000346 -2.000346 l -1.050182,0.0018 -1.050182,0.0018 0.233374,0.198241 0.233374,0.198241 -0.22972,0.19227 -0.229719,0.19227 -0.512546,-0.442313 c -0.467849,-0.40374 -0.632144,-0.493193 -1.883976,-1.025747 -1.426259,-0.60676 -1.736168,-0.680691 -1.934536,-0.461497 -0.236148,0.26094 -0.149401,0.414587 0.585007,1.036165 0.599209,0.507149 0.701178,0.622975 0.737449,0.837659 0.0929,0.549881 0.321312,0.750241 1.193426,1.046866 0.256847,0.08736 0.490683,0.196137 0.519636,0.241728 0.02895,0.04559 0.0531,0.510468 0.05366,1.033058 l 0.001,0.950164 h -0.300051 -0.300052 z m -3.267232,-4.005793 c 0,-0.125356 0.01821,-0.275382 0.04047,-0.333391 0.03491,-0.09098 -0.03608,-0.105496 -0.516756,-0.105656 -0.449806,-1.47e-4 -0.61186,0.02875 -0.840612,0.149912 -0.15586,0.08255 -0.283301,0.16515 -0.283202,0.18355 10e-5,0.0184 0.112619,0.09771 0.250043,0.176248 0.195662,0.111819 0.369192,0.144363 0.799959,0.150026 l 0.550095,0.0072 z m 7.934706,-0.105471 v -0.333391 h -2.511546 c -1.38135,0 -2.490554,0.02099 -2.464897,0.04665 0.02566,0.02566 0.338211,0.173584 0.694565,0.328727 l 0.647916,0.282079 1.816981,0.0047 1.816981,0.0047 z m 1.344983,0.22304 c 0.271262,-0.245489 0.05417,-0.556431 -0.388484,-0.556431 h -0.289717 v 0.333391 0.333391 h 0.278132 c 0.165234,0 0.327628,-0.04479 0.400069,-0.110351 z m -4.678893,-1.489925 c 0.248191,-0.220039 0.477246,-0.399921 0.50901,-0.399738 0.03177,1.8e-4 0.14777,0.07536 0.257789,0.167064 l 0.200035,0.166733 -0.216705,0.187852 c -0.119187,0.103319 -0.216704,0.208171 -0.216704,0.233005 0,0.02483 0.435076,0.04515 0.966834,0.04515 0.758147,0 0.966834,-0.01907 0.966834,-0.08834 0,-0.199672 -0.344365,-1.081616 -0.477781,-1.223631 -0.07901,-0.0841 -0.236368,-0.170081 -0.349691,-0.191068 -0.234366,-0.04341 -5.590675,0.671642 -5.776622,0.771158 -0.265275,0.14197 -0.210529,0.543385 0.09066,0.664736 0.08012,0.03228 0.921786,0.06059 1.870376,0.06292 l 1.724709,0.0042 z"
     id="path470" />
  <path
     style="fill:#ffffff;stroke-width:0.0666782"
     d="m 4.1126822,2.1481415 c 0,-0.6400365 0.013025,-0.7115453 0.1609222,-0.8834862 L 4.4345267,1.077572 h 7.5683773 7.568377 l 0.172068,0.1616489 c 0.16442,0.1544647 0.172067,0.1937298 0.172067,0.8834862 V 2.8445444 H 12.014049 4.1126822 Z M 5.5462635,1.9443887 V 1.6109977 L 5.1628639,1.5910006 4.7794642,1.5710036 v 0.3733851 0.3733851 l 0.3833997,-0.019997 0.3833996,-0.019997 z m 1.4335814,0 V 1.5776586 H 6.5797756 6.1797064 v 0.3222779 c 0,0.1772529 0.020004,0.3422815 0.044452,0.3667301 0.024449,0.024449 0.2044798,0.044452 0.4000692,0.044452 h 0.3556171 z m 1.4669204,0 V 1.5776586 H 8.0466961 7.6466269 v 0.3667301 0.3667301 h 0.4000692 0.4000692 z"
     id="path472" />
  <path
     style="fill:#ffffff;stroke-width:0.0235743"
     d="M 4.6010068,16.195423 C 3.9992671,16.125342 3.4906576,15.704424 3.3832076,15.18759 3.3646446,15.0983 3.3572356,13.130949 3.3572356,8.291165 c 0,-7.46436921 -0.011618,-6.8914229 0.1457261,-7.1866303 C 3.6075477,0.90831109 3.8498791,0.68781435 4.0923136,0.56828476 4.4602546,0.38687555 3.7755737,0.40063323 12.096945,0.40744328 l 7.467625,0.006111 0.188368,0.0665652 c 0.425631,0.15040874 0.709476,0.40815126 0.874297,0.79389702 0.04413,0.1032914 0.04549,0.2278882 0.05151,4.7325416 l 0.0062,4.6264579 H 20.331024 19.97712 V 7.0615085 3.4900014 H 12.020792 4.0644647 v 5.7906502 c 0,4.3700614 0.0068,5.8133514 0.027724,5.8831844 0.039363,0.131382 0.1871664,0.288201 0.3444098,0.365418 l 0.1347139,0.06615 4.4378628,0.0061 4.4378628,0.0061 v 0.306224 0.306224 l -4.3435655,-0.0031 c -2.3889611,-0.0017 -4.4150706,-0.01143 -4.5024655,-0.0216 z M 19.97689,2.1875211 C 19.976654,1.5136701 19.9754,1.4952674 19.921323,1.3791378 19.856652,1.2402589 19.756616,1.1488643 19.576357,1.0639735 L 19.446698,1.0029123 H 12.03258 c -6.2219133,0 -7.4292823,0.0052 -7.5084164,0.032349 C 4.3655015,1.0896902 4.194748,1.2339982 4.1261709,1.3716146 l -0.061706,0.1238283 v 0.6908132 0.6908134 h 7.9563271 7.956328 l -2.36e-4,-0.6895484 z"
     id="path474" />
  <path
     style="fill:#ffffff;stroke-width:0.0471486"
     d="M 5.3056364,9.8916353 5.1814065,9.793916 V 7.211472 c 0,-2.5654993 6.512e-4,-2.5830333 0.099247,-2.6722615 0.095437,-0.08637 0.2159577,-0.089818 3.1395483,-0.089818 h 3.0403012 l 0.09013,0.1113077 c 0.08627,0.1065395 0.09013,0.2210118 0.09013,2.6722615 V 9.793916 l -0.12423,0.097719 c -0.122705,0.09652 -0.160822,0.097719 -3.10545,0.097719 -2.9446276,0 -2.9827447,-0.0012 -3.1054498,-0.097719 z M 6.6514974,9.0581695 C 6.6747864,8.5974002 6.7694951,8.3956317 7.129125,8.0406261 L 7.4076594,7.7656733 7.2900363,7.6398629 C 7.0859178,7.4215367 7.0007217,7.2044948 6.9986042,6.8974233 6.9969587,6.6587761 7.0204586,6.572289 7.1390842,6.3804167 7.766622,5.365398 9.4629915,5.5262983 9.7842265,6.6313078 9.878201,6.954568 9.8110477,7.2681497 9.5842069,7.565327 9.4965228,7.6801994 9.4255865,7.7899149 9.4265706,7.8091394 c 9.84e-4,0.019224 0.086471,0.093539 0.1899696,0.1651431 0.2079689,0.1438799 0.4443278,0.4831764 0.5157968,0.740432 0.02546,0.091656 0.04641,0.2886448 0.04656,0.4377522 l 2.63e-4,0.2711045 h 0.400763 0.400763 V 7.2311609 5.0387506 H 8.4110862 5.841487 v 2.1924103 2.1924103 h 0.3957709 0.3957708 z m 2.8675811,0.1281443 c 0,-0.6312915 -0.4313193,-1.033684 -1.1079923,-1.033684 -0.3860998,0 -0.6324783,0.095957 -0.8575703,0.333999 -0.1920832,0.2031338 -0.250422,0.3617098 -0.250422,0.6806945 V 9.4235712 H 8.4110862 9.5190785 Z M 8.8096766,7.4388856 c 0.22077,-0.1240796 0.332213,-0.3096573 0.332213,-0.5532093 0,-0.4521756 -0.5751229,-0.7563246 -1.0527723,-0.5567499 C 7.5880546,6.5382837 7.535017,7.1953731 7.999391,7.4405583 8.2374122,7.5662312 8.58437,7.565515 8.8096766,7.4388854 Z"
     id="path476" />
  <path
     style="fill:#ffffff;stroke-width:0.0471486"
     d="m 7.9749616,11.321344 c 0.6158787,-0.0074 1.6236802,-0.0074 2.2395584,0 0.615879,0.0074 0.111978,0.01354 -1.119779,0.01354 -1.2317574,0 -1.7356581,-0.0061 -1.1197794,-0.01354 z"
     id="path478" />
  <path
     style="fill:#ffffff;stroke-width:0.0471486"
     d="m 6.9730536,10.932327 v -0.282892 h 2.1452617 2.1452617 v 0.282892 0.282891 H 9.1183153 6.9730536 Z"
     id="path480" />
  <path
     style="fill:#ffffff;stroke-width:0.0471486"
     d="m 5.5585954,10.932327 v -0.282892 h 0.3300402 0.3300403 v 0.282892 0.282891 H 5.8886356 5.5585954 Z"
     id="path482" />
  <path
     style="fill:#ffffff;stroke-width:0.0471486"
     d="M 13.149521,9.093531 V 8.8106393 h 2.852491 2.852491 V 9.093531 9.3764226 h -2.852491 -2.852491 z"
     id="path484" />
  <path
     style="fill:#ffffff;stroke-width:0.0471486"
     d="m 14.579159,8.115218 c 0.799266,-0.00725 2.093495,-0.00724 2.876065,1.08e-5 0.782569,0.00726 0.128624,0.013186 -1.453212,0.01318 -1.581836,-5.9e-6 -2.22212,-0.00594 -1.422853,-0.013191 z"
     id="path486" />
  <path
     style="fill:#ffffff;stroke-width:0.0471486"
     d="M 13.149521,7.8205185 V 7.5376269 h 2.852491 2.852491 v 0.2828916 0.2828917 h -2.852491 -2.852491 z"
     id="path488" />
  <path
     style="fill:#ffffff;stroke-width:0.0471486"
     d="M 13.149521,6.5946547 V 6.3117631 h 2.852491 2.852491 v 0.2828916 0.2828917 h -2.852491 -2.852491 z"
     id="path490" />
  <path
     style="fill:#ffffff;stroke-width:0.0471486"
     d="m 15.616283,5.7106523 c 0.617664,-0.00745 1.614857,-0.00744 2.215984,1.74e-5 0.601128,0.00746 0.09577,0.013553 -1.123026,0.013543 -1.218791,-9.5e-6 -1.710622,-0.00611 -1.092958,-0.01356 z"
     id="path492" />
  <path
     style="fill:#ffffff;stroke-width:0.0471486"
     d="M 13.149521,5.3687909 V 5.0858992 h 0.330041 0.33004 v 0.2828917 0.2828916 h -0.33004 -0.330041 z"
     id="path494" />
  <path
     style="fill:#ffffff;stroke-width:0.0471486"
     d="M 14.56398,5.3687909 V 5.0858992 h 2.145261 2.145262 V 5.3687909 5.6516825 H 16.709241 14.56398 Z"
     id="path496" />
  <path
     style="fill:#ffffff;stroke-width:0.0471486"
     d="M 21.447677,5.0387506 V 1.974091 h 0.33004 0.33004 v 3.0646596 3.0646596 h -0.33004 -0.33004 z"
     id="path498" />
  <path
     style="fill:#ffffff;stroke-width:0.0471486"
     d="M 21.447677,9.093531 V 8.8106393 h 0.33004 0.33004 V 9.093531 9.3764226 h -0.33004 -0.33004 z"
     id="path500" />
  <path
     style="fill:#ffffff;stroke-width:0.0471486"
     d="m 5.1264181,14.320691 -0.2671572,-0.09319 0.2037563,-0.439006 c 0.3141555,-0.676867 0.3480905,-0.732178 0.5096543,-0.830689 0.1797088,-0.109575 0.457287,-0.119255 0.6444409,-0.02247 0.075923,0.03926 0.2127145,0.199467 0.3119984,0.365402 0.097239,0.162518 0.1816278,0.302091 0.1875299,0.310163 0.0059,0.0081 0.1942202,-0.0821 0.4184846,-0.200382 0.2242644,-0.118281 0.4499593,-0.215057 0.5015441,-0.215057 0.1625367,0 0.3884983,0.119771 0.6537272,0.346509 l 0.2564994,0.219274 h 0.6511114 0.6511114 v 0.285997 0.285996 L 9.0548732,14.318344 C 8.2678598,14.303588 8.2591661,14.302268 8.1001139,14.173345 8.0118313,14.101786 7.8725037,13.989297 7.7904971,13.923369 L 7.641394,13.8035 7.2255057,14.022848 C 6.8885549,14.200563 6.7771463,14.237841 6.638542,14.21925 6.3886152,14.185728 6.2389513,14.067477 6.0677644,13.768273 L 5.9157081,13.502507 5.7017903,13.961841 c -0.1176548,0.252634 -0.2351347,0.457693 -0.2610665,0.455686 -0.025932,-0.002 -0.1673693,-0.04558 -0.3143057,-0.09684 z"
     id="path502" />
  <path
     style="fill:#ffffff;stroke-width:0.0471486"
     d=""
     id="path504" />
  <path
     style="fill:#ffffff;stroke-width:0.0471486"
     d="M 4.8042176,1.9269424 V 1.6440508 H 5.1578322 5.5114467 V 1.9269424 2.2098341 H 5.1578322 4.8042176 Z"
     id="path506" />
  <path
     style="fill:#ffffff;stroke-width:0.0471486"
     d="M 6.2658245,1.9269424 V 1.6440508 H 6.5958647 6.925905 V 1.9269424 2.2098341 H 6.5958647 6.2658245 Z"
     id="path508" />
  <path
     style="fill:#ffffff;stroke-width:0.0471486"
     d="M 7.7274314,1.9269424 V 1.6440508 H 8.0574716 8.3875119 V 1.9269424 2.2098341 H 8.0574716 7.7274314 Z"
     id="path510" />
  <path
     style="fill:#ffffff;stroke-width:0.0471486"
     d="M 5.8886356,7.2311609 V 5.0858992 H 8.4110862 10.933537 V 7.2311609 9.3764226 H 10.579922 10.226308 V 9.0994588 c 0,-0.4634844 -0.22031,-0.9045761 -0.5931092,-1.1874898 L 9.4838351,7.7986183 9.5901879,7.6563354 C 9.785648,7.3948414 9.8590878,7.1980642 9.8615872,6.9291381 9.8715655,5.8555033 8.5036532,5.2811254 7.4823263,5.9301012 7.2346246,6.0874969 6.9980168,6.4488096 6.9477292,6.7464596 6.9044675,7.0025234 7.005521,7.3697248 7.183372,7.6027223 L 7.3353527,7.8018279 7.154505,7.9378621 C 6.7924406,8.2102081 6.601296,8.6030544 6.5979342,9.0817438 l -0.00207,0.2946788 H 6.2422502 5.8886356 Z"
     id="path512" />
  <path
     style="fill:#ffffff;stroke-width:0.0471486"
     d="M 8.0770471,7.4234607 C 7.6222826,7.2254561 7.6103732,6.6341529 8.0565649,6.4065229 8.6665522,6.0953305 9.3313305,6.6539352 8.9992352,7.1986367 8.8376282,7.4637039 8.409306,7.5681263 8.0770471,7.4234607 Z"
     id="path514" />
  <path
     style="fill:#ffffff;stroke-width:0.0471486"
     d="m 7.3502425,9.1627395 c 0,-0.5882761 0.4189657,-0.9650321 1.0731492,-0.9650321 0.2796032,0 0.3553097,0.020137 0.5760917,0.153233 0.3124209,0.1883395 0.4724465,0.4583493 0.4724465,0.7971549 V 9.3764226 H 8.4110862 7.3502425 Z"
     id="path516" />
  <path
     style="fill:#ffffff;stroke-width:0.0471486"
     d="m 17.251949,14.059947 c -0.323872,-0.142128 -0.597923,-0.26748 -0.609002,-0.278559 -0.01108,-0.01108 1.054844,-0.02014 2.368718,-0.02014 h 2.388863 v 0.282892 0.282892 l -1.77986,-0.0043 -1.77986,-0.0043 z"
     id="path518" />
  <path
     style="fill:#ffffff;stroke-width:0.0471486"
     d="m 12.236569,14.187792 -0.229298,-0.134483 0.123213,-0.07531 c 0.06777,-0.04142 0.17551,-0.107135 0.239427,-0.146033 0.0836,-0.05088 0.253755,-0.07072 0.606356,-0.07072 h 0.490144 l -0.0052,0.282787 -0.0052,0.282786 -0.49506,-0.0023 c -0.457229,-0.0021 -0.512583,-0.01255 -0.724358,-0.136754 z"
     id="path520" />
</svg>
