<svg xmlns="http://www.w3.org/2000/svg" xmlns:xlink="http://www.w3.org/1999/xlink" width="72" height="72" viewBox="0 0 72 72">
  <defs>
    <filter id="Ellipse_25" x="0" y="0" width="72" height="72" filterUnits="userSpaceOnUse">
      <feOffset dy="3" input="SourceAlpha"/>
      <feGaussianBlur stdDeviation="3" result="blur"/>
      <feFlood flood-opacity="0.161"/>
      <feComposite operator="in" in2="blur"/>
      <feComposite in="SourceGraphic"/>
    </filter>
  </defs>
  <g id="Groupe_408" data-name="Groupe 408" transform="translate(-41 -20)">
    <g transform="matrix(1, 0, 0, 1, 41, 20)" filter="url(#Ellipse_25)">
      <circle id="Ellipse_25-2" data-name="Ellipse 25" cx="27" cy="27" r="27" transform="translate(9 6)" fill="#fff"/>
    </g>
    <g id="Groupe_403" data-name="Groupe 403" transform="translate(-575.931 -421.873)">
      <g id="Groupe_400" data-name="Groupe 400" transform="translate(637.823 460.659)">
        <path id="Tracé_367" data-name="Tracé 367" d="M659.516,480.509c-6.919,1.344-14.1,2.331-20.766,4.67a1.323,1.323,0,0,0,.35,2.586c7.218.208,14.508-1.774,21.323-3.968a1.706,1.706,0,0,0-.906-3.288Z" transform="translate(-637.823 -480.47)" fill="#0477d9"/>
      </g>
      <g id="Groupe_401" data-name="Groupe 401" transform="translate(640.251 461.791)">
        <path id="Tracé_368" data-name="Tracé 368" d="M647.929,486.9q1.967,8.1,4.132,16.13c1.346,5.042,1.927,10.758,4.139,15.491a1.13,1.13,0,0,0,2.091-.566,35.7,35.7,0,0,0-1.478-7.367c-.7-2.765-1.406-5.524-2.057-8.3-1.269-5.411-2.63-10.779-4.121-16.133a1.4,1.4,0,0,0-2.7.746Z" transform="translate(-647.883 -485.16)" fill="#f27f63"/>
      </g>
      <path id="Tracé_369" data-name="Tracé 369" d="M730.511,475.714c0-.061,0,.118-.011.054-.864-6.8-3.094-13.389-4.817-20.008-.642-2.466-4.282-1.414-3.787,1.044a130.114,130.114,0,0,0,3.723,15.627c-3.222,2.8-4.418,8.072-2.07,11.813a.813.813,0,0,0,1.479-.624,16.138,16.138,0,0,1-.28-1.975,1.43,1.43,0,0,0,.447-.063l.806-.245a1.444,1.444,0,0,0,.921-.149l.667-.338a2.3,2.3,0,0,0,1.082,2.071,1.493,1.493,0,0,0,1.5,0l.193-.11a1.854,1.854,0,0,0,.918-1.6A21.859,21.859,0,0,0,730.511,475.714Z" transform="translate(-63.744 0)" fill="#f5cb00"/>
      <g id="Groupe_402" data-name="Groupe 402" transform="translate(638.756 480.645)">
        <path id="Tracé_370" data-name="Tracé 370" d="M643.973,573.7c4.782-1.21,9.594-2.311,14.4-3.438,4.76-1.117,9.731-1.625,14.406-3.053a2,2,0,0,0-.528-3.9c-4.913-.331-10,1.065-14.721,2.26-4.937,1.249-9.711,2.947-14.54,4.551a1.857,1.857,0,0,0,.987,3.579Z" transform="translate(-641.688 -563.263)" fill="#04bf8a"/>
      </g>
    </g>
  </g>
</svg>
