<svg xmlns="http://www.w3.org/2000/svg" width="30" height="30" viewBox="0 0 30 30">
  <g id="Groupe_1121" data-name="Groupe 1121" transform="translate(-266.345 -80.114)">
    <path id="Tracé_4309" data-name="Tracé 4309" d="M281.345,110.114h0a15,15,0,0,1-15-15h0a15,15,0,0,1,15-15h0a15,15,0,0,1,15,15h0A15,15,0,0,1,281.345,110.114Z" fill="#3e5c9a"/>
    <path id="Tracé_4310" data-name="Tracé 4310" d="M294.1,112.433h3.651V103.29H300.3l.271-3.062h-2.819V98.485c0-.722.145-1.007.843-1.007h1.976V94.3h-2.528c-2.717,0-3.942,1.2-3.942,3.487v2.441h-1.9v3.1h1.9Z" transform="translate(-15.043 -8.253)" fill="#fff"/>
  </g>
</svg>
