<svg id="Calque_1" data-name="Calque 1" xmlns="http://www.w3.org/2000/svg" viewBox="0 0 30 30"><defs><style>.cls-1{fill:#1677f1;}.cls-2{fill:#fff;}</style></defs><path class="cls-1" d="M29.5,15A14.5,14.5,0,1,0,12.73,29.32V19.19H9.05V15h3.68V11.81c0-3.64,2.17-5.65,5.48-5.65a21.82,21.82,0,0,1,3.25.29V10H19.63a2.09,2.09,0,0,0-2.36,2.26V15h4l-.65,4.19H17.27V29.32A14.49,14.49,0,0,0,29.5,15Z"/><path class="cls-2" d="M20.64,19.19,21.29,15h-4V12.28A2.09,2.09,0,0,1,19.63,10h1.83V6.45a21.82,21.82,0,0,0-3.25-.29c-3.31,0-5.48,2-5.48,5.65V15H9.05v4.19h3.68V29.32a14.4,14.4,0,0,0,4.54,0V19.19Z"/></svg>