<svg id="Calque_1" data-name="Calque 1" xmlns="http://www.w3.org/2000/svg" viewBox="0 0 30 30"><defs><style>.cls-1{fill:#fffc00;}.cls-2{fill:#fff;stroke:#000;stroke-miterlimit:10;stroke-width:0.5px;}</style></defs><circle class="cls-1" cx="15" cy="15" r="14.5"/><path class="cls-2" d="M6.13,19.68v-.27a.7.7,0,0,1,.42-.28,4.72,4.72,0,0,0,3.17-2.45c.62-1,.52-1.26-.62-1.66L8.91,15a2.41,2.41,0,0,1-.7-.39c-.51-.44-.21-1.08.4-1.23.44-.1.82.18,1.25.23s.4-.06.36-.36a14.29,14.29,0,0,1-.05-2.36,4,4,0,0,1,2.06-3.38,5.19,5.19,0,0,1,5.57,0,4,4,0,0,1,2.05,3.06,14,14,0,0,1,0,2.67c0,.38.05.46.43.37s.87-.36,1.37-.14a.73.73,0,0,1,.48.65.7.7,0,0,1-.27.51,2.55,2.55,0,0,1-.8.42c-.21.09-.43.15-.64.25-.43.2-.56.47-.36.9a5,5,0,0,0,3.39,3,.82.82,0,0,1,.49.3v.27a1.28,1.28,0,0,1-.76.63,3.55,3.55,0,0,1-1,.28.76.76,0,0,0-.81.74c-.07.48-.21.55-.7.51l-.34-.05a3.07,3.07,0,0,0-2.63.56c-.15.12-.32.22-.48.33a3.66,3.66,0,0,1-4.09.15c-.38-.22-.74-.48-1.11-.72a2.36,2.36,0,0,0-1-.36,6.36,6.36,0,0,0-1.69.1c-.29,0-.57-.05-.59-.35,0-.72-.48-.89-1.08-1a2.85,2.85,0,0,1-.83-.26A1.2,1.2,0,0,1,6.13,19.68Z"/></svg>