<svg id="Calque_1" data-name="Calque 1" xmlns="http://www.w3.org/2000/svg" xmlns:xlink="http://www.w3.org/1999/xlink" viewBox="0 0 30 30"><defs><style>.cls-1{fill:url(#linear-gradient);}.cls-2{fill:#ff1753;}.cls-2,.cls-3,.cls-4{fill-rule:evenodd;}.cls-3{fill:#fff;}.cls-4{fill:#00c9d0;}</style><linearGradient id="linear-gradient" x1="4.75" y1="4.75" x2="25.25" y2="25.25" gradientUnits="userSpaceOnUse"><stop offset="0" stop-color="#23004a"/><stop offset="0.96" stop-color="#020003"/><stop offset="1"/></linearGradient></defs><circle class="cls-1" cx="15" cy="15" r="14.5"/><path class="cls-2" d="M18.92,12.34a7.21,7.21,0,0,0,4.21,1.35v-3a3.71,3.71,0,0,1-.88-.1V13A7.25,7.25,0,0,1,18,11.61v6.16a5.58,5.58,0,0,1-8.7,4.63,5.59,5.59,0,0,0,9.58-3.9V12.34ZM20,9.29a4.24,4.24,0,0,1-1.09-2.46V6.44h-.84A4.22,4.22,0,0,0,20,9.29ZM11.29,20a2.63,2.63,0,0,1-.52-1.55,2.56,2.56,0,0,1,2.56-2.55,2.53,2.53,0,0,1,.77.12V13a6.49,6.49,0,0,0-.88-.05v2.4a2.88,2.88,0,0,0-.78-.11A2.55,2.55,0,0,0,11.29,20Z"/><path class="cls-3" d="M18,11.61A7.25,7.25,0,0,0,22.25,13V10.57A4.19,4.19,0,0,1,20,9.29a4.22,4.22,0,0,1-1.93-2.85h-2.2V18.5a2.55,2.55,0,0,1-2.55,2.55,2.58,2.58,0,0,1-2-1,2.55,2.55,0,0,1,1.15-4.83,2.88,2.88,0,0,1,.78.11v-2.4A5.58,5.58,0,0,0,9.34,22.4,5.58,5.58,0,0,0,18,17.77Z"/><path class="cls-4" d="M22.25,10.57V9.93A4.22,4.22,0,0,1,20,9.29,4.23,4.23,0,0,0,22.25,10.57ZM18.08,6.44c0-.11,0-.23,0-.35V5.71H15V17.77a2.56,2.56,0,0,1-2.56,2.54A2.63,2.63,0,0,1,11.29,20a2.58,2.58,0,0,0,2,1,2.55,2.55,0,0,0,2.55-2.55V6.44Zm-4.86,6.48v-.68a4.9,4.9,0,0,0-.77-.05A5.58,5.58,0,0,0,9.34,22.4a5.58,5.58,0,0,1,3.88-9.48Z"/></svg>