<svg id="Calque_1" data-name="Calque 1" xmlns="http://www.w3.org/2000/svg" viewBox="0 0 30 30"><defs><style>.cls-1{fill:#0bf;}.cls-2{fill:#fff;}</style></defs><circle class="cls-1" cx="15" cy="15" r="14.5"/><path class="cls-2" d="M23,10a6.37,6.37,0,0,1-1.6.46c.26-.05.64-.51.79-.7a3,3,0,0,0,.53-1s0-.06,0-.08a.09.09,0,0,0-.09,0,7.92,7.92,0,0,1-1.9.72.13.13,0,0,1-.13,0,1.29,1.29,0,0,0-.16-.17,3.27,3.27,0,0,0-2.33-.79,3.37,3.37,0,0,0-1.34.38,3.24,3.24,0,0,0-1.07.88A3.28,3.28,0,0,0,15.06,11a3.46,3.46,0,0,0,0,1.36c0,.07,0,.08-.07.07A10.11,10.11,0,0,1,8.45,9.15c-.08-.09-.12-.09-.18,0a3.31,3.31,0,0,0,.56,3.91c.13.12.26.24.4.35A3.42,3.42,0,0,1,8,13.06c-.07-.05-.11,0-.12.06s0,.24,0,.38a3.36,3.36,0,0,0,2.06,2.66,2,2,0,0,0,.42.13,4.05,4.05,0,0,1-1.23,0c-.09,0-.13,0-.09.11a3.46,3.46,0,0,0,2.59,2.17c.12,0,.23,0,.35.05l0,0a4.21,4.21,0,0,1-1.77.94A6.29,6.29,0,0,1,7.49,20c-.14,0-.17,0-.21,0s0,.06,0,.1a6.32,6.32,0,0,0,.56.33,9.4,9.4,0,0,0,1.8.72A9.6,9.6,0,0,0,19,18.94a9.78,9.78,0,0,0,2.57-7.12c0-.1.12-.15.19-.21A6.52,6.52,0,0,0,23,10.3a.37.37,0,0,0,.09-.25v0S23.08,10,23,10Z"/></svg>