<svg id="Calque_1" data-name="Calque 1" xmlns="http://www.w3.org/2000/svg" viewBox="0 0 30 30"><defs><style>.cls-1{fill:#39b54a;}.cls-2,.cls-3{fill:#fff;}.cls-3{fill-rule:evenodd;}</style></defs><circle class="cls-1" cx="15" cy="15" r="14.5" transform="translate(-4.6 23.12) rotate(-67.5)"/><path class="cls-2" d="M7.17,23.21l1.2-4.52A8.36,8.36,0,1,1,11.7,22Zm4.76-2.91.28.17a6.75,6.75,0,1,0-3.31-5.8,6.78,6.78,0,0,0,1,3.5l.18.29L9.39,21Z"/><path class="cls-3" d="M18.76,15.83a1.42,1.42,0,0,0-1.2-.27c-.31.13-.5.61-.7.86a.3.3,0,0,1-.39.08,5.38,5.38,0,0,1-2.69-2.31.33.33,0,0,1,0-.45,2,2,0,0,0,.49-.79,1.72,1.72,0,0,0-.22-.94,2.24,2.24,0,0,0-.7-1,1,1,0,0,0-1,.15,2.1,2.1,0,0,0-.73,1.67,2.32,2.32,0,0,0,.07.52,4.49,4.49,0,0,0,.5,1.17,9.24,9.24,0,0,0,.53.8A8.15,8.15,0,0,0,15,17.4a6.46,6.46,0,0,0,1.43.68,3.09,3.09,0,0,0,1.67.26,2,2,0,0,0,1.51-1.12,1,1,0,0,0,.07-.57C19.61,16.25,19.08,16,18.76,15.83Z"/></svg>