<svg xmlns="http://www.w3.org/2000/svg" width="30" height="30" viewBox="0 0 30 30">
  <g id="Groupe_1123" data-name="Groupe 1123" transform="translate(-161.859 -283.36)">
    <path id="Tracé_4314" data-name="Tracé 4314" d="M176.859,313.36h0a15,15,0,0,1-15-15h0a15,15,0,0,1,15-15h0a15,15,0,0,1,15,15h0A15,15,0,0,1,176.859,313.36Z" fill="#57f676"/>
    <g id="Groupe_1119" data-name="Groupe 1119" transform="translate(168.631 290.131)">
      <path id="Tracé_4315" data-name="Tracé 4315" d="M194.5,307.361a8.08,8.08,0,0,0-16.145-.147c0,.117-.008.235-.008.352a7.957,7.957,0,0,0,1.157,4.141l-1.456,4.3,4.474-1.422a8.089,8.089,0,0,0,11.981-7.019C194.506,307.5,194.506,307.429,194.5,307.361Zm-8.074,6.944a6.765,6.765,0,0,1-3.737-1.116l-2.609.832.847-2.5a6.673,6.673,0,0,1-1.294-3.952,6.4,6.4,0,0,1,.034-.654,6.8,6.8,0,0,1,13.528.128c.015.174.023.348.023.526A6.773,6.773,0,0,1,186.428,314.3Z" transform="translate(-178.051 -299.548)" fill="#fff" fill-rule="evenodd"/>
      <path id="Tracé_4316" data-name="Tracé 4316" d="M196.3,315.244c-.2-.1-1.172-.575-1.354-.639s-.314-.1-.446.1-.514.639-.628.767-.23.148-.431.049a5.356,5.356,0,0,1-1.592-.976,5.882,5.882,0,0,1-1.1-1.358c-.113-.2-.011-.3.087-.4s.2-.23.3-.344l.072-.095a2.211,2.211,0,0,0,.125-.235.356.356,0,0,0-.015-.344c-.049-.1-.446-1.067-.613-1.46s-.329-.325-.446-.325-.246-.019-.378-.019a.732.732,0,0,0-.529.246,2.2,2.2,0,0,0-.692,1.641,2.509,2.509,0,0,0,.1.67,4.462,4.462,0,0,0,.707,1.361,8.132,8.132,0,0,0,3.381,2.969c2.016.783,2.016.522,2.379.488a1.977,1.977,0,0,0,1.335-.934,1.624,1.624,0,0,0,.117-.934C196.63,315.391,196.5,315.342,196.3,315.244Z" transform="translate(-184.222 -305.607)" fill="#fff" fill-rule="evenodd"/>
    </g>
  </g>
</svg>
