<svg id="Calque_1" data-name="Calque 1" xmlns="http://www.w3.org/2000/svg" viewBox="0 0 30 30"><defs><style>.cls-1{fill:#fff;}.cls-2{fill:red;}</style></defs><rect class="cls-1" width="30" height="30"/><circle class="cls-2" cx="15" cy="15" r="14.5"/><path class="cls-1" d="M22.76,12.89a3.48,3.48,0,0,0-3.48-3.48h-8.9A3.48,3.48,0,0,0,6.9,12.89V17a3.48,3.48,0,0,0,3.48,3.49h8.9A3.48,3.48,0,0,0,22.76,17Zm-5.23,2.38-4,2c-.15.08-.68,0-.68-.21V13c0-.18.53-.3.69-.21l3.82,2.08C17.52,15,17.69,15.19,17.53,15.27Z"/></svg>